<svg width="24" height="24" viewBox="0 0 24 24" fill="none" xmlns="http://www.w3.org/2000/svg">
<path d="M13.3752 14.8128C13.4815 14.1503 13.643 13.4979 13.8579 12.8623C13.9378 12.6304 10.0625 12.6305 10.1423 12.8627C10.3573 13.4981 10.5188 14.1504 10.6252 14.8127C10.5301 15.3447 10.3717 15.8634 10.1531 16.3577C10.0481 16.5942 13.9524 16.594 13.8469 16.3581C13.6286 15.8636 13.4703 15.3448 13.3752 14.8128Z" fill="#FFA000"/>
<path d="M20.8165 3.375H15.7499C15.5496 3.375 15.1142 12.3248 15.2907 12.3655C15.4998 12.4069 15.7126 12.4263 15.9257 12.4233C19.527 12.2181 21.1307 8.98433 21.7466 4.53881C21.7676 4.40047 21.7597 4.25928 21.7235 4.12413C21.6872 3.98898 21.6234 3.86279 21.5361 3.75349C21.4487 3.64419 21.3397 3.55414 21.2158 3.48901C21.092 3.42387 20.956 3.38505 20.8165 3.375ZM19.8588 5.74875C19.1465 10.5029 16.248 10.5575 16.1249 10.5575C15.9234 10.5613 15.9177 4.875 16.1249 4.875H19.1539C19.2595 4.88085 19.3628 4.90881 19.4569 4.95708C19.5511 5.00534 19.6341 5.07283 19.7005 5.15519C19.767 5.23754 19.8154 5.33293 19.8427 5.43517C19.8699 5.53742 19.8754 5.64425 19.8588 5.74875Z" fill="#FFA000"/>
<path d="M8.25593 3.375H3.18942C3.0499 3.38514 2.91398 3.42402 2.7902 3.48919C2.66641 3.55435 2.55744 3.64441 2.47011 3.75369C2.38278 3.86297 2.31899 3.98913 2.28273 4.12424C2.24647 4.25935 2.23854 4.40049 2.25942 4.53881C2.87693 8.98631 4.47717 12.2159 8.08036 12.4233C8.29352 12.4263 8.5064 12.4069 8.71553 12.3655C8.89167 12.3248 8.45633 3.375 8.25593 3.375ZM7.88093 10.5575C7.75789 10.5575 4.85933 10.5029 4.14724 5.74841C4.13062 5.64395 4.1361 5.53717 4.16335 5.43497C4.19059 5.33276 4.23898 5.23741 4.30539 5.15509C4.3718 5.07276 4.45476 5.0053 4.54889 4.95705C4.64301 4.9088 4.74622 4.88085 4.85183 4.875H7.88093C8.08804 4.875 8.08804 10.5575 7.88093 10.5575Z" fill="#FFA000"/>
<path d="M15.5178 20.5514L14.9325 17.625H9.06747L8.48247 20.5514C8.46016 20.6616 15.54 20.6616 15.5178 20.5514Z" fill="#67676B"/>
<path d="M15.375 20.25H8.625C8.21079 20.25 7.875 20.5858 7.875 21V22.5C7.875 22.9142 8.21079 23.25 8.625 23.25H15.375C15.7892 23.25 16.125 22.9142 16.125 22.5V21C16.125 20.5858 15.7892 20.25 15.375 20.25Z" fill="#46464E"/>
<path d="M14.4375 16.125H9.1875C8.66973 16.125 8.25 16.5447 8.25 17.0625V17.4375C8.25 17.9553 8.66973 18.375 9.1875 18.375H14.4375C14.9553 18.375 15.375 17.9553 15.375 17.4375V17.0625C15.375 16.5447 14.9553 16.125 14.4375 16.125Z" fill="#46464E"/>
<path d="M17.25 2.25H6.75V8.25C7.03916 15.2166 16.9634 15.2112 17.25 8.25V2.25Z" fill="#FFC107"/>
<path d="M12.0001 4.5C7.75049 4.63342 7.74947 10.7409 12.0001 10.875C16.2496 10.7415 16.2506 4.63418 12.0001 4.5Z" fill="#FFA000"/>
<path d="M12.106 9.24546V9.69546H11.7252V9.24546C11.4831 9.24537 11.2482 9.1635 11.0585 9.01314C10.8688 8.86277 10.7355 8.65273 10.6802 8.41708L11.3348 8.26731C11.3673 8.40083 11.4479 8.51766 11.5613 8.59538C11.6746 8.6731 11.8126 8.70624 11.9489 8.68843C12.2838 8.73073 12.6109 8.40718 12.325 8.16471C12.021 8.01786 11.1376 7.89264 11.0336 7.65309C10.9322 7.51764 10.8694 7.35732 10.8516 7.18908C10.8339 7.02085 10.8619 6.85094 10.9327 6.69732C11.0036 6.5437 11.1146 6.41207 11.2541 6.31634C11.3936 6.22061 11.5563 6.16434 11.7252 6.15347V5.77734H12.106V6.14859C12.3192 6.15192 12.5261 6.2212 12.6984 6.3469C12.8706 6.4726 12.9997 6.64856 13.0679 6.85059L12.4679 7.05054C12.3835 6.52464 11.2205 6.59938 11.6107 7.14947C12.0454 7.39029 12.7468 7.31484 13.0044 7.77497C13.0918 7.9278 13.1366 8.10131 13.134 8.27737C13.1315 8.45343 13.0818 8.62558 12.99 8.77583C12.8982 8.92609 12.7677 9.04894 12.6122 9.13155C12.4567 9.21416 12.2819 9.2535 12.106 9.24546Z" fill="#FFD54F"/>
<path d="M16.875 0.75H7.125C6.82663 0.75 6.54048 0.868526 6.3295 1.0795C6.11853 1.29048 6 1.57663 6 1.875C6 2.17337 6.11853 2.45952 6.3295 2.6705C6.54048 2.88147 6.82663 3 7.125 3H16.875C17.1734 3 17.4595 2.88147 17.6705 2.6705C17.8815 2.45952 18 2.17337 18 1.875C18 1.57663 17.8815 1.29048 17.6705 1.0795C17.4595 0.868526 17.1734 0.75 16.875 0.75Z" fill="#FFA000"/>
</svg>
