<svg width="248" height="101" viewBox="0 0 248 101" fill="none" xmlns="http://www.w3.org/2000/svg">
<path fill-rule="evenodd" clip-rule="evenodd" d="M33.4264 12.8783L35.0467 87.0364C35.0467 87.0364 17.0103 78.4047 6.82141 56.9305C2.79358 48.458 0 37.9879 0 25.2534C0 25.2534 6.34396 19.8258 21.1499 15.6203C25.1898 14.4815 29.288 13.5662 33.4264 12.8783V12.8783Z" fill="url(#paint0_radial_9221_12646)"/>
<path fill-rule="evenodd" clip-rule="evenodd" d="M60.0635 59.7547C56.7886 66.2403 52.5182 72.1606 47.4111 77.2955C40.7776 83.9709 35.0584 87.0518 35.0584 87.0518L33.428 12.8783C57.214 15.8155 67.3623 23.7489 67.3623 23.7489C68.0125 38.5528 64.7465 50.4298 60.0635 59.7547Z" fill="url(#paint1_radial_9221_12646)"/>
<path fill-rule="evenodd" clip-rule="evenodd" d="M5.01893 28.8735C5.01893 28.8735 13.3692 21.7309 33.5236 18.3162L34.9102 81.5986C34.9102 81.5986 4.99861 67.2774 5.01893 28.8735Z" fill="url(#paint2_linear_9221_12646)"/>
<g style="mix-blend-mode:soft-light" opacity="0.5">
<path fill-rule="evenodd" clip-rule="evenodd" d="M25.5689 19.9902L20.0833 60.5815L6.82141 56.9306C2.79358 48.458 0 37.988 0 25.2534C0 25.2534 6.34396 19.8258 21.1499 15.6204L25.5689 19.9902Z" fill="#FBF9FA"/>
</g>
<g style="mix-blend-mode:soft-light" opacity="0.3">
<path fill-rule="evenodd" clip-rule="evenodd" d="M60.0626 59.7546C56.7877 66.2402 52.5173 72.1605 47.4102 77.2954L43.9868 74.728L56.7204 57.4028L60.0626 59.7546Z" fill="#FBF9FA"/>
</g>
<path fill-rule="evenodd" clip-rule="evenodd" d="M62.5016 27.5898C62.5016 27.5898 53.8415 20.822 33.5245 18.3162L34.9112 81.5986C34.9112 81.5986 64.2031 65.9577 62.5016 27.5898Z" fill="url(#paint3_linear_9221_12646)"/>
<path fill-rule="evenodd" clip-rule="evenodd" d="M33.5789 19.9335L34.9148 80.8795C34.9148 80.8795 19.8752 73.6906 11.5503 55.7493C9.22194 50.727 7.63554 45.3862 6.84186 39.8979C6.35101 36.6573 6.10142 33.3841 6.09521 30.1057C6.09521 30.1057 11.3471 25.6281 23.5678 22.1723C26.8636 21.2486 30.2053 20.5013 33.5789 19.9335Z" fill="url(#paint4_linear_9221_12646)"/>
<path fill-rule="evenodd" clip-rule="evenodd" d="M61.5243 30.7578C62.1338 66.3221 34.9142 80.8795 34.9142 80.8795L33.5784 19.9335C53.1334 22.3469 61.4684 28.8682 61.4684 28.8682C61.4989 29.4998 61.5141 30.1365 61.5243 30.7578Z" fill="url(#paint5_linear_9221_12646)"/>
<g style="mix-blend-mode:soft-light" opacity="0.5">
<path fill-rule="evenodd" clip-rule="evenodd" d="M34.2088 43.8212L34.5745 65.285L11.53 55.7495C8.31992 48.8534 6.09521 40.3705 6.09521 30.1059C6.09521 30.1059 11.3319 25.6283 23.5525 22.1725L34.097 43.5953L34.2088 43.8212Z" fill="#FBF9FA"/>
</g>
<g style="mix-blend-mode:soft-light">
<path fill-rule="evenodd" clip-rule="evenodd" d="M1.01465 24.4728C1.01465 24.4728 4.0114 24.632 5.93642 23.5999C6.49838 23.2933 6.97743 22.8522 7.33163 22.3151C7.68583 21.7779 7.90437 21.1612 7.96812 20.5189C7.96812 20.5189 2.48763 23.0966 1.01465 24.4728Z" fill="#FBF9FA"/>
</g>
<g style="mix-blend-mode:multiply" opacity="0.5">
<path fill-rule="evenodd" clip-rule="evenodd" d="M61.5046 29.7771C50.4979 22.6036 33.711 21.0939 33.711 21.0939C24.4537 22.8136 15.5714 26.1794 7.47677 31.0351C6.67425 33.4434 6.81647 39.6052 6.82155 39.8928C6.33774 36.6534 6.09495 33.3818 6.09522 30.1057C6.09522 30.1057 11.3471 25.6281 23.5678 22.1723C26.8637 21.2504 30.2054 20.5048 33.5789 19.9386C53.134 22.352 61.469 28.8733 61.469 28.8733C61.4995 29.4998 61.4893 29.1557 61.5046 29.7771Z" fill="#773891"/>
</g>
<path fill-rule="evenodd" clip-rule="evenodd" d="M33.4264 12.8783L35.0467 87.0364C35.0467 87.0364 17.0103 78.4047 6.82141 56.9305C2.79358 48.458 0 37.9879 0 25.2534C0 25.2534 6.34396 19.8258 21.1499 15.6203C25.1898 14.4815 29.288 13.5662 33.4264 12.8783V12.8783Z" fill="#61FFD9" style="mix-blend-mode:hue"/>
<path fill-rule="evenodd" clip-rule="evenodd" d="M60.0635 59.7547C56.7886 66.2403 52.5182 72.1606 47.4111 77.2955C40.7776 83.9709 35.0584 87.0518 35.0584 87.0518L33.428 12.8783C57.214 15.8155 67.3623 23.7489 67.3623 23.7489C68.0125 38.5528 64.7465 50.4298 60.0635 59.7547Z" fill="#61FFD9" style="mix-blend-mode:hue"/>
<path fill-rule="evenodd" clip-rule="evenodd" d="M33.4264 12.8783L35.0467 87.0364C35.0467 87.0364 17.0103 78.4047 6.82141 56.9305C2.79358 48.458 0 37.9879 0 25.2534C0 25.2534 6.34396 19.8258 21.1499 15.6203C25.1898 14.4815 29.288 13.5662 33.4264 12.8783V12.8783Z" fill="#04FFFF" style="mix-blend-mode:soft-light"/>
<path fill-rule="evenodd" clip-rule="evenodd" d="M60.0635 59.7547C56.7886 66.2403 52.5182 72.1606 47.4111 77.2955C40.7776 83.9709 35.0584 87.0518 35.0584 87.0518L33.428 12.8783C57.214 15.8155 67.3623 23.7489 67.3623 23.7489C68.0125 38.5528 64.7465 50.4298 60.0635 59.7547Z" fill="#04FFFF" style="mix-blend-mode:soft-light"/>
<path fill-rule="evenodd" clip-rule="evenodd" d="M33.5752 19.9337L34.911 80.8797C34.911 80.8797 19.8714 73.6909 11.5465 55.7496C9.21816 50.7272 7.63176 45.3865 6.83808 39.8982C6.34722 36.6576 6.09764 33.3843 6.09143 30.1059C6.09143 30.1059 11.3434 25.6283 23.564 22.1725C26.8598 21.2489 30.2015 20.5016 33.5752 19.9337Z" fill="white" style="mix-blend-mode:color"/>
<path fill-rule="evenodd" clip-rule="evenodd" d="M61.5204 30.7581C62.1299 66.3223 34.9103 80.8797 34.9103 80.8797L33.5745 19.9337C53.1295 22.3471 61.4645 28.8684 61.4645 28.8684C61.495 29.5 61.5102 30.1367 61.5204 30.7581Z" fill="white" style="mix-blend-mode:color"/>
<g opacity="0.7">
<path fill-rule="evenodd" clip-rule="evenodd" d="M33.5752 19.9337L34.911 80.8797C34.911 80.8797 19.8714 73.6909 11.5465 55.7496C9.21816 50.7272 7.63176 45.3865 6.83808 39.8982C6.34722 36.6576 6.09764 33.3843 6.09143 30.1059C6.09143 30.1059 11.3434 25.6283 23.564 22.1725C26.8598 21.2489 30.2015 20.5016 33.5752 19.9337Z" fill="white" style="mix-blend-mode:soft-light"/>
<path fill-rule="evenodd" clip-rule="evenodd" d="M61.5204 30.7581C62.1299 66.3223 34.9103 80.8797 34.9103 80.8797L33.5745 19.9337C53.1295 22.3471 61.4645 28.8684 61.4645 28.8684C61.495 29.5 61.5102 30.1367 61.5204 30.7581Z" fill="white" style="mix-blend-mode:soft-light"/>
</g>
<path fill-rule="evenodd" clip-rule="evenodd" d="M25.4884 46.6607L27.0173 43.7903L34.1942 48.0573L43.4841 37.6489L45.3685 39.1534L34.3517 55.2359L25.4884 46.6607Z" fill="url(#paint6_linear_9221_12646)"/>
<path d="M93.5304 59.221L96.5035 49.1042H97.435L96.6823 52.1081L93.5116 62.8577H92.6177L93.5304 59.221ZM90.0774 49.1042L92.5801 59.1265L93.3328 62.8577H92.4013L88.8918 49.1042H90.0774ZM101.443 59.1265L103.908 49.1042H105.094L101.594 62.8577H100.662L101.443 59.1265ZM97.5385 49.1042L100.474 59.221L101.377 62.8577H100.483L97.3786 52.1081L96.6164 49.1042H97.5385Z" fill="white"/>
<path d="M108.189 48.3485V62.8577H107.07V48.3485H108.189ZM107.935 57.1145L107.437 56.8311C107.474 56.2266 107.596 55.6598 107.803 55.1308C108.01 54.6018 108.29 54.1358 108.641 53.7328C108.998 53.3297 109.416 53.0149 109.892 52.7882C110.375 52.5615 110.908 52.4481 111.492 52.4481C112 52.4481 112.455 52.5174 112.856 52.6559C113.257 52.7945 113.599 53.0149 113.882 53.3172C114.164 53.6194 114.377 54.0067 114.521 54.479C114.672 54.9513 114.747 55.5275 114.747 56.2077V62.8577H113.618V56.1982C113.618 55.4929 113.521 54.9419 113.326 54.5451C113.132 54.1421 112.856 53.8556 112.498 53.6856C112.141 53.5155 111.718 53.4305 111.228 53.4305C110.689 53.4305 110.215 53.5502 109.808 53.7895C109.406 54.0225 109.067 54.3279 108.791 54.7057C108.522 55.0773 108.315 55.4772 108.17 55.9054C108.026 56.3273 107.948 56.7303 107.935 57.1145Z" fill="white"/>
<path d="M121.578 63.0466C120.913 63.0466 120.301 62.9238 119.743 62.6782C119.191 62.4326 118.708 62.0863 118.294 61.6392C117.887 61.192 117.57 60.6631 117.344 60.0522C117.124 59.4351 117.015 58.7613 117.015 58.0308V57.6246C117.015 56.8374 117.131 56.1258 117.363 55.4898C117.595 54.8537 117.915 54.309 118.322 53.8556C118.73 53.4022 119.194 53.0558 119.715 52.8165C120.242 52.5709 120.794 52.4481 121.371 52.4481C122.017 52.4481 122.591 52.5646 123.093 52.7976C123.595 53.0243 124.015 53.3486 124.353 53.7706C124.698 54.1862 124.959 54.6805 125.134 55.2536C125.31 55.8204 125.398 56.447 125.398 57.1334V57.8229H117.692V56.8594H124.278V56.7272C124.266 56.1541 124.15 55.6189 123.93 55.1214C123.717 54.6176 123.397 54.2082 122.97 53.8934C122.544 53.5785 122.011 53.4211 121.371 53.4211C120.894 53.4211 120.455 53.5218 120.054 53.7233C119.659 53.9249 119.317 54.2145 119.028 54.5924C118.746 54.9639 118.526 55.4079 118.37 55.9243C118.219 56.4344 118.144 57.0011 118.144 57.6246V58.0308C118.144 58.5975 118.225 59.1265 118.388 59.6177C118.558 60.1026 118.796 60.5308 119.103 60.9024C119.417 61.2739 119.787 61.5636 120.214 61.7714C120.64 61.9792 121.111 62.0831 121.625 62.0831C122.227 62.0831 122.76 61.9729 123.224 61.7525C123.689 61.5258 124.106 61.17 124.476 60.6851L125.181 61.233C124.962 61.5604 124.686 61.8627 124.353 62.1398C124.027 62.4169 123.635 62.6373 123.177 62.801C122.72 62.9648 122.186 63.0466 121.578 63.0466Z" fill="white"/>
<path d="M128.738 54.3279V62.8577H127.618V52.637H128.71L128.738 54.3279ZM132.342 52.5615L132.313 53.6005C132.188 53.5816 132.066 53.5659 131.946 53.5533C131.827 53.5407 131.699 53.5344 131.561 53.5344C131.071 53.5344 130.642 53.6257 130.272 53.8084C129.908 53.9847 129.6 54.2334 129.35 54.5546C129.099 54.8695 128.907 55.241 128.776 55.6692C128.644 56.0912 128.569 56.5446 128.55 57.0295L128.136 57.1901C128.136 56.5225 128.205 55.9022 128.343 55.3292C128.481 54.7561 128.691 54.2555 128.973 53.8272C129.262 53.3927 129.622 53.0558 130.055 52.8165C130.494 52.5709 131.009 52.4481 131.598 52.4481C131.743 52.4481 131.884 52.4607 132.022 52.4859C132.166 52.5048 132.273 52.53 132.342 52.5615Z" fill="white"/>
<path d="M137.855 63.0466C137.19 63.0466 136.579 62.9238 136.02 62.6782C135.468 62.4326 134.985 62.0863 134.571 61.6392C134.164 61.192 133.847 60.6631 133.621 60.0522C133.402 59.4351 133.292 58.7613 133.292 58.0308V57.6246C133.292 56.8374 133.408 56.1258 133.64 55.4898C133.872 54.8537 134.192 54.309 134.6 53.8556C135.007 53.4022 135.472 53.0558 135.992 52.8165C136.519 52.5709 137.071 52.4481 137.648 52.4481C138.294 52.4481 138.868 52.5646 139.37 52.7976C139.872 53.0243 140.292 53.3486 140.631 53.7706C140.976 54.1862 141.236 54.6805 141.412 55.2536C141.587 55.8204 141.675 56.447 141.675 57.1334V57.8229H133.969V56.8594H140.555V56.7272C140.543 56.1541 140.427 55.6189 140.207 55.1214C139.994 54.6176 139.674 54.2082 139.248 53.8934C138.821 53.5785 138.288 53.4211 137.648 53.4211C137.171 53.4211 136.732 53.5218 136.331 53.7233C135.936 53.9249 135.594 54.2145 135.305 54.5924C135.023 54.9639 134.803 55.4079 134.647 55.9243C134.496 56.4344 134.421 57.0011 134.421 57.6246V58.0308C134.421 58.5975 134.502 59.1265 134.666 59.6177C134.835 60.1026 135.073 60.5308 135.381 60.9024C135.694 61.2739 136.064 61.5636 136.491 61.7714C136.917 61.9792 137.388 62.0831 137.902 62.0831C138.504 62.0831 139.037 61.9729 139.502 61.7525C139.966 61.5258 140.383 61.17 140.753 60.6851L141.459 61.233C141.239 61.5604 140.963 61.8627 140.631 62.1398C140.304 62.4169 139.912 62.6373 139.455 62.801C138.997 62.9648 138.464 63.0466 137.855 63.0466Z" fill="white"/>
<path d="M157.378 61.8659V62.8577H149.672V61.8659H157.378ZM150.021 49.1042V62.8577H148.863V49.1042H150.021ZM156.419 55.2725V56.2643H149.672V55.2725H156.419ZM157.331 49.1042V50.1055H149.672V49.1042H157.331Z" fill="white"/>
<path d="M160.69 54.8191V62.8577H159.571V52.637H160.643L160.69 54.8191ZM160.436 57.1145L159.937 56.8311C159.975 56.2266 160.097 55.6598 160.304 55.1308C160.511 54.6018 160.791 54.1358 161.142 53.7328C161.499 53.3297 161.916 53.0149 162.393 52.7882C162.876 52.5615 163.409 52.4481 163.993 52.4481C164.501 52.4481 164.955 52.5174 165.357 52.6559C165.758 52.7945 166.1 53.0149 166.382 53.3172C166.665 53.6194 166.878 54.0067 167.022 54.479C167.173 54.9513 167.248 55.5275 167.248 56.2077V62.8577H166.119V56.1982C166.119 55.4929 166.022 54.9419 165.827 54.5451C165.633 54.1421 165.357 53.8556 164.999 53.6856C164.642 53.5155 164.218 53.4305 163.729 53.4305C163.19 53.4305 162.716 53.5502 162.308 53.7895C161.907 54.0225 161.568 54.3279 161.292 54.7057C161.023 55.0773 160.816 55.4772 160.671 55.9054C160.527 56.3273 160.449 56.7303 160.436 57.1145Z" fill="white"/>
<path d="M170.249 52.637H171.379V64.0763C171.379 64.6997 171.275 65.2287 171.068 65.6632C170.861 66.0977 170.56 66.4252 170.165 66.6456C169.77 66.8723 169.283 66.9856 168.706 66.9856C168.55 66.9856 168.38 66.9699 168.198 66.9384C168.016 66.9069 167.85 66.8628 167.7 66.8062L167.718 65.8616C167.831 65.893 167.966 65.9214 168.123 65.9466C168.274 65.9781 168.421 65.9938 168.565 65.9938C168.929 65.9938 169.236 65.9214 169.487 65.7765C169.738 65.638 169.926 65.427 170.052 65.1437C170.184 64.8603 170.249 64.5045 170.249 64.0763V52.637ZM170.052 49.6804C170.052 49.4663 170.121 49.2868 170.259 49.142C170.397 48.9908 170.585 48.9153 170.823 48.9153C171.062 48.9153 171.25 48.9908 171.388 49.142C171.532 49.2868 171.604 49.4663 171.604 49.6804C171.604 49.8882 171.532 50.0677 171.388 50.2188C171.25 50.3637 171.062 50.4361 170.823 50.4361C170.585 50.4361 170.397 50.3637 170.259 50.2188C170.121 50.0677 170.052 49.8882 170.052 49.6804Z" fill="white"/>
<path d="M173.947 57.908V57.5962C173.947 56.8531 174.054 56.1667 174.267 55.537C174.48 54.9072 174.784 54.3625 175.18 53.9028C175.581 53.4431 176.061 53.0873 176.619 52.8354C177.177 52.5772 177.798 52.4481 178.482 52.4481C179.172 52.4481 179.796 52.5772 180.354 52.8354C180.913 53.0873 181.393 53.4431 181.794 53.9028C182.195 54.3625 182.503 54.9072 182.716 55.537C182.929 56.1667 183.036 56.8531 183.036 57.5962V57.908C183.036 58.651 182.929 59.3375 182.716 59.9672C182.503 60.5906 182.195 61.1322 181.794 61.5919C181.399 62.0516 180.922 62.4106 180.364 62.6688C179.806 62.9207 179.185 63.0466 178.501 63.0466C177.811 63.0466 177.187 62.9207 176.629 62.6688C176.07 62.4106 175.59 62.0516 175.189 61.5919C174.788 61.1322 174.48 60.5906 174.267 59.9672C174.054 59.3375 173.947 58.651 173.947 57.908ZM175.067 57.5962V57.908C175.067 58.4684 175.142 59.0006 175.293 59.5043C175.443 60.0018 175.663 60.4458 175.951 60.8362C176.24 61.2204 176.597 61.5227 177.024 61.7431C177.45 61.9635 177.943 62.0737 178.501 62.0737C179.053 62.0737 179.539 61.9635 179.959 61.7431C180.386 61.5227 180.743 61.2204 181.032 60.8362C181.32 60.4458 181.537 60.0018 181.681 59.5043C181.832 59.0006 181.907 58.4684 181.907 57.908V57.5962C181.907 57.0421 181.832 56.5162 181.681 56.0187C181.537 55.5212 181.317 55.0773 181.022 54.6868C180.734 54.2964 180.376 53.9878 179.95 53.7611C179.523 53.5344 179.034 53.4211 178.482 53.4211C177.93 53.4211 177.441 53.5344 177.014 53.7611C176.594 53.9878 176.237 54.2964 175.942 54.6868C175.653 55.0773 175.434 55.5212 175.283 56.0187C175.139 56.5162 175.067 57.0421 175.067 57.5962Z" fill="white"/>
<path d="M188.239 61.8375L191.41 52.637H192.624L188.314 64.5013C188.226 64.7343 188.114 64.9925 187.976 65.2759C187.844 65.5593 187.668 65.8301 187.449 66.0883C187.235 66.3528 186.966 66.5669 186.64 66.7306C186.32 66.9006 185.928 66.9856 185.463 66.9856C185.344 66.9856 185.191 66.9699 185.002 66.9384C184.821 66.9132 184.689 66.888 184.607 66.8628L184.598 65.9088C184.667 65.9277 184.767 65.9434 184.899 65.956C185.031 65.9686 185.122 65.9749 185.172 65.9749C185.579 65.9749 185.921 65.9056 186.197 65.7671C186.48 65.6286 186.715 65.4207 186.903 65.1437C187.091 64.8729 187.257 64.5328 187.402 64.1235L188.239 61.8375ZM185.275 52.637L188.521 61.4125L188.822 62.5932L188.004 63.0561L184.052 52.637H185.275Z" fill="white"/>
<path d="M195.446 54.753V62.8577H194.317V52.637H195.399L195.446 54.753ZM195.239 57.1145L194.693 56.8311C194.731 56.2266 194.844 55.6598 195.032 55.1308C195.227 54.6018 195.496 54.1358 195.841 53.7328C196.186 53.3297 196.6 53.0149 197.083 52.7882C197.566 52.5615 198.115 52.4481 198.73 52.4481C199.225 52.4481 199.674 52.5174 200.075 52.6559C200.483 52.7882 200.828 52.9991 201.11 53.2888C201.399 53.5722 201.621 53.9437 201.778 54.4035C201.935 54.8632 202.013 55.4142 202.013 56.0565V62.8577H200.894V56.0943C200.894 55.4142 200.787 54.8821 200.574 54.4979C200.367 54.1138 200.075 53.8398 199.699 53.6761C199.329 53.5124 198.899 53.4305 198.41 53.4305C197.833 53.4305 197.344 53.5502 196.942 53.7895C196.547 54.0225 196.224 54.3279 195.973 54.7057C195.728 55.0773 195.546 55.4772 195.427 55.9054C195.308 56.3273 195.245 56.7303 195.239 57.1145ZM202.004 56.2266L201.251 56.2454C201.283 55.7479 201.396 55.2725 201.59 54.8191C201.791 54.3657 202.064 53.9626 202.409 53.61C202.754 53.251 203.164 52.9676 203.641 52.7598C204.124 52.552 204.667 52.4481 205.269 52.4481C205.796 52.4481 206.266 52.5205 206.68 52.6654C207.094 52.8039 207.442 53.0275 207.725 53.336C208.013 53.6383 208.233 54.0256 208.383 54.4979C208.534 54.9702 208.609 55.537 208.609 56.1982V62.8577H207.48V56.1888C207.48 55.4646 207.373 54.9041 207.16 54.5074C206.953 54.1043 206.665 53.8241 206.294 53.6667C205.924 53.5092 205.492 53.4305 204.996 53.4305C204.507 53.4368 204.077 53.5281 203.707 53.7044C203.337 53.8745 203.026 54.1012 202.776 54.3846C202.531 54.6616 202.343 54.9608 202.211 55.2819C202.086 55.6031 202.017 55.918 202.004 56.2266Z" fill="white"/>
<path d="M215.402 63.0466C214.737 63.0466 214.126 62.9238 213.567 62.6782C213.015 62.4326 212.532 62.0863 212.118 61.6392C211.711 61.192 211.394 60.6631 211.168 60.0522C210.949 59.4351 210.839 58.7613 210.839 58.0308V57.6246C210.839 56.8374 210.955 56.1258 211.187 55.4898C211.419 54.8537 211.739 54.309 212.147 53.8556C212.554 53.4022 213.019 53.0558 213.539 52.8165C214.066 52.5709 214.618 52.4481 215.195 52.4481C215.841 52.4481 216.415 52.5646 216.917 52.7976C217.419 53.0243 217.839 53.3486 218.178 53.7706C218.523 54.1862 218.783 54.6805 218.959 55.2536C219.134 55.8204 219.222 56.447 219.222 57.1334V57.8229H211.516V56.8594H218.102V56.7272C218.09 56.1541 217.974 55.6189 217.754 55.1214C217.541 54.6176 217.221 54.2082 216.795 53.8934C216.368 53.5785 215.835 53.4211 215.195 53.4211C214.718 53.4211 214.279 53.5218 213.878 53.7233C213.483 53.9249 213.141 54.2145 212.852 54.5924C212.57 54.9639 212.351 55.4079 212.194 55.9243C212.043 56.4344 211.968 57.0011 211.968 57.6246V58.0308C211.968 58.5975 212.049 59.1265 212.213 59.6177C212.382 60.1026 212.62 60.5308 212.928 60.9024C213.241 61.2739 213.611 61.5636 214.038 61.7714C214.464 61.9792 214.935 62.0831 215.449 62.0831C216.051 62.0831 216.585 61.9729 217.049 61.7525C217.513 61.5258 217.93 61.17 218.3 60.6851L219.006 61.233C218.786 61.5604 218.51 61.8627 218.178 62.1398C217.852 62.4169 217.46 62.6373 217.002 62.801C216.544 62.9648 216.011 63.0466 215.402 63.0466Z" fill="white"/>
<path d="M222.562 54.8191V62.8577H221.443V52.637H222.515L222.562 54.8191ZM222.308 57.1145L221.81 56.8311C221.847 56.2266 221.969 55.6598 222.176 55.1308C222.383 54.6018 222.663 54.1358 223.014 53.7328C223.371 53.3297 223.788 53.0149 224.265 52.7882C224.748 52.5615 225.281 52.4481 225.865 52.4481C226.373 52.4481 226.828 52.5174 227.229 52.6559C227.63 52.7945 227.972 53.0149 228.255 53.3172C228.537 53.6194 228.75 54.0067 228.894 54.479C229.045 54.9513 229.12 55.5275 229.12 56.2077V62.8577H227.991V56.1982C227.991 55.4929 227.894 54.9419 227.699 54.5451C227.505 54.1421 227.229 53.8556 226.871 53.6856C226.514 53.5155 226.09 53.4305 225.601 53.4305C225.062 53.4305 224.588 53.5502 224.181 53.7895C223.779 54.0225 223.44 54.3279 223.164 54.7057C222.895 55.0773 222.688 55.4772 222.543 55.9054C222.399 56.3273 222.321 56.7303 222.308 57.1145Z" fill="white"/>
<path d="M235.885 52.637V53.5628H230.785V52.637H235.885ZM232.658 50.011H233.777V60.3734C233.777 60.8457 233.84 61.2015 233.966 61.4408C234.091 61.6801 234.254 61.8407 234.455 61.9225C234.656 62.0044 234.872 62.0453 235.104 62.0453C235.273 62.0453 235.437 62.0359 235.593 62.017C235.75 61.9918 235.891 61.9666 236.017 61.9414L236.064 62.8955C235.926 62.9396 235.747 62.9742 235.527 62.9994C235.308 63.0309 235.088 63.0466 234.869 63.0466C234.436 63.0466 234.053 62.9679 233.721 62.8105C233.389 62.6467 233.128 62.3697 232.94 61.9792C232.752 61.5825 232.658 61.0441 232.658 60.3639V50.011Z" fill="white"/>
<path d="M90.4161 70.0619H91.5828L96.6447 82.1718L101.716 70.0619H102.873L97.0869 83.8154H96.2025L90.4161 70.0619ZM90.0585 70.0619H91.0841L91.2064 77.8077V83.8154H90.0585V70.0619ZM102.224 70.0619H103.25V83.8154H102.092V77.8077L102.224 70.0619Z" fill="white"/>
<path d="M110.4 84.0044C109.735 84.0044 109.124 83.8816 108.566 83.636C108.014 83.3904 107.531 83.044 107.117 82.5969C106.709 82.1498 106.392 81.6208 106.166 81.0099C105.947 80.3928 105.837 79.719 105.837 78.9885V78.5823C105.837 77.7951 105.953 77.0835 106.185 76.4475C106.417 75.8114 106.737 75.2667 107.145 74.8133C107.553 74.3599 108.017 74.0135 108.537 73.7742C109.064 73.5286 109.616 73.4058 110.193 73.4058C110.839 73.4058 111.413 73.5223 111.915 73.7553C112.417 73.9821 112.837 74.3064 113.176 74.7283C113.521 75.1439 113.781 75.6383 113.957 76.2113C114.132 76.7781 114.22 77.4047 114.22 78.0911V78.7807H106.514V77.8172H113.101V77.6849C113.088 77.1119 112.972 76.5766 112.752 76.0791C112.539 75.5753 112.219 75.166 111.793 74.8511C111.366 74.5362 110.833 74.3788 110.193 74.3788C109.717 74.3788 109.278 74.4795 108.876 74.6811C108.481 74.8826 108.139 75.1723 107.851 75.5501C107.568 75.9216 107.349 76.3656 107.192 76.882C107.041 77.3921 106.966 77.9589 106.966 78.5823V78.9885C106.966 79.5552 107.048 80.0842 107.211 80.5754C107.38 81.0603 107.618 81.4885 107.926 81.8601C108.239 82.2316 108.609 82.5213 109.036 82.7291C109.463 82.9369 109.933 83.0409 110.447 83.0409C111.049 83.0409 111.583 82.9306 112.047 82.7102C112.511 82.4835 112.928 82.1277 113.298 81.6428L114.004 82.1907C113.784 82.5182 113.508 82.8204 113.176 83.0975C112.85 83.3746 112.458 83.595 112 83.7588C111.542 83.9225 111.009 84.0044 110.4 84.0044Z" fill="white"/>
<path d="M120.374 84.0044C119.709 84.0044 119.097 83.8816 118.539 83.636C117.987 83.3904 117.504 83.044 117.09 82.5969C116.682 82.1498 116.365 81.6208 116.14 81.0099C115.92 80.3928 115.81 79.719 115.81 78.9885V78.5823C115.81 77.7951 115.926 77.0835 116.158 76.4475C116.391 75.8114 116.71 75.2667 117.118 74.8133C117.526 74.3599 117.99 74.0135 118.511 73.7742C119.038 73.5286 119.59 73.4058 120.167 73.4058C120.813 73.4058 121.387 73.5223 121.888 73.7553C122.39 73.9821 122.81 74.3064 123.149 74.7283C123.494 75.1439 123.754 75.6383 123.93 76.2113C124.106 76.7781 124.194 77.4047 124.194 78.0911V78.7807H116.488V77.8172H123.074V77.6849C123.061 77.1119 122.945 76.5766 122.726 76.0791C122.513 75.5753 122.193 75.166 121.766 74.8511C121.34 74.5362 120.806 74.3788 120.167 74.3788C119.69 74.3788 119.251 74.4795 118.849 74.6811C118.454 74.8826 118.112 75.1723 117.824 75.5501C117.542 75.9216 117.322 76.3656 117.165 76.882C117.015 77.3921 116.939 77.9589 116.939 78.5823V78.9885C116.939 79.5552 117.021 80.0842 117.184 80.5754C117.353 81.0603 117.592 81.4885 117.899 81.8601C118.213 82.2316 118.583 82.5213 119.009 82.7291C119.436 82.9369 119.906 83.0409 120.421 83.0409C121.023 83.0409 121.556 82.9306 122.02 82.7102C122.484 82.4835 122.901 82.1277 123.271 81.6428L123.977 82.1907C123.758 82.5182 123.482 82.8204 123.149 83.0975C122.823 83.3746 122.431 83.595 121.973 83.7588C121.515 83.9225 120.982 84.0044 120.374 84.0044Z" fill="white"/>
<path d="M130.262 73.5948V74.5205H125.163V73.5948H130.262ZM127.035 70.9687H128.155V81.3311C128.155 81.8034 128.217 82.1592 128.343 82.3985C128.468 82.6378 128.631 82.7984 128.832 82.8803C129.033 82.9621 129.249 83.0031 129.481 83.0031C129.651 83.0031 129.814 82.9936 129.971 82.9747C130.127 82.9495 130.268 82.9244 130.394 82.8992L130.441 83.8532C130.303 83.8973 130.124 83.9319 129.905 83.9571C129.685 83.9886 129.466 84.0044 129.246 84.0044C128.813 84.0044 128.431 83.9256 128.098 83.7682C127.766 83.6045 127.505 83.3274 127.317 82.9369C127.129 82.5402 127.035 82.0018 127.035 81.3217V70.9687Z" fill="white"/>
<path d="M138.721 81.2083C138.721 80.9312 138.652 80.6573 138.514 80.3865C138.376 80.1157 138.109 79.867 137.714 79.6403C137.325 79.4136 136.751 79.2215 135.992 79.064C135.428 78.9381 134.923 78.7964 134.477 78.639C134.038 78.4815 133.668 78.2926 133.367 78.0722C133.066 77.8518 132.837 77.5873 132.68 77.2787C132.523 76.9702 132.445 76.6049 132.445 76.183C132.445 75.8051 132.527 75.4493 132.69 75.1156C132.859 74.7755 133.097 74.4795 133.405 74.2276C133.718 73.9695 134.095 73.7679 134.534 73.6231C134.979 73.4783 135.478 73.4058 136.03 73.4058C136.814 73.4058 137.485 73.5412 138.043 73.812C138.608 74.0765 139.037 74.4386 139.332 74.8983C139.633 75.358 139.784 75.8776 139.784 76.4569H138.664C138.664 76.1043 138.561 75.7705 138.354 75.4556C138.153 75.1408 137.855 74.8826 137.46 74.6811C137.071 74.4795 136.594 74.3788 136.03 74.3788C135.446 74.3788 134.973 74.467 134.609 74.6433C134.245 74.8196 133.979 75.0432 133.809 75.314C133.646 75.5847 133.565 75.865 133.565 76.1547C133.565 76.3814 133.599 76.5892 133.668 76.7781C133.743 76.9607 133.875 77.1307 134.063 77.2882C134.258 77.4456 134.534 77.5936 134.891 77.7321C135.249 77.8707 135.713 78.0061 136.284 78.1383C137.106 78.321 137.777 78.5445 138.297 78.809C138.824 79.0672 139.213 79.3884 139.464 79.7725C139.715 80.1503 139.84 80.6101 139.84 81.1516C139.84 81.5736 139.753 81.9608 139.577 82.3135C139.401 82.6599 139.147 82.959 138.815 83.2109C138.489 83.4628 138.093 83.658 137.629 83.7965C137.171 83.9351 136.657 84.0044 136.086 84.0044C135.227 84.0044 134.499 83.8627 133.903 83.5793C133.314 83.2896 132.865 82.9118 132.558 82.4457C132.257 81.9734 132.106 81.4728 132.106 80.9438H133.226C133.264 81.4728 133.43 81.8916 133.725 82.2001C134.019 82.5024 134.38 82.7165 134.807 82.8425C135.239 82.9684 135.666 83.0314 136.086 83.0314C136.663 83.0314 137.146 82.9464 137.535 82.7764C137.924 82.6063 138.219 82.3828 138.42 82.1057C138.62 81.8286 138.721 81.5295 138.721 81.2083Z" fill="white"/>
<path d="M155.111 80.4337C155.111 80.0559 155.048 79.719 154.923 79.423C154.797 79.127 154.59 78.8625 154.302 78.6295C154.019 78.3902 153.637 78.1698 153.154 77.9683C152.677 77.7605 152.081 77.5558 151.366 77.3543C150.682 77.1591 150.065 76.945 149.513 76.712C148.961 76.479 148.487 76.2113 148.092 75.9091C147.703 75.6068 147.405 75.2541 147.198 74.8511C146.991 74.4418 146.887 73.9663 146.887 73.4247C146.887 72.8958 147 72.414 147.226 71.9795C147.452 71.545 147.769 71.1703 148.176 70.8554C148.59 70.5405 149.077 70.2981 149.635 70.128C150.199 69.958 150.817 69.873 151.488 69.873C152.448 69.873 153.276 70.0556 153.972 70.4209C154.675 70.7861 155.217 71.2805 155.6 71.9039C155.989 72.5211 156.183 73.2138 156.183 73.9821H155.026C155.026 73.3838 154.885 72.8517 154.603 72.3857C154.327 71.9134 153.925 71.545 153.398 71.2805C152.878 71.0097 152.241 70.8743 151.488 70.8743C150.736 70.8743 150.102 70.9908 149.588 71.2238C149.08 71.4505 148.694 71.7559 148.431 72.1401C148.173 72.5179 148.045 72.9398 148.045 73.4058C148.045 73.7333 148.107 74.0356 148.233 74.3127C148.358 74.5835 148.562 74.8385 148.845 75.0778C149.133 75.3108 149.513 75.5312 149.983 75.739C150.453 75.9405 151.034 76.1326 151.724 76.3152C152.451 76.5168 153.097 76.7403 153.662 76.9859C154.226 77.2315 154.703 77.5149 155.092 77.8361C155.481 78.1509 155.776 78.5193 155.976 78.9412C156.177 79.3632 156.277 79.8544 156.277 80.4148C156.277 80.9753 156.158 81.4791 155.92 81.9262C155.688 82.367 155.359 82.7417 154.932 83.0503C154.512 83.3589 154.013 83.595 153.436 83.7588C152.865 83.9225 152.241 84.0044 151.564 84.0044C150.955 84.0044 150.35 83.9256 149.748 83.7682C149.146 83.6108 148.594 83.3683 148.092 83.0409C147.596 82.7071 147.198 82.2789 146.897 81.7562C146.602 81.2335 146.455 80.6101 146.455 79.8859H147.603C147.603 80.4652 147.719 80.9533 147.951 81.35C148.183 81.7467 148.49 82.0679 148.873 82.3135C149.262 82.5591 149.688 82.7386 150.152 82.8519C150.623 82.959 151.093 83.0125 151.564 83.0125C152.285 83.0125 152.909 82.9055 153.436 82.6913C153.969 82.4772 154.38 82.1781 154.669 81.794C154.963 81.4035 155.111 80.9501 155.111 80.4337Z" fill="white"/>
<path d="M162.45 84.0044C161.785 84.0044 161.173 83.8816 160.615 83.636C160.063 83.3904 159.58 83.044 159.166 82.5969C158.758 82.1498 158.441 81.6208 158.216 81.0099C157.996 80.3928 157.886 79.719 157.886 78.9885V78.5823C157.886 77.7951 158.002 77.0835 158.234 76.4475C158.467 75.8114 158.786 75.2667 159.194 74.8133C159.602 74.3599 160.066 74.0135 160.587 73.7742C161.114 73.5286 161.666 73.4058 162.243 73.4058C162.889 73.4058 163.463 73.5223 163.964 73.7553C164.466 73.9821 164.886 74.3064 165.225 74.7283C165.57 75.1439 165.83 75.6383 166.006 76.2113C166.182 76.7781 166.27 77.4047 166.27 78.0911V78.7807H158.564V77.8172H165.15V77.6849C165.137 77.1119 165.021 76.5766 164.802 76.0791C164.589 75.5753 164.269 75.166 163.842 74.8511C163.416 74.5362 162.882 74.3788 162.243 74.3788C161.766 74.3788 161.327 74.4795 160.925 74.6811C160.53 74.8826 160.188 75.1723 159.9 75.5501C159.618 75.9216 159.398 76.3656 159.241 76.882C159.091 77.3921 159.015 77.9589 159.015 78.5823V78.9885C159.015 79.5552 159.097 80.0842 159.26 80.5754C159.429 81.0603 159.668 81.4885 159.975 81.8601C160.289 82.2316 160.659 82.5213 161.085 82.7291C161.512 82.9369 161.982 83.0409 162.497 83.0409C163.099 83.0409 163.632 82.9306 164.096 82.7102C164.56 82.4835 164.977 82.1277 165.347 81.6428L166.053 82.1907C165.834 82.5182 165.558 82.8204 165.225 83.0975C164.899 83.3746 164.507 83.595 164.049 83.7588C163.591 83.9225 163.058 84.0044 162.45 84.0044Z" fill="white"/>
<path d="M172.244 83.0314C172.721 83.0314 173.166 82.9432 173.58 82.7669C174 82.5843 174.345 82.3167 174.615 81.964C174.891 81.605 175.048 81.1674 175.086 80.651H176.158C176.127 81.2996 175.929 81.879 175.565 82.3891C175.208 82.8929 174.737 83.2896 174.154 83.5793C173.577 83.8627 172.94 84.0044 172.244 84.0044C171.535 84.0044 170.908 83.8753 170.362 83.6171C169.823 83.3589 169.371 82.9999 169.007 82.5402C168.644 82.0742 168.368 81.5326 168.18 80.9155C167.998 80.292 167.907 79.6214 167.907 78.9035V78.5067C167.907 77.7888 167.998 77.1213 168.18 76.5042C168.368 75.8807 168.644 75.3391 169.007 74.8794C169.371 74.4134 169.823 74.0513 170.362 73.7931C170.902 73.5349 171.526 73.4058 172.235 73.4058C172.962 73.4058 173.615 73.5538 174.192 73.8498C174.775 74.1458 175.239 74.5646 175.584 75.1061C175.935 75.6477 176.127 76.29 176.158 77.0331H175.086C175.054 76.4853 174.91 76.013 174.653 75.6162C174.396 75.2195 174.057 74.9141 173.637 74.7C173.216 74.4858 172.749 74.3788 172.235 74.3788C171.658 74.3788 171.165 74.4921 170.758 74.7188C170.35 74.9393 170.017 75.2447 169.76 75.6351C169.509 76.0193 169.324 76.4601 169.205 76.9576C169.086 77.4488 169.026 77.9652 169.026 78.5067V78.9035C169.026 79.4513 169.083 79.974 169.196 80.4715C169.315 80.9627 169.5 81.4004 169.751 81.7845C170.008 82.1687 170.34 82.4741 170.748 82.7008C171.162 82.9212 171.661 83.0314 172.244 83.0314Z" fill="white"/>
<path d="M184.946 81.4539V73.5948H186.075V83.8154H184.993L184.946 81.4539ZM185.153 79.5647L185.736 79.5458C185.736 80.1881 185.661 80.7801 185.51 81.3217C185.36 81.8632 185.125 82.3355 184.805 82.7386C184.485 83.1416 184.071 83.4533 183.563 83.6737C183.055 83.8941 182.443 84.0044 181.728 84.0044C181.233 84.0044 180.778 83.9351 180.364 83.7965C179.956 83.6517 179.605 83.425 179.31 83.1164C179.015 82.8078 178.786 82.408 178.623 81.9168C178.466 81.4256 178.388 80.8305 178.388 80.1315V73.5948H179.508V80.1503C179.508 80.6982 179.567 81.1548 179.686 81.52C179.812 81.8853 179.981 82.1781 180.195 82.3985C180.414 82.6189 180.665 82.7764 180.947 82.8708C181.229 82.9653 181.534 83.0125 181.86 83.0125C182.688 83.0125 183.34 82.8519 183.817 82.5308C184.3 82.2096 184.642 81.7877 184.842 81.265C185.049 80.736 185.153 80.1692 185.153 79.5647Z" fill="white"/>
<path d="M190.14 75.2856V83.8154H189.02V73.5948H190.111L190.14 75.2856ZM193.743 73.5192L193.715 74.5583C193.589 74.5394 193.467 74.5236 193.348 74.511C193.229 74.4984 193.1 74.4921 192.962 74.4921C192.473 74.4921 192.043 74.5835 191.673 74.7661C191.309 74.9424 191.002 75.1912 190.751 75.5123C190.5 75.8272 190.309 76.1987 190.177 76.627C190.046 77.0489 189.97 77.5023 189.951 77.9872L189.537 78.1478C189.537 77.4803 189.606 76.86 189.744 76.2869C189.882 75.7138 190.093 75.2132 190.375 74.785C190.663 74.3504 191.024 74.0135 191.457 73.7742C191.896 73.5286 192.41 73.4058 193 73.4058C193.144 73.4058 193.285 73.4184 193.423 73.4436C193.568 73.4625 193.674 73.4877 193.743 73.5192Z" fill="white"/>
<path d="M196.763 73.5948V83.8154H195.644V73.5948H196.763ZM195.446 70.6381C195.446 70.424 195.512 70.2445 195.644 70.0997C195.782 69.9486 195.97 69.873 196.208 69.873C196.447 69.873 196.635 69.9486 196.773 70.0997C196.917 70.2445 196.989 70.424 196.989 70.6381C196.989 70.8459 196.917 71.0254 196.773 71.1766C196.635 71.3214 196.447 71.3938 196.208 71.3938C195.97 71.3938 195.782 71.3214 195.644 71.1766C195.512 71.0254 195.446 70.8459 195.446 70.6381Z" fill="white"/>
<path d="M203.688 73.5948V74.5205H198.589V73.5948H203.688ZM200.461 70.9687H201.581V81.3311C201.581 81.8034 201.643 82.1592 201.769 82.3985C201.894 82.6378 202.057 82.7984 202.258 82.8803C202.459 82.9621 202.675 83.0031 202.907 83.0031C203.077 83.0031 203.24 82.9936 203.397 82.9747C203.553 82.9495 203.694 82.9244 203.82 82.8992L203.867 83.8532C203.729 83.8973 203.55 83.9319 203.331 83.9571C203.111 83.9886 202.892 84.0044 202.672 84.0044C202.239 84.0044 201.857 83.9256 201.524 83.7682C201.192 83.6045 200.931 83.3274 200.743 82.9369C200.555 82.5402 200.461 82.0018 200.461 81.3217V70.9687Z" fill="white"/>
<path d="M209.07 82.7953L212.241 73.5948H213.455L209.145 85.4591C209.057 85.6921 208.945 85.9502 208.807 86.2336C208.675 86.517 208.499 86.7878 208.28 87.046C208.066 87.3105 207.797 87.5246 207.471 87.6883C207.151 87.8584 206.759 87.9434 206.294 87.9434C206.175 87.9434 206.022 87.9276 205.833 87.8961C205.652 87.871 205.52 87.8458 205.438 87.8206L205.429 86.8665C205.498 86.8854 205.598 86.9012 205.73 86.9137C205.862 86.9263 205.953 86.9326 206.003 86.9326C206.41 86.9326 206.752 86.8634 207.028 86.7248C207.311 86.5863 207.546 86.3785 207.734 86.1014C207.922 85.8306 208.088 85.4905 208.233 85.0812L209.07 82.7953ZM206.106 73.5948L209.352 82.3702L209.653 83.5509L208.835 84.0138L204.883 73.5948H206.106Z" fill="white"/>
<path d="M102.227 31.4875C102.227 31.1306 102.175 30.8105 102.07 30.5271C101.966 30.2333 101.772 29.9604 101.49 29.7085C101.208 29.4566 100.8 29.2047 100.267 28.9528C99.744 28.6904 99.054 28.4175 98.1968 28.1341C97.1932 27.7983 96.2262 27.4204 95.2957 27.0006C94.3653 26.5703 93.5342 26.0717 92.8024 25.505C92.0706 24.9277 91.4904 24.256 91.0618 23.4898C90.6332 22.7131 90.4189 21.8105 90.4189 20.7819C90.4189 19.7953 90.6384 18.9085 91.0775 18.1213C91.5165 17.3236 92.1281 16.6466 92.9122 16.0904C93.7067 15.5236 94.6371 15.0933 95.7034 14.7994C96.7698 14.495 97.9354 14.3428 99.2004 14.3428C100.873 14.3428 102.347 14.6367 103.622 15.2245C104.908 15.8017 105.912 16.6257 106.633 17.6962C107.365 18.7563 107.731 20.0105 107.731 21.4589H102.258C102.258 20.8816 102.138 20.3726 101.898 19.9318C101.668 19.491 101.317 19.1446 100.847 18.8927C100.376 18.6408 99.7858 18.5149 99.0749 18.5149C98.3849 18.5149 97.8047 18.6198 97.3343 18.8297C96.8639 19.0397 96.5084 19.323 96.268 19.6799C96.0275 20.0262 95.9073 20.4093 95.9073 20.8292C95.9073 21.1755 96.0014 21.4904 96.1896 21.7738C96.3882 22.0467 96.6652 22.3038 97.0207 22.5452C97.3866 22.7866 97.8256 23.0175 98.3379 23.2379C98.8606 23.4583 99.446 23.6735 100.094 23.8834C101.307 24.2717 102.384 24.7073 103.325 25.1901C104.276 25.6624 105.076 26.2029 105.724 26.8117C106.382 27.4099 106.879 28.0922 107.214 28.8583C107.558 29.6245 107.731 30.4904 107.731 31.456C107.731 32.4846 107.532 33.3977 107.135 34.1954C106.738 34.9931 106.168 35.67 105.426 36.2263C104.684 36.7721 103.795 37.1866 102.76 37.47C101.725 37.7534 100.57 37.8951 99.2945 37.8951C98.1236 37.8951 96.9684 37.7482 95.8289 37.4543C94.6998 37.1499 93.6753 36.6881 92.7554 36.0689C91.8354 35.4391 91.0984 34.6362 90.5443 33.6601C90.0007 32.6735 89.7289 31.5032 89.7289 30.1493H95.2487C95.2487 30.821 95.3376 31.3878 95.5153 31.8496C95.693 32.3114 95.9543 32.684 96.2993 32.9674C96.6443 33.2403 97.0677 33.4397 97.5695 33.5656C98.0713 33.6811 98.6463 33.7388 99.2945 33.7388C99.9949 33.7388 100.559 33.6391 100.988 33.4397C101.417 33.2298 101.73 32.9569 101.929 32.621C102.128 32.2747 102.227 31.8968 102.227 31.4875Z" fill="white"/>
<path d="M119.131 33.298V26.2764C119.131 25.7936 119.063 25.379 118.927 25.0327C118.792 24.6863 118.577 24.4187 118.284 24.2298C117.992 24.0303 117.6 23.9306 117.108 23.9306C116.711 23.9306 116.371 23.9989 116.089 24.1353C115.807 24.2717 115.593 24.4764 115.446 24.7493C115.3 25.0222 115.227 25.3685 115.227 25.7884H109.942C109.942 25.0012 110.115 24.2717 110.46 23.6C110.815 22.9178 111.317 22.3248 111.965 21.821C112.624 21.3172 113.408 20.9289 114.317 20.656C115.237 20.3726 116.262 20.2309 117.391 20.2309C118.739 20.2309 119.941 20.4566 120.997 20.9079C122.064 21.3592 122.905 22.0362 123.522 22.9388C124.139 23.8309 124.447 24.954 124.447 26.3079V33.2823C124.447 34.3948 124.51 35.2397 124.635 35.817C124.761 36.3837 124.939 36.8823 125.169 37.3126V37.5802H119.868C119.617 37.0554 119.429 36.4152 119.304 35.6595C119.189 34.8933 119.131 34.1062 119.131 33.298ZM119.774 27.1738L119.806 30.0076H117.469C116.978 30.0076 116.56 30.0758 116.215 30.2123C115.88 30.3487 115.608 30.5376 115.399 30.779C115.201 31.01 115.054 31.2723 114.96 31.5662C114.876 31.8601 114.835 32.1697 114.835 32.4951C114.835 32.81 114.908 33.0933 115.054 33.3452C115.211 33.5866 115.42 33.7756 115.681 33.912C115.943 34.0484 116.235 34.1167 116.56 34.1167C117.145 34.1167 117.642 34.0065 118.049 33.7861C118.467 33.5551 118.786 33.277 119.006 32.9516C119.225 32.6263 119.335 32.3219 119.335 32.0385L120.496 34.2111C120.286 34.631 120.046 35.056 119.774 35.4863C119.513 35.9167 119.184 36.3155 118.786 36.6829C118.399 37.0397 117.924 37.3336 117.359 37.5645C116.795 37.7849 116.11 37.8951 115.305 37.8951C114.26 37.8951 113.298 37.6799 112.42 37.2496C111.552 36.8193 110.857 36.221 110.334 35.4549C109.811 34.6782 109.55 33.7861 109.55 32.7785C109.55 31.8968 109.707 31.1097 110.02 30.4169C110.345 29.7242 110.831 29.1365 111.479 28.6537C112.127 28.1709 112.953 27.8035 113.956 27.5516C114.96 27.2997 116.141 27.1738 117.5 27.1738H119.774Z" fill="white"/>
<path d="M133.856 37.5802H128.54V19.1604C128.54 17.8379 128.807 16.7254 129.34 15.8227C129.873 14.9201 130.626 14.2379 131.598 13.7761C132.57 13.3038 133.72 13.0676 135.048 13.0676C135.508 13.0676 135.942 13.0991 136.349 13.1621C136.757 13.2251 137.154 13.3038 137.541 13.3982L137.557 17.3026C137.369 17.2501 137.175 17.2134 136.977 17.1924C136.778 17.1714 136.532 17.1609 136.24 17.1609C135.727 17.1609 135.293 17.2396 134.938 17.3971C134.583 17.544 134.311 17.7697 134.123 18.0741C133.945 18.3679 133.856 18.73 133.856 19.1604V37.5802ZM137.149 20.5458V24.2298H126.094V20.5458H137.149Z" fill="white"/>
<path d="M146.887 37.8951C145.507 37.8951 144.274 37.6799 143.186 37.2496C142.099 36.8088 141.179 36.2053 140.426 35.4391C139.684 34.6729 139.114 33.7913 138.717 32.7942C138.33 31.7971 138.137 30.7423 138.137 29.6298V29.0315C138.137 27.7825 138.309 26.628 138.654 25.568C138.999 24.4974 139.512 23.5633 140.191 22.7656C140.871 21.9679 141.723 21.3487 142.747 20.9079C143.772 20.4566 144.964 20.2309 146.323 20.2309C147.525 20.2309 148.602 20.4251 149.553 20.8134C150.504 21.2018 151.309 21.758 151.968 22.4822C152.637 23.2064 153.144 24.0828 153.489 25.1114C153.844 26.14 154.022 27.2945 154.022 28.575V30.7318H140.16V27.4099H148.863V27.0006C148.873 26.4338 148.774 25.951 148.565 25.5522C148.366 25.1534 148.074 24.849 147.687 24.6391C147.3 24.4292 146.83 24.3242 146.276 24.3242C145.701 24.3242 145.225 24.4502 144.849 24.7021C144.483 24.954 144.195 25.3003 143.986 25.7411C143.787 26.1715 143.646 26.67 143.563 27.2368C143.479 27.8035 143.437 28.4018 143.437 29.0315V29.6298C143.437 30.2595 143.521 30.8315 143.688 31.3458C143.866 31.8601 144.117 32.3009 144.441 32.6683C144.775 33.0251 145.173 33.3033 145.633 33.5027C146.103 33.7021 146.636 33.8018 147.232 33.8018C147.953 33.8018 148.664 33.6653 149.365 33.3925C150.065 33.1196 150.666 32.6683 151.168 32.0385L153.567 34.9038C153.222 35.3971 152.731 35.8747 152.093 36.3365C151.466 36.7983 150.713 37.1761 149.835 37.47C148.957 37.7534 147.974 37.8951 146.887 37.8951Z" fill="white"/>
<path d="M163.682 35.5021C164.372 35.5021 165.009 35.3604 165.595 35.077C166.18 34.7936 166.661 34.4053 167.038 33.912C167.414 33.4082 167.628 32.8362 167.681 32.196H170.44C170.388 33.2035 170.048 34.1429 169.421 35.014C168.804 35.8747 167.994 36.5726 166.991 37.1079C165.987 37.6327 164.884 37.8951 163.682 37.8951C162.406 37.8951 161.293 37.6694 160.342 37.2181C159.401 36.7668 158.617 36.1476 157.989 35.3604C157.373 34.5732 156.907 33.6706 156.594 32.6525C156.291 31.6239 156.139 30.5376 156.139 29.3936V28.7324C156.139 27.5884 156.291 26.5073 156.594 25.4892C156.907 24.4607 157.373 23.5528 157.989 22.7656C158.617 21.9784 159.401 21.3592 160.342 20.9079C161.293 20.4566 162.406 20.2309 163.682 20.2309C165.009 20.2309 166.17 20.5038 167.163 21.0496C168.156 21.5849 168.935 22.3195 169.5 23.2537C170.075 24.1773 170.388 25.2268 170.44 26.4024H167.681C167.628 25.6991 167.43 25.0642 167.085 24.4974C166.75 23.9306 166.29 23.4793 165.705 23.1435C165.13 22.7971 164.455 22.6239 163.682 22.6239C162.793 22.6239 162.046 22.8023 161.439 23.1592C160.843 23.5056 160.368 23.9779 160.012 24.5761C159.667 25.1639 159.416 25.8198 159.26 26.544C159.113 27.2578 159.04 27.9872 159.04 28.7324V29.3936C159.04 30.1388 159.113 30.8735 159.26 31.5977C159.406 32.3219 159.652 32.9779 159.997 33.5656C160.352 34.1534 160.828 34.6257 161.424 34.9826C162.03 35.3289 162.783 35.5021 163.682 35.5021Z" fill="white"/>
<path d="M183.707 34.6677V25.8986C183.707 25.2268 183.571 24.6443 183.299 24.151C183.038 23.6472 182.64 23.2589 182.107 22.986C181.574 22.7131 180.916 22.5767 180.131 22.5767C179.4 22.5767 178.757 22.7026 178.203 22.9545C177.659 23.2064 177.23 23.537 176.917 23.9464C176.614 24.3557 176.462 24.7965 176.462 25.2688H173.561C173.561 24.6601 173.718 24.0566 174.031 23.4583C174.345 22.8601 174.795 22.3195 175.38 21.8367C175.976 21.3435 176.687 20.9551 177.513 20.6717C178.349 20.3779 179.279 20.2309 180.304 20.2309C181.538 20.2309 182.625 20.4408 183.566 20.8607C184.517 21.2805 185.259 21.9155 185.792 22.7656C186.336 23.6053 186.608 24.6601 186.608 25.9301V33.8648C186.608 34.4315 186.655 35.035 186.749 35.6753C186.853 36.3155 187.005 36.8665 187.204 37.3283V37.5802H184.177C184.031 37.2444 183.916 36.7983 183.832 36.242C183.749 35.6753 183.707 35.1505 183.707 34.6677ZM184.209 27.2525L184.24 29.2992H181.308C180.482 29.2992 179.745 29.3674 179.096 29.5038C178.448 29.6298 177.905 29.8239 177.466 30.0863C177.027 30.3487 176.692 30.6793 176.462 31.0782C176.232 31.4665 176.117 31.9231 176.117 32.4479C176.117 32.9831 176.237 33.4712 176.478 33.912C176.718 34.3528 177.079 34.7044 177.56 34.9668C178.051 35.2187 178.652 35.3447 179.363 35.3447C180.252 35.3447 181.036 35.1557 181.715 34.7779C182.395 34.4 182.933 33.9382 183.33 33.3925C183.738 32.8467 183.958 32.3167 183.989 31.8024L185.228 33.2035C185.155 33.6444 184.956 34.1324 184.632 34.6677C184.308 35.203 183.874 35.7173 183.33 36.2105C182.797 36.6933 182.16 37.0974 181.417 37.4228C180.686 37.7377 179.86 37.8951 178.94 37.8951C177.79 37.8951 176.781 37.6694 175.913 37.2181C175.056 36.7668 174.387 36.1633 173.906 35.4076C173.436 34.6414 173.2 33.7861 173.2 32.8414C173.2 31.9283 173.378 31.1254 173.733 30.4327C174.089 29.7295 174.601 29.147 175.27 28.6852C175.939 28.2129 176.744 27.856 177.685 27.6146C178.626 27.3732 179.677 27.2525 180.837 27.2525H184.209Z" fill="white"/>
<path d="M201.05 33.0618C201.05 32.642 200.956 32.2537 200.768 31.8968C200.59 31.5295 200.219 31.1989 199.655 30.905C199.101 30.6006 198.264 30.3382 197.146 30.1178C196.205 29.9184 195.353 29.6822 194.59 29.4094C193.837 29.1365 193.194 28.8059 192.661 28.4175C192.138 28.0292 191.736 27.5726 191.453 27.0478C191.171 26.5231 191.03 25.9091 191.03 25.2059C191.03 24.5341 191.176 23.8991 191.469 23.3009C191.772 22.7026 192.196 22.1726 192.739 21.7108C193.293 21.249 193.957 20.8869 194.731 20.6245C195.504 20.3621 196.367 20.2309 197.318 20.2309C198.677 20.2309 199.838 20.4723 200.799 20.9551C201.761 21.4379 202.498 22.0834 203.01 22.8916C203.523 23.6892 203.779 24.5761 203.779 25.5522H200.878C200.878 25.0799 200.737 24.6233 200.454 24.1825C200.183 23.7312 199.78 23.3586 199.247 23.0647C198.724 22.7709 198.081 22.6239 197.318 22.6239C196.513 22.6239 195.86 22.7499 195.358 23.0018C194.867 23.2432 194.506 23.5528 194.276 23.9306C194.056 24.3085 193.947 24.7073 193.947 25.1271C193.947 25.442 193.999 25.7254 194.103 25.9773C194.218 26.2187 194.417 26.4443 194.699 26.6543C194.982 26.8537 195.379 27.0426 195.891 27.221C196.403 27.3994 197.057 27.5779 197.851 27.7563C199.242 28.0712 200.386 28.449 201.285 28.8898C202.185 29.3306 202.854 29.8712 203.293 30.5114C203.732 31.1516 203.951 31.9283 203.951 32.8414C203.951 33.5866 203.794 34.2689 203.481 34.8881C203.178 35.5073 202.733 36.0426 202.148 36.4939C201.573 36.9347 200.883 37.2811 200.078 37.533C199.284 37.7744 198.39 37.8951 197.397 37.8951C195.902 37.8951 194.637 37.6275 193.602 37.0922C192.567 36.5569 191.783 35.8642 191.249 35.014C190.716 34.1639 190.45 33.2665 190.45 32.3219H193.366C193.408 33.1196 193.638 33.7546 194.056 34.2269C194.475 34.6887 194.987 35.0193 195.593 35.2187C196.2 35.4076 196.801 35.5021 197.397 35.5021C198.191 35.5021 198.855 35.3971 199.388 35.1872C199.932 34.9773 200.345 34.6887 200.627 34.3213C200.909 33.954 201.05 33.5342 201.05 33.0618Z" fill="white"/>
<path d="M210.914 20.5458V37.5802H207.997V20.5458H210.914ZM207.778 16.0274C207.778 15.5551 207.919 15.1563 208.201 14.8309C208.494 14.5055 208.922 14.3428 209.487 14.3428C210.041 14.3428 210.464 14.5055 210.757 14.8309C211.06 15.1563 211.212 15.5551 211.212 16.0274C211.212 16.4787 211.06 16.8671 210.757 17.1924C210.464 17.5073 210.041 17.6647 209.487 17.6647C208.922 17.6647 208.494 17.5073 208.201 17.1924C207.919 16.8671 207.778 16.4787 207.778 16.0274Z" fill="white"/>
<path d="M218.472 24.1825V37.5802H215.571V20.5458H218.315L218.472 24.1825ZM217.782 28.4175L216.575 28.3703C216.585 27.2053 216.758 26.1295 217.092 25.1429C217.427 24.1458 217.897 23.2799 218.504 22.5452C219.11 21.8105 219.831 21.2437 220.668 20.8449C221.514 20.4356 222.45 20.2309 223.475 20.2309C224.311 20.2309 225.064 20.3464 225.733 20.5773C226.402 20.7977 226.971 21.1545 227.442 21.6478C227.923 22.1411 228.289 22.7814 228.54 23.5685C228.79 24.3452 228.916 25.2951 228.916 26.4181V37.5802H225.999V26.3866C225.999 25.4945 225.869 24.7808 225.607 24.2455C225.346 23.6997 224.964 23.3061 224.462 23.0647C223.961 22.8128 223.344 22.6869 222.612 22.6869C221.891 22.6869 221.232 22.8391 220.636 23.1435C220.051 23.4478 219.544 23.8677 219.115 24.4029C218.697 24.9382 218.368 25.5522 218.127 26.2449C217.897 26.9271 217.782 27.6513 217.782 28.4175Z" fill="white"/>
<path d="M232.554 29.2519V28.8898C232.554 27.6618 232.732 26.5231 233.087 25.4735C233.443 24.4134 233.955 23.4951 234.624 22.7184C235.293 21.9312 236.103 21.3225 237.054 20.8921C238.006 20.4513 239.072 20.2309 240.253 20.2309C241.445 20.2309 242.517 20.4513 243.468 20.8921C244.43 21.3225 245.245 21.9312 245.914 22.7184C246.594 23.4951 247.111 24.4134 247.467 25.4735C247.822 26.5231 248 27.6618 248 28.8898V29.2519C248 30.4799 247.822 31.6187 247.467 32.6683C247.111 33.7178 246.594 34.6362 245.914 35.4234C245.245 36.2001 244.435 36.8088 243.484 37.2496C242.543 37.6799 241.477 37.8951 240.285 37.8951C239.093 37.8951 238.021 37.6799 237.07 37.2496C236.119 36.8088 235.303 36.2001 234.624 35.4234C233.955 34.6362 233.443 33.7178 233.087 32.6683C232.732 31.6187 232.554 30.4799 232.554 29.2519ZM235.455 28.8898V29.2519C235.455 30.1021 235.554 30.905 235.753 31.6607C235.952 32.4059 236.25 33.0671 236.647 33.6444C237.054 34.2216 237.562 34.6782 238.168 35.014C238.774 35.3394 239.48 35.5021 240.285 35.5021C241.079 35.5021 241.775 35.3394 242.37 35.014C242.977 34.6782 243.479 34.2216 243.876 33.6444C244.273 33.0671 244.571 32.4059 244.77 31.6607C244.979 30.905 245.083 30.1021 245.083 29.2519V28.8898C245.083 28.0502 244.979 27.2578 244.77 26.5126C244.571 25.7569 244.268 25.0904 243.86 24.5131C243.463 23.9254 242.961 23.4636 242.355 23.1277C241.759 22.7919 241.058 22.6239 240.253 22.6239C239.459 22.6239 238.759 22.7919 238.152 23.1277C237.556 23.4636 237.054 23.9254 236.647 24.5131C236.25 25.0904 235.952 25.7569 235.753 26.5126C235.554 27.2578 235.455 28.0502 235.455 28.8898Z" fill="white"/>
<defs>
<radialGradient id="paint0_radial_9221_12646" cx="0" cy="0" r="1" gradientUnits="userSpaceOnUse" gradientTransform="translate(31.7799 28.2682) rotate(-1.28391) scale(49.4618 50.0033)">
<stop stop-color="#8461D3"/>
<stop offset="0.99" stop-color="#7138B6"/>
</radialGradient>
<radialGradient id="paint1_radial_9221_12646" cx="0" cy="0" r="1" gradientUnits="userSpaceOnUse" gradientTransform="translate(35.6948 46.8658) rotate(-1.28391) scale(30.6076 30.9427)">
<stop stop-color="#6D47D3"/>
<stop offset="0.99" stop-color="#542492"/>
</radialGradient>
<linearGradient id="paint2_linear_9221_12646" x1="20.5505" y1="81.9154" x2="19.1323" y2="18.6389" gradientUnits="userSpaceOnUse">
<stop stop-color="#3C1460"/>
<stop offset="0.99" stop-color="#3C1460"/>
</linearGradient>
<linearGradient id="paint3_linear_9221_12646" x1="50313.6" y1="12940.4" x2="50155.8" y2="5139.65" gradientUnits="userSpaceOnUse">
<stop stop-color="#603082"/>
<stop offset="0.99" stop-color="#3C145F"/>
</linearGradient>
<linearGradient id="paint4_linear_9221_12646" x1="21.0725" y1="81.1844" x2="19.7066" y2="20.2437" gradientUnits="userSpaceOnUse">
<stop offset="0.04" stop-color="#A4C6FF"/>
<stop offset="0.24" stop-color="#BD9BD2"/>
<stop offset="1" stop-color="#EBD7E3"/>
</linearGradient>
<linearGradient id="paint5_linear_9221_12646" x1="48.7672" y1="80.5637" x2="47.4014" y2="19.623" gradientUnits="userSpaceOnUse">
<stop stop-color="#83A8FF"/>
<stop offset="0.21" stop-color="#8E7BBB"/>
<stop offset="1" stop-color="#EBD7E3"/>
</linearGradient>
<linearGradient id="paint6_linear_9221_12646" x1="24.6301" y1="51.3253" x2="44.861" y2="50.8817" gradientUnits="userSpaceOnUse">
<stop stop-color="#2C2A88"/>
<stop offset="0.99" stop-color="#0C3C5A"/>
</linearGradient>
</defs>
</svg>
