<svg width="48" height="48" viewBox="0 0 48 48" fill="none" xmlns="http://www.w3.org/2000/svg">
<g opacity="0.2" clip-path="url(#clip0_4248_2279)">
<path d="M42.3214 1.40608C42.3212 0.629444 41.6918 0 40.9151 0H34.3051L26.1836 2.65849L18.0622 0H10.734V40.6996C10.734 40.6996 39.1901 40.6871 42.3285 40.6871L42.3273 34.1567L35.1096 21.0465L42.3226 7.9363L42.3214 1.40608Z" fill="#FFD845"/>
<path d="M26.0157 40.6931C33.3186 40.6902 40.8054 40.6872 42.3286 40.6872L42.3274 34.1568L35.1096 21.0466L42.3227 7.93639L42.3215 1.40598C42.3212 0.629444 41.6918 0 40.9152 0H34.3051L26.1836 2.65849L26.0156 2.60346L26.0157 40.6931Z" fill="#FFB454"/>
<path fill-rule="evenodd" clip-rule="evenodd" d="M34.3051 0H18.0623C18.0623 4.37123 14.4596 7.93639 10.0424 7.93639V34.1568C13.669 34.1568 16.7467 36.5601 17.7321 39.8397H34.6354C35.6208 36.5602 38.6984 34.1568 42.3251 34.1568V7.93639C37.9079 7.93639 34.3051 4.37123 34.3051 0Z" fill="#D98FF8"/>
<path fill-rule="evenodd" clip-rule="evenodd" d="M34.3051 0H26.0156V39.8397H34.6353C35.6207 36.5602 38.6982 34.1568 42.325 34.1568V7.93639C37.9078 7.93639 34.3051 4.37123 34.3051 0Z" fill="#CA75F5"/>
<path d="M11.1093 0H8.43133C6.03083 0 4.078 1.95293 4.078 4.35332V8.29649L6.06177 12.1218L4.078 15.3278V26.7654L6.06177 30.5439L4.078 33.7967V43.4504C4.64116 42.8872 11.1094 39.2934 11.1094 39.2934L11.1093 0Z" fill="#74564F"/>
<path d="M42.5159 16.1248H39.2348C38.7994 16.1248 38.3888 16.3263 38.1224 16.6707L35.4035 20.1863C35.0116 20.693 35.0116 21.4003 35.4035 21.907L38.1224 25.4227C38.3888 25.767 38.7995 25.9686 39.2348 25.9686H42.5158C43.2924 25.9686 43.9221 25.339 43.9221 24.5623V17.531C43.9221 16.7544 43.2925 16.1248 42.5159 16.1248Z" fill="#FFB454"/>
<path d="M23.2925 20.5208C22.9988 20.5208 22.7077 20.4288 22.4632 20.2503C22.07 19.9632 21.8533 19.4932 21.8902 19.0077L22.0686 16.6639L20.5335 14.8402C20.22 14.4677 20.1214 13.9596 20.2729 13.4969C20.4244 13.0343 20.8045 12.6829 21.2775 12.568L23.5619 12.0133L24.8218 9.98982C25.0786 9.5775 25.53 9.3269 26.0155 9.3269H26.0187C26.5056 9.32803 26.9572 9.58088 27.2126 9.99535L28.446 11.9966L30.7598 12.5696C31.2324 12.6867 31.6108 13.0397 31.7602 13.5031C31.9096 13.9665 31.8088 14.4741 31.4934 14.8452L29.9713 16.6366L30.1414 19.0141C30.1761 19.4997 29.9572 19.9688 29.5627 20.254C29.1683 20.5393 28.6543 20.6003 28.2039 20.4151L26.0298 19.5211L23.8211 20.4175C23.6507 20.4867 23.4711 20.5208 23.2925 20.5208Z" fill="#FF405C"/>
<path d="M31.547 26.156H20.4844C19.7078 26.156 19.0781 25.5264 19.0781 24.7498C19.0781 23.9731 19.7078 23.3435 20.4844 23.3435H31.547C32.3236 23.3435 32.9533 23.9731 32.9533 24.7498C32.9533 25.5264 32.3236 26.156 31.547 26.156Z" fill="#383D40"/>
<path d="M28.3594 31.6404H23.6719C22.8953 31.6404 22.2657 31.0108 22.2657 30.2341C22.2657 29.4575 22.8953 28.8279 23.6719 28.8279H28.3594C29.1361 28.8279 29.7657 29.4575 29.7657 30.2341C29.7657 31.0108 29.1361 31.6404 28.3594 31.6404Z" fill="#383D40"/>
<path fill-rule="evenodd" clip-rule="evenodd" d="M8.47819 40.6997H42.3284V46.5938H8.47819C6.85752 46.5938 5.53113 45.2676 5.53113 43.6468C5.53113 42.0259 6.85723 40.6997 8.47819 40.6997Z" fill="#F0F5FA"/>
<path fill-rule="evenodd" clip-rule="evenodd" d="M26.0157 40.6997H42.3284V46.5938H26.0157V40.6997Z" fill="#D7E3F0"/>
<path d="M10.1599 8.29639H4.078V15.3277H10.16C12.0986 15.3277 13.6757 13.7506 13.6757 11.812C13.6757 9.87346 12.0985 8.29639 10.1599 8.29639Z" fill="#FFF36C"/>
<path d="M10.1599 26.7654H4.078V33.7967H10.16C12.0986 33.7967 13.6757 32.2196 13.6757 30.281C13.6757 28.3425 12.0985 26.7654 10.1599 26.7654Z" fill="#FFF36C"/>
<path d="M40.9221 48.0001H8.43133C6.03093 48.0001 4.078 46.0472 4.078 43.6468C4.078 41.2464 6.03093 39.2935 8.43133 39.2935H40.9221C41.6987 39.2935 42.3284 39.9231 42.3284 40.6997C42.3284 41.4764 41.6987 42.106 40.9221 42.106H8.43133C7.58176 42.106 6.89053 42.7972 6.89053 43.6468C6.89053 44.4964 7.58176 45.1876 8.43133 45.1876H40.9221C41.6987 45.1876 42.3284 45.8172 42.3284 46.5938C42.3284 47.3705 41.6987 48.0001 40.9221 48.0001Z" fill="#B760EA"/>
<path d="M31.547 23.3435H26.0157V26.156H31.547C32.3236 26.156 32.9532 25.5264 32.9532 24.7498C32.9532 23.9731 32.3236 23.3435 31.547 23.3435Z" fill="#2E2E2E"/>
<path d="M28.3595 28.8279H26.0157V31.6404H28.3595C29.1361 31.6404 29.7657 31.0108 29.7657 30.2341C29.7657 29.4575 29.1361 28.8279 28.3595 28.8279Z" fill="#2E2E2E"/>
<path d="M31.7604 13.5031C31.611 13.0398 31.2326 12.6867 30.76 12.5696L28.4462 11.9966L27.2129 9.99535C26.9574 9.58088 26.5058 9.32803 26.0189 9.3269H26.0157V19.5268L26.03 19.521L28.2042 20.415C28.6546 20.6002 29.1685 20.5392 29.5629 20.2539C29.9574 19.9687 30.1763 19.4997 30.1416 19.014L29.9716 16.6365L31.4936 14.8451C31.809 14.4742 31.9099 13.9665 31.7604 13.5031Z" fill="#EA1C81"/>
<path d="M26.0157 42.106H40.9221C41.6988 42.106 42.3284 41.4764 42.3284 40.6997C42.3284 39.9231 41.6988 39.2935 40.9221 39.2935H26.0157V42.106Z" fill="#A24BDB"/>
<path d="M40.9221 45.1875H26.0157V48H40.9221C41.6988 48 42.3284 47.3704 42.3284 46.5938C42.3284 45.8171 41.6988 45.1875 40.9221 45.1875Z" fill="#A24BDB"/>
</g>
<defs>
<clipPath id="clip0_4248_2279">
<rect width="48" height="48" fill="white"/>
</clipPath>
</defs>
</svg>
