<svg width="248" height="102" viewBox="0 0 248 102" fill="none" xmlns="http://www.w3.org/2000/svg">
<path fill-rule="evenodd" clip-rule="evenodd" d="M33.4264 13.4379L35.0467 87.596C35.0467 87.596 17.0103 78.9642 6.82141 57.4901C2.79358 49.0175 0 38.5475 0 25.813C0 25.813 6.34396 20.3854 21.1499 16.1799C25.1898 15.0411 29.288 14.1257 33.4264 13.4379V13.4379Z" fill="url(#paint0_radial_9221_11427)"/>
<path fill-rule="evenodd" clip-rule="evenodd" d="M60.0635 60.3143C56.7886 66.7999 52.5182 72.7202 47.4111 77.8551C40.7776 84.5304 35.0584 87.6114 35.0584 87.6114L33.428 13.4379C57.214 16.375 67.3623 24.3084 67.3623 24.3084C68.0125 39.1123 64.7465 50.9893 60.0635 60.3143Z" fill="url(#paint1_radial_9221_11427)"/>
<path fill-rule="evenodd" clip-rule="evenodd" d="M5.01893 29.4331C5.01893 29.4331 13.3692 22.2904 33.5236 18.8757L34.9102 82.1581C34.9102 82.1581 4.99861 67.8369 5.01893 29.4331Z" fill="url(#paint2_linear_9221_11427)"/>
<g style="mix-blend-mode:soft-light" opacity="0.5">
<path fill-rule="evenodd" clip-rule="evenodd" d="M25.5689 20.5497L20.0833 61.141L6.82141 57.4901C2.79358 49.0176 0 38.5475 0 25.813C0 25.813 6.34396 20.3854 21.1499 16.1799L25.5689 20.5497Z" fill="#FBF9FA"/>
</g>
<g style="mix-blend-mode:soft-light" opacity="0.3">
<path fill-rule="evenodd" clip-rule="evenodd" d="M60.0626 60.3142C56.7877 66.7998 52.5173 72.7201 47.4102 77.855L43.9868 75.2875L56.7204 57.9624L60.0626 60.3142Z" fill="#FBF9FA"/>
</g>
<path fill-rule="evenodd" clip-rule="evenodd" d="M62.5016 28.1493C62.5016 28.1493 53.8415 21.3816 33.5245 18.8757L34.9112 82.1581C34.9112 82.1581 64.2031 66.5173 62.5016 28.1493Z" fill="url(#paint3_linear_9221_11427)"/>
<path fill-rule="evenodd" clip-rule="evenodd" d="M33.5789 20.493L34.9148 81.4391C34.9148 81.4391 19.8752 74.2502 11.5503 56.3089C9.22194 51.2865 7.63554 45.9458 6.84186 40.4575C6.35101 37.2169 6.10142 33.9436 6.09521 30.6653C6.09521 30.6653 11.3471 26.1876 23.5678 22.7319C26.8636 21.8082 30.2053 21.0609 33.5789 20.493Z" fill="url(#paint4_linear_9221_11427)"/>
<path fill-rule="evenodd" clip-rule="evenodd" d="M61.5243 31.3174C62.1338 66.8816 34.9142 81.4391 34.9142 81.4391L33.5784 20.493C53.1334 22.9064 61.4684 29.4278 61.4684 29.4278C61.4989 30.0593 61.5141 30.6961 61.5243 31.3174Z" fill="url(#paint5_linear_9221_11427)"/>
<g style="mix-blend-mode:soft-light" opacity="0.5">
<path fill-rule="evenodd" clip-rule="evenodd" d="M34.2088 44.3808L34.5745 65.8446L11.53 56.3091C8.31992 49.413 6.09521 40.9301 6.09521 30.6655C6.09521 30.6655 11.3319 26.1878 23.5525 22.7321L34.097 44.1548L34.2088 44.3808Z" fill="#FBF9FA"/>
</g>
<g style="mix-blend-mode:soft-light">
<path fill-rule="evenodd" clip-rule="evenodd" d="M1.01465 25.0324C1.01465 25.0324 4.0114 25.1915 5.93642 24.1594C6.49838 23.8529 6.97743 23.4118 7.33163 22.8746C7.68583 22.3375 7.90437 21.7208 7.96812 21.0785C7.96812 21.0785 2.48763 23.6562 1.01465 25.0324Z" fill="#FBF9FA"/>
</g>
<g style="mix-blend-mode:multiply" opacity="0.5">
<path fill-rule="evenodd" clip-rule="evenodd" d="M61.5046 30.3366C50.4979 23.1632 33.711 21.6535 33.711 21.6535C24.4537 23.3732 15.5714 26.739 7.47677 31.5947C6.67425 34.0029 6.81647 40.1648 6.82155 40.4524C6.33774 37.2129 6.09495 33.9414 6.09522 30.6653C6.09522 30.6653 11.3471 26.1876 23.5678 22.7318C26.8637 21.8099 30.2054 21.0643 33.5789 20.4982C53.134 22.9116 61.469 29.4329 61.469 29.4329C61.4995 30.0593 61.4893 29.7153 61.5046 30.3366Z" fill="#773891"/>
</g>
<path fill-rule="evenodd" clip-rule="evenodd" d="M33.4264 13.4379L35.0467 87.596C35.0467 87.596 17.0103 78.9642 6.82141 57.4901C2.79358 49.0175 0 38.5475 0 25.813C0 25.813 6.34396 20.3854 21.1499 16.1799C25.1898 15.0411 29.288 14.1257 33.4264 13.4379V13.4379Z" fill="#61FFD9" style="mix-blend-mode:hue"/>
<path fill-rule="evenodd" clip-rule="evenodd" d="M60.0635 60.3143C56.7886 66.7999 52.5182 72.7202 47.4111 77.8551C40.7776 84.5304 35.0584 87.6114 35.0584 87.6114L33.428 13.4379C57.214 16.375 67.3623 24.3084 67.3623 24.3084C68.0125 39.1123 64.7465 50.9893 60.0635 60.3143Z" fill="#61FFD9" style="mix-blend-mode:hue"/>
<path fill-rule="evenodd" clip-rule="evenodd" d="M33.4264 13.4379L35.0467 87.596C35.0467 87.596 17.0103 78.9642 6.82141 57.4901C2.79358 49.0175 0 38.5475 0 25.813C0 25.813 6.34396 20.3854 21.1499 16.1799C25.1898 15.0411 29.288 14.1257 33.4264 13.4379V13.4379Z" fill="#04FFFF" style="mix-blend-mode:soft-light"/>
<path fill-rule="evenodd" clip-rule="evenodd" d="M60.0635 60.3143C56.7886 66.7999 52.5182 72.7202 47.4111 77.8551C40.7776 84.5304 35.0584 87.6114 35.0584 87.6114L33.428 13.4379C57.214 16.375 67.3623 24.3084 67.3623 24.3084C68.0125 39.1123 64.7465 50.9893 60.0635 60.3143Z" fill="#04FFFF" style="mix-blend-mode:soft-light"/>
<path fill-rule="evenodd" clip-rule="evenodd" d="M33.5752 20.4933L34.911 81.4393C34.911 81.4393 19.8714 74.2505 11.5465 56.3092C9.21816 51.2868 7.63176 45.946 6.83808 40.4577C6.34722 37.2171 6.09764 33.9439 6.09143 30.6655C6.09143 30.6655 11.3434 26.1879 23.564 22.7321C26.8598 21.8085 30.2015 21.0612 33.5752 20.4933Z" fill="white" style="mix-blend-mode:color"/>
<path fill-rule="evenodd" clip-rule="evenodd" d="M61.5204 31.3176C62.1299 66.8819 34.9103 81.4393 34.9103 81.4393L33.5745 20.4933C53.1295 22.9067 61.4645 29.428 61.4645 29.428C61.495 30.0596 61.5102 30.6963 61.5204 31.3176Z" fill="white" style="mix-blend-mode:color"/>
<g opacity="0.7">
<path fill-rule="evenodd" clip-rule="evenodd" d="M33.5752 20.4933L34.911 81.4393C34.911 81.4393 19.8714 74.2505 11.5465 56.3092C9.21816 51.2868 7.63176 45.946 6.83808 40.4577C6.34722 37.2171 6.09764 33.9439 6.09143 30.6655C6.09143 30.6655 11.3434 26.1879 23.564 22.7321C26.8598 21.8085 30.2015 21.0612 33.5752 20.4933Z" fill="white" style="mix-blend-mode:soft-light"/>
<path fill-rule="evenodd" clip-rule="evenodd" d="M61.5204 31.3176C62.1299 66.8819 34.9103 81.4393 34.9103 81.4393L33.5745 20.4933C53.1295 22.9067 61.4645 29.428 61.4645 29.428C61.495 30.0596 61.5102 30.6963 61.5204 31.3176Z" fill="white" style="mix-blend-mode:soft-light"/>
</g>
<path fill-rule="evenodd" clip-rule="evenodd" d="M25.4884 47.2202L27.0173 44.3498L34.1942 48.6169L43.4841 38.2085L45.3685 39.713L34.3517 55.7955L25.4884 47.2202Z" fill="url(#paint6_linear_9221_11427)"/>
<path d="M93.5304 59.7805L96.5035 49.6638H97.435L96.6823 52.6676L93.5116 63.4173H92.6177L93.5304 59.7805ZM90.0774 49.6638L92.5801 59.6861L93.3328 63.4173H92.4013L88.8918 49.6638H90.0774ZM101.443 59.6861L103.908 49.6638H105.094L101.594 63.4173H100.662L101.443 59.6861ZM97.5385 49.6638L100.474 59.7805L101.377 63.4173H100.483L97.3786 52.6676L96.6164 49.6638H97.5385Z" fill="white"/>
<path d="M108.189 48.9081V63.4173H107.07V48.9081H108.189ZM107.935 57.6741L107.437 57.3907C107.474 56.7861 107.596 56.2194 107.803 55.6904C108.01 55.1614 108.29 54.6954 108.641 54.2924C108.998 53.8893 109.416 53.5745 109.892 53.3477C110.375 53.121 110.908 53.0077 111.492 53.0077C112 53.0077 112.455 53.077 112.856 53.2155C113.257 53.354 113.599 53.5745 113.882 53.8767C114.164 54.179 114.377 54.5663 114.521 55.0386C114.672 55.5109 114.747 56.0871 114.747 56.7672V63.4173H113.618V56.7578C113.618 56.0525 113.521 55.5015 113.326 55.1047C113.132 54.7017 112.856 54.4152 112.498 54.2451C112.141 54.0751 111.718 53.9901 111.228 53.9901C110.689 53.9901 110.215 54.1097 109.808 54.349C109.406 54.582 109.067 54.8875 108.791 55.2653C108.522 55.6368 108.315 56.0367 108.17 56.465C108.026 56.8869 107.948 57.2899 107.935 57.6741Z" fill="white"/>
<path d="M121.578 63.6062C120.913 63.6062 120.301 63.4834 119.743 63.2378C119.191 62.9922 118.708 62.6458 118.294 62.1987C117.887 61.7516 117.57 61.2226 117.344 60.6118C117.124 59.9946 117.015 59.3208 117.015 58.5903V58.1841C117.015 57.397 117.131 56.6854 117.363 56.0493C117.595 55.4133 117.915 54.8686 118.322 54.4152C118.73 53.9617 119.194 53.6154 119.715 53.3761C120.242 53.1305 120.794 53.0077 121.371 53.0077C122.017 53.0077 122.591 53.1242 123.093 53.3572C123.595 53.5839 124.015 53.9082 124.353 54.3301C124.698 54.7458 124.959 55.2401 125.134 55.8132C125.31 56.3799 125.398 57.0065 125.398 57.6929V58.3825H117.692V57.419H124.278V57.2868C124.266 56.7137 124.15 56.1784 123.93 55.6809C123.717 55.1771 123.397 54.7678 122.97 54.4529C122.544 54.1381 122.011 53.9806 121.371 53.9806C120.894 53.9806 120.455 54.0814 120.054 54.2829C119.659 54.4844 119.317 54.7741 119.028 55.1519C118.746 55.5235 118.526 55.9675 118.37 56.4838C118.219 56.9939 118.144 57.5607 118.144 58.1841V58.5903C118.144 59.1571 118.225 59.6861 118.388 60.1773C118.558 60.6622 118.796 61.0904 119.103 61.4619C119.417 61.8335 119.787 62.1232 120.214 62.331C120.64 62.5388 121.111 62.6427 121.625 62.6427C122.227 62.6427 122.76 62.5325 123.224 62.3121C123.689 62.0854 124.106 61.7296 124.476 61.2447L125.181 61.7925C124.962 62.12 124.686 62.4223 124.353 62.6994C124.027 62.9765 123.635 63.1969 123.177 63.3606C122.72 63.5243 122.186 63.6062 121.578 63.6062Z" fill="white"/>
<path d="M128.738 54.8875V63.4173H127.618V53.1966H128.71L128.738 54.8875ZM132.342 53.121L132.313 54.1601C132.188 54.1412 132.066 54.1255 131.946 54.1129C131.827 54.1003 131.699 54.094 131.561 54.094C131.071 54.094 130.642 54.1853 130.272 54.3679C129.908 54.5442 129.6 54.793 129.35 55.1142C129.099 55.429 128.907 55.8006 128.776 56.2288C128.644 56.6507 128.569 57.1041 128.55 57.589L128.136 57.7496C128.136 57.0821 128.205 56.4618 128.343 55.8887C128.481 55.3157 128.691 54.815 128.973 54.3868C129.262 53.9523 129.622 53.6154 130.055 53.3761C130.494 53.1305 131.009 53.0077 131.598 53.0077C131.743 53.0077 131.884 53.0203 132.022 53.0455C132.166 53.0644 132.273 53.0896 132.342 53.121Z" fill="white"/>
<path d="M137.855 63.6062C137.19 63.6062 136.579 63.4834 136.02 63.2378C135.468 62.9922 134.985 62.6458 134.571 62.1987C134.164 61.7516 133.847 61.2226 133.621 60.6118C133.402 59.9946 133.292 59.3208 133.292 58.5903V58.1841C133.292 57.397 133.408 56.6854 133.64 56.0493C133.872 55.4133 134.192 54.8686 134.6 54.4152C135.007 53.9617 135.472 53.6154 135.992 53.3761C136.519 53.1305 137.071 53.0077 137.648 53.0077C138.294 53.0077 138.868 53.1242 139.37 53.3572C139.872 53.5839 140.292 53.9082 140.631 54.3301C140.976 54.7458 141.236 55.2401 141.412 55.8132C141.587 56.3799 141.675 57.0065 141.675 57.6929V58.3825H133.969V57.419H140.555V57.2868C140.543 56.7137 140.427 56.1784 140.207 55.6809C139.994 55.1771 139.674 54.7678 139.248 54.4529C138.821 54.1381 138.288 53.9806 137.648 53.9806C137.171 53.9806 136.732 54.0814 136.331 54.2829C135.936 54.4844 135.594 54.7741 135.305 55.1519C135.023 55.5235 134.803 55.9675 134.647 56.4838C134.496 56.9939 134.421 57.5607 134.421 58.1841V58.5903C134.421 59.1571 134.502 59.6861 134.666 60.1773C134.835 60.6622 135.073 61.0904 135.381 61.4619C135.694 61.8335 136.064 62.1232 136.491 62.331C136.917 62.5388 137.388 62.6427 137.902 62.6427C138.504 62.6427 139.037 62.5325 139.502 62.3121C139.966 62.0854 140.383 61.7296 140.753 61.2447L141.459 61.7925C141.239 62.12 140.963 62.4223 140.631 62.6994C140.304 62.9765 139.912 63.1969 139.455 63.3606C138.997 63.5243 138.464 63.6062 137.855 63.6062Z" fill="white"/>
<path d="M157.378 62.4254V63.4173H149.672V62.4254H157.378ZM150.021 49.6638V63.4173H148.863V49.6638H150.021ZM156.419 55.8321V56.8239H149.672V55.8321H156.419ZM157.331 49.6638V50.6651H149.672V49.6638H157.331Z" fill="white"/>
<path d="M160.69 55.3787V63.4173H159.571V53.1966H160.643L160.69 55.3787ZM160.436 57.6741L159.937 57.3907C159.975 56.7861 160.097 56.2194 160.304 55.6904C160.511 55.1614 160.791 54.6954 161.142 54.2924C161.499 53.8893 161.916 53.5745 162.393 53.3477C162.876 53.121 163.409 53.0077 163.993 53.0077C164.501 53.0077 164.955 53.077 165.357 53.2155C165.758 53.354 166.1 53.5745 166.382 53.8767C166.665 54.179 166.878 54.5663 167.022 55.0386C167.173 55.5109 167.248 56.0871 167.248 56.7672V63.4173H166.119V56.7578C166.119 56.0525 166.022 55.5015 165.827 55.1047C165.633 54.7017 165.357 54.4152 164.999 54.2451C164.642 54.0751 164.218 53.9901 163.729 53.9901C163.19 53.9901 162.716 54.1097 162.308 54.349C161.907 54.582 161.568 54.8875 161.292 55.2653C161.023 55.6368 160.816 56.0367 160.671 56.465C160.527 56.8869 160.449 57.2899 160.436 57.6741Z" fill="white"/>
<path d="M170.249 53.1966H171.379V64.6358C171.379 65.2593 171.275 65.7882 171.068 66.2228C170.861 66.6573 170.56 66.9847 170.165 67.2052C169.77 67.4319 169.283 67.5452 168.706 67.5452C168.55 67.5452 168.38 67.5295 168.198 67.498C168.016 67.4665 167.85 67.4224 167.7 67.3657L167.718 66.4211C167.831 66.4526 167.966 66.481 168.123 66.5061C168.274 66.5376 168.421 66.5534 168.565 66.5534C168.929 66.5534 169.236 66.481 169.487 66.3361C169.738 66.1976 169.926 65.9866 170.052 65.7032C170.184 65.4198 170.249 65.064 170.249 64.6358V53.1966ZM170.052 50.24C170.052 50.0259 170.121 49.8464 170.259 49.7016C170.397 49.5504 170.585 49.4748 170.823 49.4748C171.062 49.4748 171.25 49.5504 171.388 49.7016C171.532 49.8464 171.604 50.0259 171.604 50.24C171.604 50.4478 171.532 50.6273 171.388 50.7784C171.25 50.9232 171.062 50.9957 170.823 50.9957C170.585 50.9957 170.397 50.9232 170.259 50.7784C170.121 50.6273 170.052 50.4478 170.052 50.24Z" fill="white"/>
<path d="M173.947 58.4675V58.1558C173.947 57.4127 174.054 56.7263 174.267 56.0966C174.48 55.4668 174.784 54.9221 175.18 54.4624C175.581 54.0027 176.061 53.6469 176.619 53.395C177.177 53.1368 177.798 53.0077 178.482 53.0077C179.172 53.0077 179.796 53.1368 180.354 53.395C180.913 53.6469 181.393 54.0027 181.794 54.4624C182.195 54.9221 182.503 55.4668 182.716 56.0966C182.929 56.7263 183.036 57.4127 183.036 58.1558V58.4675C183.036 59.2106 182.929 59.897 182.716 60.5268C182.503 61.1502 182.195 61.6918 181.794 62.1515C181.399 62.6112 180.922 62.9702 180.364 63.2284C179.806 63.4803 179.185 63.6062 178.501 63.6062C177.811 63.6062 177.187 63.4803 176.629 63.2284C176.07 62.9702 175.59 62.6112 175.189 62.1515C174.788 61.6918 174.48 61.1502 174.267 60.5268C174.054 59.897 173.947 59.2106 173.947 58.4675ZM175.067 58.1558V58.4675C175.067 59.028 175.142 59.5601 175.293 60.0639C175.443 60.5614 175.663 61.0054 175.951 61.3958C176.24 61.78 176.597 62.0822 177.024 62.3026C177.45 62.523 177.943 62.6333 178.501 62.6333C179.053 62.6333 179.539 62.523 179.959 62.3026C180.386 62.0822 180.743 61.78 181.032 61.3958C181.32 61.0054 181.537 60.5614 181.681 60.0639C181.832 59.5601 181.907 59.028 181.907 58.4675V58.1558C181.907 57.6016 181.832 57.0758 181.681 56.5783C181.537 56.0808 181.317 55.6368 181.022 55.2464C180.734 54.856 180.376 54.5474 179.95 54.3207C179.523 54.094 179.034 53.9806 178.482 53.9806C177.93 53.9806 177.441 54.094 177.014 54.3207C176.594 54.5474 176.237 54.856 175.942 55.2464C175.653 55.6368 175.434 56.0808 175.283 56.5783C175.139 57.0758 175.067 57.6016 175.067 58.1558Z" fill="white"/>
<path d="M188.239 62.3971L191.41 53.1966H192.624L188.314 65.0609C188.226 65.2939 188.114 65.5521 187.976 65.8355C187.844 66.1189 187.668 66.3896 187.449 66.6478C187.235 66.9123 186.966 67.1264 186.64 67.2902C186.32 67.4602 185.928 67.5452 185.463 67.5452C185.344 67.5452 185.191 67.5295 185.002 67.498C184.821 67.4728 184.689 67.4476 184.607 67.4224L184.598 66.4684C184.667 66.4873 184.767 66.503 184.899 66.5156C185.031 66.5282 185.122 66.5345 185.172 66.5345C185.579 66.5345 185.921 66.4652 186.197 66.3267C186.48 66.1881 186.715 65.9803 186.903 65.7032C187.091 65.4324 187.257 65.0924 187.402 64.6831L188.239 62.3971ZM185.275 53.1966L188.521 61.972L188.822 63.1528L188.004 63.6156L184.052 53.1966H185.275Z" fill="white"/>
<path d="M195.446 55.3125V63.4173H194.317V53.1966H195.399L195.446 55.3125ZM195.239 57.6741L194.693 57.3907C194.731 56.7861 194.844 56.2194 195.032 55.6904C195.227 55.1614 195.496 54.6954 195.841 54.2924C196.186 53.8893 196.6 53.5745 197.083 53.3477C197.566 53.121 198.115 53.0077 198.73 53.0077C199.225 53.0077 199.674 53.077 200.075 53.2155C200.483 53.3477 200.828 53.5587 201.11 53.8484C201.399 54.1318 201.621 54.5033 201.778 54.963C201.935 55.4227 202.013 55.9738 202.013 56.6161V63.4173H200.894V56.6539C200.894 55.9738 200.787 55.4416 200.574 55.0575C200.367 54.6733 200.075 54.3994 199.699 54.2357C199.329 54.0719 198.899 53.9901 198.41 53.9901C197.833 53.9901 197.344 54.1097 196.942 54.349C196.547 54.582 196.224 54.8875 195.973 55.2653C195.728 55.6368 195.546 56.0367 195.427 56.465C195.308 56.8869 195.245 57.2899 195.239 57.6741ZM202.004 56.7861L201.251 56.805C201.283 56.3075 201.396 55.8321 201.59 55.3787C201.791 54.9252 202.064 54.5222 202.409 54.1696C202.754 53.8106 203.164 53.5272 203.641 53.3194C204.124 53.1116 204.667 53.0077 205.269 53.0077C205.796 53.0077 206.266 53.0801 206.68 53.2249C207.094 53.3635 207.442 53.587 207.725 53.8956C208.013 54.1979 208.233 54.5852 208.383 55.0575C208.534 55.5298 208.609 56.0966 208.609 56.7578V63.4173H207.48V56.7483C207.48 56.0241 207.373 55.4637 207.16 55.0669C206.953 54.6639 206.665 54.3837 206.294 54.2262C205.924 54.0688 205.492 53.9901 204.996 53.9901C204.507 53.9964 204.077 54.0877 203.707 54.264C203.337 54.434 203.026 54.6608 202.776 54.9441C202.531 55.2212 202.343 55.5203 202.211 55.8415C202.086 56.1627 202.017 56.4775 202.004 56.7861Z" fill="white"/>
<path d="M215.402 63.6062C214.737 63.6062 214.126 63.4834 213.567 63.2378C213.015 62.9922 212.532 62.6458 212.118 62.1987C211.711 61.7516 211.394 61.2226 211.168 60.6118C210.949 59.9946 210.839 59.3208 210.839 58.5903V58.1841C210.839 57.397 210.955 56.6854 211.187 56.0493C211.419 55.4133 211.739 54.8686 212.147 54.4152C212.554 53.9617 213.019 53.6154 213.539 53.3761C214.066 53.1305 214.618 53.0077 215.195 53.0077C215.841 53.0077 216.415 53.1242 216.917 53.3572C217.419 53.5839 217.839 53.9082 218.178 54.3301C218.523 54.7458 218.783 55.2401 218.959 55.8132C219.134 56.3799 219.222 57.0065 219.222 57.6929V58.3825H211.516V57.419H218.102V57.2868C218.09 56.7137 217.974 56.1784 217.754 55.6809C217.541 55.1771 217.221 54.7678 216.795 54.4529C216.368 54.1381 215.835 53.9806 215.195 53.9806C214.718 53.9806 214.279 54.0814 213.878 54.2829C213.483 54.4844 213.141 54.7741 212.852 55.1519C212.57 55.5235 212.351 55.9675 212.194 56.4838C212.043 56.9939 211.968 57.5607 211.968 58.1841V58.5903C211.968 59.1571 212.049 59.6861 212.213 60.1773C212.382 60.6622 212.62 61.0904 212.928 61.4619C213.241 61.8335 213.611 62.1232 214.038 62.331C214.464 62.5388 214.935 62.6427 215.449 62.6427C216.051 62.6427 216.585 62.5325 217.049 62.3121C217.513 62.0854 217.93 61.7296 218.3 61.2447L219.006 61.7925C218.786 62.12 218.51 62.4223 218.178 62.6994C217.852 62.9765 217.46 63.1969 217.002 63.3606C216.544 63.5243 216.011 63.6062 215.402 63.6062Z" fill="white"/>
<path d="M222.562 55.3787V63.4173H221.443V53.1966H222.515L222.562 55.3787ZM222.308 57.6741L221.81 57.3907C221.847 56.7861 221.969 56.2194 222.176 55.6904C222.383 55.1614 222.663 54.6954 223.014 54.2924C223.371 53.8893 223.788 53.5745 224.265 53.3477C224.748 53.121 225.281 53.0077 225.865 53.0077C226.373 53.0077 226.828 53.077 227.229 53.2155C227.63 53.354 227.972 53.5745 228.255 53.8767C228.537 54.179 228.75 54.5663 228.894 55.0386C229.045 55.5109 229.12 56.0871 229.12 56.7672V63.4173H227.991V56.7578C227.991 56.0525 227.894 55.5015 227.699 55.1047C227.505 54.7017 227.229 54.4152 226.871 54.2451C226.514 54.0751 226.09 53.9901 225.601 53.9901C225.062 53.9901 224.588 54.1097 224.181 54.349C223.779 54.582 223.44 54.8875 223.164 55.2653C222.895 55.6368 222.688 56.0367 222.543 56.465C222.399 56.8869 222.321 57.2899 222.308 57.6741Z" fill="white"/>
<path d="M235.885 53.1966V54.1223H230.785V53.1966H235.885ZM232.658 50.5706H233.777V60.933C233.777 61.4053 233.84 61.7611 233.966 62.0004C234.091 62.2397 234.254 62.4002 234.455 62.4821C234.656 62.564 234.872 62.6049 235.104 62.6049C235.273 62.6049 235.437 62.5955 235.593 62.5766C235.75 62.5514 235.891 62.5262 236.017 62.501L236.064 63.4551C235.926 63.4991 235.747 63.5338 235.527 63.559C235.308 63.5905 235.088 63.6062 234.869 63.6062C234.436 63.6062 234.053 63.5275 233.721 63.37C233.389 63.2063 233.128 62.9292 232.94 62.5388C232.752 62.1421 232.658 61.6036 232.658 60.9235V50.5706Z" fill="white"/>
<path d="M90.4161 70.6215H91.5828L96.6447 82.7314L101.716 70.6215H102.873L97.0869 84.375H96.2025L90.4161 70.6215ZM90.0585 70.6215H91.0841L91.2064 78.3673V84.375H90.0585V70.6215ZM102.224 70.6215H103.25V84.375H102.092V78.3673L102.224 70.6215Z" fill="white"/>
<path d="M110.4 84.5639C109.735 84.5639 109.124 84.4411 108.566 84.1955C108.014 83.9499 107.531 83.6036 107.117 83.1565C106.709 82.7093 106.392 82.1804 106.166 81.5695C105.947 80.9524 105.837 80.2785 105.837 79.548V79.1419C105.837 78.3547 105.953 77.6431 106.185 77.0071C106.417 76.371 106.737 75.8263 107.145 75.3729C107.553 74.9195 108.017 74.5731 108.537 74.3338C109.064 74.0882 109.616 73.9654 110.193 73.9654C110.839 73.9654 111.413 74.0819 111.915 74.3149C112.417 74.5416 112.837 74.8659 113.176 75.2879C113.521 75.7035 113.781 76.1978 113.957 76.7709C114.132 77.3377 114.22 77.9643 114.22 78.6507V79.3402H106.514V78.3767H113.101V78.2445C113.088 77.6714 112.972 77.1361 112.752 76.6387C112.539 76.1349 112.219 75.7255 111.793 75.4107C111.366 75.0958 110.833 74.9384 110.193 74.9384C109.717 74.9384 109.278 75.0391 108.876 75.2406C108.481 75.4422 108.139 75.7318 107.851 76.1097C107.568 76.4812 107.349 76.9252 107.192 77.4416C107.041 77.9517 106.966 78.5184 106.966 79.1419V79.548C106.966 80.1148 107.048 80.6438 107.211 81.135C107.38 81.6199 107.618 82.0481 107.926 82.4197C108.239 82.7912 108.609 83.0809 109.036 83.2887C109.463 83.4965 109.933 83.6004 110.447 83.6004C111.049 83.6004 111.583 83.4902 112.047 83.2698C112.511 83.0431 112.928 82.6873 113.298 82.2024L114.004 82.7503C113.784 83.0777 113.508 83.38 113.176 83.6571C112.85 83.9342 112.458 84.1546 112 84.3183C111.542 84.4821 111.009 84.5639 110.4 84.5639Z" fill="white"/>
<path d="M120.374 84.5639C119.709 84.5639 119.097 84.4411 118.539 84.1955C117.987 83.9499 117.504 83.6036 117.09 83.1565C116.682 82.7093 116.365 82.1804 116.14 81.5695C115.92 80.9524 115.81 80.2785 115.81 79.548V79.1419C115.81 78.3547 115.926 77.6431 116.158 77.0071C116.391 76.371 116.71 75.8263 117.118 75.3729C117.526 74.9195 117.99 74.5731 118.511 74.3338C119.038 74.0882 119.59 73.9654 120.167 73.9654C120.813 73.9654 121.387 74.0819 121.888 74.3149C122.39 74.5416 122.81 74.8659 123.149 75.2879C123.494 75.7035 123.754 76.1978 123.93 76.7709C124.106 77.3377 124.194 77.9643 124.194 78.6507V79.3402H116.488V78.3767H123.074V78.2445C123.061 77.6714 122.945 77.1361 122.726 76.6387C122.513 76.1349 122.193 75.7255 121.766 75.4107C121.34 75.0958 120.806 74.9384 120.167 74.9384C119.69 74.9384 119.251 75.0391 118.849 75.2406C118.454 75.4422 118.112 75.7318 117.824 76.1097C117.542 76.4812 117.322 76.9252 117.165 77.4416C117.015 77.9517 116.939 78.5184 116.939 79.1419V79.548C116.939 80.1148 117.021 80.6438 117.184 81.135C117.353 81.6199 117.592 82.0481 117.899 82.4197C118.213 82.7912 118.583 83.0809 119.009 83.2887C119.436 83.4965 119.906 83.6004 120.421 83.6004C121.023 83.6004 121.556 83.4902 122.02 83.2698C122.484 83.0431 122.901 82.6873 123.271 82.2024L123.977 82.7503C123.758 83.0777 123.482 83.38 123.149 83.6571C122.823 83.9342 122.431 84.1546 121.973 84.3183C121.515 84.4821 120.982 84.5639 120.374 84.5639Z" fill="white"/>
<path d="M130.262 74.1543V75.08H125.163V74.1543H130.262ZM127.035 71.5283H128.155V81.8907C128.155 82.363 128.217 82.7188 128.343 82.9581C128.468 83.1974 128.631 83.358 128.832 83.4398C129.033 83.5217 129.249 83.5626 129.481 83.5626C129.651 83.5626 129.814 83.5532 129.971 83.5343C130.127 83.5091 130.268 83.4839 130.394 83.4587L130.441 84.4128C130.303 84.4569 130.124 84.4915 129.905 84.5167C129.685 84.5482 129.466 84.5639 129.246 84.5639C128.813 84.5639 128.431 84.4852 128.098 84.3278C127.766 84.164 127.505 83.887 127.317 83.4965C127.129 83.0998 127.035 82.5614 127.035 81.8812V71.5283Z" fill="white"/>
<path d="M138.721 81.7679C138.721 81.4908 138.652 81.2169 138.514 80.9461C138.376 80.6753 138.109 80.4265 137.714 80.1998C137.325 79.9731 136.751 79.7811 135.992 79.6236C135.428 79.4977 134.923 79.356 134.477 79.1985C134.038 79.0411 133.668 78.8522 133.367 78.6318C133.066 78.4114 132.837 78.1469 132.68 77.8383C132.523 77.5297 132.445 77.1645 132.445 76.7426C132.445 76.3647 132.527 76.0089 132.69 75.6752C132.859 75.3351 133.097 75.0391 133.405 74.7872C133.718 74.529 134.095 74.3275 134.534 74.1827C134.979 74.0378 135.478 73.9654 136.03 73.9654C136.814 73.9654 137.485 74.1008 138.043 74.3716C138.608 74.6361 139.037 74.9982 139.332 75.4579C139.633 75.9176 139.784 76.4371 139.784 77.0165H138.664C138.664 76.6638 138.561 76.3301 138.354 76.0152C138.153 75.7003 137.855 75.4422 137.46 75.2406C137.071 75.0391 136.594 74.9384 136.03 74.9384C135.446 74.9384 134.973 75.0265 134.609 75.2028C134.245 75.3792 133.979 75.6027 133.809 75.8735C133.646 76.1443 133.565 76.4245 133.565 76.7142C133.565 76.9409 133.599 77.1487 133.668 77.3377C133.743 77.5203 133.875 77.6903 134.063 77.8478C134.258 78.0052 134.534 78.1532 134.891 78.2917C135.249 78.4303 135.713 78.5657 136.284 78.6979C137.106 78.8805 137.777 79.1041 138.297 79.3686C138.824 79.6268 139.213 79.9479 139.464 80.3321C139.715 80.7099 139.84 81.1696 139.84 81.7112C139.84 82.1331 139.753 82.5204 139.577 82.8731C139.401 83.2194 139.147 83.5186 138.815 83.7705C138.489 84.0223 138.093 84.2176 137.629 84.3561C137.171 84.4947 136.657 84.5639 136.086 84.5639C135.227 84.5639 134.499 84.4222 133.903 84.1389C133.314 83.8492 132.865 83.4713 132.558 83.0053C132.257 82.533 132.106 82.0324 132.106 81.5034H133.226C133.264 82.0324 133.43 82.4511 133.725 82.7597C134.019 83.062 134.38 83.2761 134.807 83.4021C135.239 83.528 135.666 83.591 136.086 83.591C136.663 83.591 137.146 83.506 137.535 83.3359C137.924 83.1659 138.219 82.9423 138.42 82.6653C138.62 82.3882 138.721 82.0891 138.721 81.7679Z" fill="white"/>
<path d="M155.111 80.9933C155.111 80.6155 155.048 80.2785 154.923 79.9826C154.797 79.6866 154.59 79.4221 154.302 79.1891C154.019 78.9498 153.637 78.7294 153.154 78.5279C152.677 78.3201 152.081 78.1154 151.366 77.9139C150.682 77.7187 150.065 77.5045 149.513 77.2715C148.961 77.0385 148.487 76.7709 148.092 76.4686C147.703 76.1663 147.405 75.8137 147.198 75.4107C146.991 75.0013 146.887 74.5259 146.887 73.9843C146.887 73.4553 147 72.9736 147.226 72.5391C147.452 72.1045 147.769 71.7298 148.176 71.415C148.59 71.1001 149.077 70.8576 149.635 70.6876C150.199 70.5176 150.817 70.4326 151.488 70.4326C152.448 70.4326 153.276 70.6152 153.972 70.9804C154.675 71.3457 155.217 71.84 155.6 72.4635C155.989 73.0806 156.183 73.7733 156.183 74.5416H155.026C155.026 73.9434 154.885 73.4112 154.603 72.9452C154.327 72.4729 153.925 72.1045 153.398 71.84C152.878 71.5693 152.241 71.4339 151.488 71.4339C150.736 71.4339 150.102 71.5504 149.588 71.7834C149.08 72.0101 148.694 72.3155 148.431 72.6996C148.173 73.0775 148.045 73.4994 148.045 73.9654C148.045 74.2929 148.107 74.5951 148.233 74.8722C148.358 75.143 148.562 75.3981 148.845 75.6374C149.133 75.8704 149.513 76.0908 149.983 76.2986C150.453 76.5001 151.034 76.6922 151.724 76.8748C152.451 77.0763 153.097 77.2999 153.662 77.5455C154.226 77.7911 154.703 78.0745 155.092 78.3956C155.481 78.7105 155.776 79.0789 155.976 79.5008C156.177 79.9227 156.277 80.4139 156.277 80.9744C156.277 81.5349 156.158 82.0387 155.92 82.4858C155.688 82.9266 155.359 83.3013 154.932 83.6099C154.512 83.9184 154.013 84.1546 153.436 84.3183C152.865 84.4821 152.241 84.5639 151.564 84.5639C150.955 84.5639 150.35 84.4852 149.748 84.3278C149.146 84.1703 148.594 83.9279 148.092 83.6004C147.596 83.2667 147.198 82.8384 146.897 82.3158C146.602 81.7931 146.455 81.1696 146.455 80.4454H147.603C147.603 81.0248 147.719 81.5128 147.951 81.9096C148.183 82.3063 148.49 82.6275 148.873 82.8731C149.262 83.1187 149.688 83.2981 150.152 83.4115C150.623 83.5186 151.093 83.5721 151.564 83.5721C152.285 83.5721 152.909 83.465 153.436 83.2509C153.969 83.0368 154.38 82.7377 154.669 82.3535C154.963 81.9631 155.111 81.5097 155.111 80.9933Z" fill="white"/>
<path d="M162.45 84.5639C161.785 84.5639 161.173 84.4411 160.615 84.1955C160.063 83.9499 159.58 83.6036 159.166 83.1565C158.758 82.7093 158.441 82.1804 158.216 81.5695C157.996 80.9524 157.886 80.2785 157.886 79.548V79.1419C157.886 78.3547 158.002 77.6431 158.234 77.0071C158.467 76.371 158.786 75.8263 159.194 75.3729C159.602 74.9195 160.066 74.5731 160.587 74.3338C161.114 74.0882 161.666 73.9654 162.243 73.9654C162.889 73.9654 163.463 74.0819 163.964 74.3149C164.466 74.5416 164.886 74.8659 165.225 75.2879C165.57 75.7035 165.83 76.1978 166.006 76.7709C166.182 77.3377 166.27 77.9643 166.27 78.6507V79.3402H158.564V78.3767H165.15V78.2445C165.137 77.6714 165.021 77.1361 164.802 76.6387C164.589 76.1349 164.269 75.7255 163.842 75.4107C163.416 75.0958 162.882 74.9384 162.243 74.9384C161.766 74.9384 161.327 75.0391 160.925 75.2406C160.53 75.4422 160.188 75.7318 159.9 76.1097C159.618 76.4812 159.398 76.9252 159.241 77.4416C159.091 77.9517 159.015 78.5184 159.015 79.1419V79.548C159.015 80.1148 159.097 80.6438 159.26 81.135C159.429 81.6199 159.668 82.0481 159.975 82.4197C160.289 82.7912 160.659 83.0809 161.085 83.2887C161.512 83.4965 161.982 83.6004 162.497 83.6004C163.099 83.6004 163.632 83.4902 164.096 83.2698C164.56 83.0431 164.977 82.6873 165.347 82.2024L166.053 82.7503C165.834 83.0777 165.558 83.38 165.225 83.6571C164.899 83.9342 164.507 84.1546 164.049 84.3183C163.591 84.4821 163.058 84.5639 162.45 84.5639Z" fill="white"/>
<path d="M172.244 83.591C172.721 83.591 173.166 83.5028 173.58 83.3265C174 83.1439 174.345 82.8762 174.615 82.5236C174.891 82.1646 175.048 81.7269 175.086 81.2106H176.158C176.127 81.8592 175.929 82.4386 175.565 82.9486C175.208 83.4524 174.737 83.8492 174.154 84.1389C173.577 84.4222 172.94 84.5639 172.244 84.5639C171.535 84.5639 170.908 84.4348 170.362 84.1766C169.823 83.9184 169.371 83.5595 169.007 83.0998C168.644 82.6338 168.368 82.0922 168.18 81.4751C167.998 80.8516 167.907 80.1809 167.907 79.463V79.0663C167.907 78.3484 167.998 77.6809 168.18 77.0637C168.368 76.4403 168.644 75.8987 169.007 75.439C169.371 74.973 169.823 74.6109 170.362 74.3527C170.902 74.0945 171.526 73.9654 172.235 73.9654C172.962 73.9654 173.615 74.1134 174.192 74.4094C174.775 74.7054 175.239 75.1241 175.584 75.6657C175.935 76.2073 176.127 76.8496 176.158 77.5927H175.086C175.054 77.0448 174.91 76.5725 174.653 76.1758C174.396 75.7791 174.057 75.4736 173.637 75.2595C173.216 75.0454 172.749 74.9384 172.235 74.9384C171.658 74.9384 171.165 75.0517 170.758 75.2784C170.35 75.4988 170.017 75.8042 169.76 76.1947C169.509 76.5788 169.324 77.0196 169.205 77.5171C169.086 78.0083 169.026 78.5247 169.026 79.0663V79.463C169.026 80.0109 169.083 80.5336 169.196 81.0311C169.315 81.5223 169.5 81.96 169.751 82.3441C170.008 82.7282 170.34 83.0337 170.748 83.2604C171.162 83.4808 171.661 83.591 172.244 83.591Z" fill="white"/>
<path d="M184.946 82.0135V74.1543H186.075V84.375H184.993L184.946 82.0135ZM185.153 80.1243L185.736 80.1054C185.736 80.7477 185.661 81.3397 185.51 81.8812C185.36 82.4228 185.125 82.8951 184.805 83.2981C184.485 83.7012 184.071 84.0129 183.563 84.2333C183.055 84.4537 182.443 84.5639 181.728 84.5639C181.233 84.5639 180.778 84.4947 180.364 84.3561C179.956 84.2113 179.605 83.9846 179.31 83.676C179.015 83.3674 178.786 82.9675 178.623 82.4763C178.466 81.9851 178.388 81.39 178.388 80.691V74.1543H179.508V80.7099C179.508 81.2578 179.567 81.7144 179.686 82.0796C179.812 82.4449 179.981 82.7377 180.195 82.9581C180.414 83.1785 180.665 83.3359 180.947 83.4304C181.229 83.5249 181.534 83.5721 181.86 83.5721C182.688 83.5721 183.34 83.4115 183.817 83.0903C184.3 82.7692 184.642 82.3472 184.842 81.8246C185.049 81.2956 185.153 80.7288 185.153 80.1243Z" fill="white"/>
<path d="M190.14 75.8452V84.375H189.02V74.1543H190.111L190.14 75.8452ZM193.743 74.0788L193.715 75.1178C193.589 75.0989 193.467 75.0832 193.348 75.0706C193.229 75.058 193.1 75.0517 192.962 75.0517C192.473 75.0517 192.043 75.143 191.673 75.3256C191.309 75.502 191.002 75.7507 190.751 76.0719C190.5 76.3868 190.309 76.7583 190.177 77.1865C190.046 77.6085 189.97 78.0619 189.951 78.5468L189.537 78.7073C189.537 78.0398 189.606 77.4195 189.744 76.8465C189.882 76.2734 190.093 75.7728 190.375 75.3445C190.663 74.91 191.024 74.5731 191.457 74.3338C191.896 74.0882 192.41 73.9654 193 73.9654C193.144 73.9654 193.285 73.978 193.423 74.0032C193.568 74.0221 193.674 74.0473 193.743 74.0788Z" fill="white"/>
<path d="M196.763 74.1543V84.375H195.644V74.1543H196.763ZM195.446 71.1977C195.446 70.9836 195.512 70.8041 195.644 70.6593C195.782 70.5081 195.97 70.4326 196.208 70.4326C196.447 70.4326 196.635 70.5081 196.773 70.6593C196.917 70.8041 196.989 70.9836 196.989 71.1977C196.989 71.4055 196.917 71.585 196.773 71.7361C196.635 71.881 196.447 71.9534 196.208 71.9534C195.97 71.9534 195.782 71.881 195.644 71.7361C195.512 71.585 195.446 71.4055 195.446 71.1977Z" fill="white"/>
<path d="M203.688 74.1543V75.08H198.589V74.1543H203.688ZM200.461 71.5283H201.581V81.8907C201.581 82.363 201.643 82.7188 201.769 82.9581C201.894 83.1974 202.057 83.358 202.258 83.4398C202.459 83.5217 202.675 83.5626 202.907 83.5626C203.077 83.5626 203.24 83.5532 203.397 83.5343C203.553 83.5091 203.694 83.4839 203.82 83.4587L203.867 84.4128C203.729 84.4569 203.55 84.4915 203.331 84.5167C203.111 84.5482 202.892 84.5639 202.672 84.5639C202.239 84.5639 201.857 84.4852 201.524 84.3278C201.192 84.164 200.931 83.887 200.743 83.4965C200.555 83.0998 200.461 82.5614 200.461 81.8812V71.5283Z" fill="white"/>
<path d="M209.07 83.3548L212.241 74.1543H213.455L209.145 86.0186C209.057 86.2516 208.945 86.5098 208.807 86.7932C208.675 87.0766 208.499 87.3474 208.28 87.6056C208.066 87.8701 207.797 88.0842 207.471 88.2479C207.151 88.4179 206.759 88.5029 206.294 88.5029C206.175 88.5029 206.022 88.4872 205.833 88.4557C205.652 88.4305 205.52 88.4053 205.438 88.3801L205.429 87.4261C205.498 87.445 205.598 87.4607 205.73 87.4733C205.862 87.4859 205.953 87.4922 206.003 87.4922C206.41 87.4922 206.752 87.4229 207.028 87.2844C207.311 87.1459 207.546 86.938 207.734 86.661C207.922 86.3902 208.088 86.0501 208.233 85.6408L209.07 83.3548ZM206.106 74.1543L209.352 82.9298L209.653 84.1105L208.835 84.5734L204.883 74.1543H206.106Z" fill="white"/>
<path d="M102.227 32.0471C102.227 31.6902 102.175 31.3701 102.07 31.0867C101.966 30.7928 101.772 30.52 101.49 30.2681C101.208 30.0162 100.8 29.7643 100.267 29.5124C99.744 29.25 99.054 28.9771 98.1968 28.6937C97.1932 28.3579 96.2262 27.98 95.2957 27.5602C94.3653 27.1299 93.5342 26.6313 92.8024 26.0645C92.0706 25.4873 91.4904 24.8156 91.0618 24.0494C90.6332 23.2727 90.4189 22.3701 90.4189 21.3415C90.4189 20.3549 90.6384 19.468 91.0775 18.6809C91.5165 17.8832 92.1281 17.2062 92.9122 16.6499C93.7067 16.0832 94.6371 15.6529 95.7034 15.359C96.7698 15.0546 97.9354 14.9024 99.2004 14.9024C100.873 14.9024 102.347 15.1963 103.622 15.7841C104.908 16.3613 105.912 17.1852 106.633 18.2558C107.365 19.3158 107.731 20.5701 107.731 22.0185H102.258C102.258 21.4412 102.138 20.9322 101.898 20.4914C101.668 20.0505 101.317 19.7042 100.847 19.4523C100.376 19.2004 99.7858 19.0744 99.0749 19.0744C98.3849 19.0744 97.8047 19.1794 97.3343 19.3893C96.8639 19.5992 96.5084 19.8826 96.268 20.2395C96.0275 20.5858 95.9073 20.9689 95.9073 21.3887C95.9073 21.7351 96.0014 22.05 96.1896 22.3333C96.3882 22.6062 96.6652 22.8634 97.0207 23.1048C97.3866 23.3462 97.8256 23.5771 98.3379 23.7975C98.8606 24.0179 99.446 24.2331 100.094 24.443C101.307 24.8313 102.384 25.2669 103.325 25.7497C104.276 26.222 105.076 26.7625 105.724 27.3713C106.382 27.9695 106.879 28.6517 107.214 29.4179C107.558 30.1841 107.731 31.05 107.731 32.0156C107.731 33.0442 107.532 33.9573 107.135 34.755C106.738 35.5526 106.168 36.2296 105.426 36.7859C104.684 37.3316 103.795 37.7462 102.76 38.0296C101.725 38.313 100.57 38.4547 99.2945 38.4547C98.1236 38.4547 96.9684 38.3077 95.8289 38.0139C94.6998 37.7095 93.6753 37.2477 92.7554 36.6284C91.8354 35.9987 91.0984 35.1958 90.5443 34.2197C90.0007 33.2331 89.7289 32.0628 89.7289 30.7089H95.2487C95.2487 31.3806 95.3376 31.9474 95.5153 32.4092C95.693 32.871 95.9543 33.2436 96.2993 33.527C96.6443 33.7998 97.0677 33.9993 97.5695 34.1252C98.0713 34.2407 98.6463 34.2984 99.2945 34.2984C99.9949 34.2984 100.559 34.1987 100.988 33.9993C101.417 33.7894 101.73 33.5165 101.929 33.1806C102.128 32.8342 102.227 32.4564 102.227 32.0471Z" fill="white"/>
<path d="M119.131 33.8576V26.836C119.131 26.3532 119.063 25.9386 118.927 25.5922C118.792 25.2459 118.577 24.9782 118.284 24.7893C117.992 24.5899 117.6 24.4902 117.108 24.4902C116.711 24.4902 116.371 24.5584 116.089 24.6949C115.807 24.8313 115.593 25.036 115.446 25.3089C115.3 25.5817 115.227 25.9281 115.227 26.3479H109.942C109.942 25.5608 110.115 24.8313 110.46 24.1596C110.815 23.4774 111.317 22.8844 111.965 22.3806C112.624 21.8768 113.408 21.4884 114.317 21.2156C115.237 20.9322 116.262 20.7905 117.391 20.7905C118.739 20.7905 119.941 21.0161 120.997 21.4675C122.064 21.9188 122.905 22.5957 123.522 23.4984C124.139 24.3905 124.447 25.5135 124.447 26.8675V33.8418C124.447 34.9544 124.51 35.7993 124.635 36.3765C124.761 36.9433 124.939 37.4418 125.169 37.8722V38.1398H119.868C119.617 37.615 119.429 36.9748 119.304 36.2191C119.189 35.4529 119.131 34.6657 119.131 33.8576ZM119.774 27.7334L119.806 30.5672H117.469C116.978 30.5672 116.56 30.6354 116.215 30.7719C115.88 30.9083 115.608 31.0972 115.399 31.3386C115.201 31.5695 115.054 31.8319 114.96 32.1258C114.876 32.4197 114.835 32.7293 114.835 33.0547C114.835 33.3695 114.908 33.6529 115.054 33.9048C115.211 34.1462 115.42 34.3351 115.681 34.4716C115.943 34.608 116.235 34.6762 116.56 34.6762C117.145 34.6762 117.642 34.566 118.049 34.3456C118.467 34.1147 118.786 33.8366 119.006 33.5112C119.225 33.1859 119.335 32.8815 119.335 32.5981L120.496 34.7707C120.286 35.1905 120.046 35.6156 119.774 36.0459C119.513 36.4762 119.184 36.8751 118.786 37.2424C118.399 37.5993 117.924 37.8932 117.359 38.1241C116.795 38.3445 116.11 38.4547 115.305 38.4547C114.26 38.4547 113.298 38.2395 112.42 37.8092C111.552 37.3789 110.857 36.7806 110.334 36.0144C109.811 35.2378 109.55 34.3456 109.55 33.338C109.55 32.4564 109.707 31.6692 110.02 30.9765C110.345 30.2838 110.831 29.696 111.479 29.2132C112.127 28.7304 112.953 28.3631 113.956 28.1112C114.96 27.8593 116.141 27.7334 117.5 27.7334H119.774Z" fill="white"/>
<path d="M133.856 38.1398H128.54V19.7199C128.54 18.3975 128.807 17.2849 129.34 16.3823C129.873 15.4797 130.626 14.7975 131.598 14.3357C132.57 13.8633 133.72 13.6272 135.048 13.6272C135.508 13.6272 135.942 13.6587 136.349 13.7217C136.757 13.7846 137.154 13.8633 137.541 13.9578L137.557 17.8622C137.369 17.8097 137.175 17.773 136.977 17.752C136.778 17.731 136.532 17.7205 136.24 17.7205C135.727 17.7205 135.293 17.7992 134.938 17.9567C134.583 18.1036 134.311 18.3293 134.123 18.6336C133.945 18.9275 133.856 19.2896 133.856 19.7199V38.1398ZM137.149 21.1054V24.7893H126.094V21.1054H137.149Z" fill="white"/>
<path d="M146.887 38.4547C145.507 38.4547 144.274 38.2395 143.186 37.8092C142.099 37.3684 141.179 36.7649 140.426 35.9987C139.684 35.2325 139.114 34.3509 138.717 33.3538C138.33 32.3567 138.137 31.3019 138.137 30.1893V29.5911C138.137 28.3421 138.309 27.1876 138.654 26.1275C138.999 25.057 139.512 24.1229 140.191 23.3252C140.871 22.5275 141.723 21.9083 142.747 21.4675C143.772 21.0161 144.964 20.7905 146.323 20.7905C147.525 20.7905 148.602 20.9847 149.553 21.373C150.504 21.7613 151.309 22.3176 151.968 23.0418C152.637 23.766 153.144 24.6424 153.489 25.671C153.844 26.6995 154.022 27.8541 154.022 29.1345V31.2914H140.16V27.9695H148.863V27.5602C148.873 26.9934 148.774 26.5106 148.565 26.1118C148.366 25.7129 148.074 25.4086 147.687 25.1987C147.3 24.9887 146.83 24.8838 146.276 24.8838C145.701 24.8838 145.225 25.0097 144.849 25.2616C144.483 25.5135 144.195 25.8599 143.986 26.3007C143.787 26.731 143.646 27.2296 143.563 27.7963C143.479 28.3631 143.437 28.9613 143.437 29.5911V30.1893C143.437 30.8191 143.521 31.3911 143.688 31.9054C143.866 32.4197 144.117 32.8605 144.441 33.2278C144.775 33.5847 145.173 33.8628 145.633 34.0622C146.103 34.2617 146.636 34.3614 147.232 34.3614C147.953 34.3614 148.664 34.2249 149.365 33.952C150.065 33.6791 150.666 33.2278 151.168 32.5981L153.567 35.4634C153.222 35.9567 152.731 36.4343 152.093 36.8961C151.466 37.3579 150.713 37.7357 149.835 38.0296C148.957 38.313 147.974 38.4547 146.887 38.4547Z" fill="white"/>
<path d="M163.682 36.0617C164.372 36.0617 165.009 35.92 165.595 35.6366C166.18 35.3532 166.661 34.9649 167.038 34.4716C167.414 33.9678 167.628 33.3958 167.681 32.7555H170.44C170.388 33.7631 170.048 34.7025 169.421 35.5736C168.804 36.4343 167.994 37.1322 166.991 37.6675C165.987 38.1923 164.884 38.4547 163.682 38.4547C162.406 38.4547 161.293 38.229 160.342 37.7777C159.401 37.3264 158.617 36.7071 157.989 35.92C157.373 35.1328 156.907 34.2302 156.594 33.2121C156.291 32.1835 156.139 31.0972 156.139 29.9532V29.292C156.139 28.1479 156.291 27.0669 156.594 26.0488C156.907 25.0202 157.373 24.1124 157.989 23.3252C158.617 22.538 159.401 21.9188 160.342 21.4675C161.293 21.0161 162.406 20.7905 163.682 20.7905C165.009 20.7905 166.17 21.0634 167.163 21.6091C168.156 22.1444 168.935 22.8791 169.5 23.8132C170.075 24.7368 170.388 25.7864 170.44 26.9619H167.681C167.628 26.2587 167.43 25.6237 167.085 25.057C166.75 24.4902 166.29 24.0389 165.705 23.703C165.13 23.3567 164.455 23.1835 163.682 23.1835C162.793 23.1835 162.046 23.3619 161.439 23.7188C160.843 24.0651 160.368 24.5374 160.012 25.1357C159.667 25.7234 159.416 26.3794 159.26 27.1036C159.113 27.8173 159.04 28.5468 159.04 29.292V29.9532C159.04 30.6984 159.113 31.4331 159.26 32.1573C159.406 32.8815 159.652 33.5375 159.997 34.1252C160.352 34.713 160.828 35.1853 161.424 35.5421C162.03 35.8885 162.783 36.0617 163.682 36.0617Z" fill="white"/>
<path d="M183.707 35.2273V26.4581C183.707 25.7864 183.571 25.2039 183.299 24.7106C183.038 24.2068 182.64 23.8185 182.107 23.5456C181.574 23.2727 180.916 23.1363 180.131 23.1363C179.4 23.1363 178.757 23.2622 178.203 23.5141C177.659 23.766 177.23 24.0966 176.917 24.5059C176.614 24.9153 176.462 25.3561 176.462 25.8284H173.561C173.561 25.2196 173.718 24.6161 174.031 24.0179C174.345 23.4196 174.795 22.8791 175.38 22.3963C175.976 21.903 176.687 21.5147 177.513 21.2313C178.349 20.9374 179.279 20.7905 180.304 20.7905C181.538 20.7905 182.625 21.0004 183.566 21.4202C184.517 21.84 185.259 22.475 185.792 23.3252C186.336 24.1648 186.608 25.2196 186.608 26.4896V34.4243C186.608 34.9911 186.655 35.5946 186.749 36.2348C186.853 36.8751 187.005 37.4261 187.204 37.8879V38.1398H184.177C184.031 37.8039 183.916 37.3579 183.832 36.8016C183.749 36.2348 183.707 35.7101 183.707 35.2273ZM184.209 27.8121L184.24 29.8587H181.308C180.482 29.8587 179.745 29.927 179.096 30.0634C178.448 30.1893 177.905 30.3835 177.466 30.6459C177.027 30.9083 176.692 31.2389 176.462 31.6377C176.232 32.0261 176.117 32.4826 176.117 33.0074C176.117 33.5427 176.237 34.0308 176.478 34.4716C176.718 34.9124 177.079 35.264 177.56 35.5264C178.051 35.7783 178.652 35.9042 179.363 35.9042C180.252 35.9042 181.036 35.7153 181.715 35.3375C182.395 34.9596 182.933 34.4978 183.33 33.952C183.738 33.4063 183.958 32.8762 183.989 32.3619L185.228 33.7631C185.155 34.2039 184.956 34.692 184.632 35.2273C184.308 35.7625 183.874 36.2768 183.33 36.7701C182.797 37.2529 182.16 37.657 181.417 37.9824C180.686 38.2972 179.86 38.4547 178.94 38.4547C177.79 38.4547 176.781 38.229 175.913 37.7777C175.056 37.3264 174.387 36.7229 173.906 35.9672C173.436 35.201 173.2 34.3456 173.2 33.401C173.2 32.4879 173.378 31.685 173.733 30.9923C174.089 30.2891 174.601 29.7065 175.27 29.2447C175.939 28.7724 176.744 28.4156 177.685 28.1742C178.626 27.9328 179.677 27.8121 180.837 27.8121H184.209Z" fill="white"/>
<path d="M201.05 33.6214C201.05 33.2016 200.956 32.8133 200.768 32.4564C200.59 32.0891 200.219 31.7584 199.655 31.4646C199.101 31.1602 198.264 30.8978 197.146 30.6774C196.205 30.478 195.353 30.2418 194.59 29.9689C193.837 29.696 193.194 29.3654 192.661 28.9771C192.138 28.5888 191.736 28.1322 191.453 27.6074C191.171 27.0826 191.03 26.4686 191.03 25.7654C191.03 25.0937 191.176 24.4587 191.469 23.8605C191.772 23.2622 192.196 22.7322 192.739 22.2704C193.293 21.8086 193.957 21.4465 194.731 21.1841C195.504 20.9217 196.367 20.7905 197.318 20.7905C198.677 20.7905 199.838 21.0319 200.799 21.5147C201.761 21.9975 202.498 22.643 203.01 23.4511C203.523 24.2488 203.779 25.1357 203.779 26.1118H200.878C200.878 25.6395 200.737 25.1829 200.454 24.7421C200.183 24.2908 199.78 23.9182 199.247 23.6243C198.724 23.3304 198.081 23.1835 197.318 23.1835C196.513 23.1835 195.86 23.3094 195.358 23.5613C194.867 23.8027 194.506 24.1124 194.276 24.4902C194.056 24.868 193.947 25.2669 193.947 25.6867C193.947 26.0016 193.999 26.285 194.103 26.5369C194.218 26.7783 194.417 27.0039 194.699 27.2138C194.982 27.4132 195.379 27.6022 195.891 27.7806C196.403 27.959 197.057 28.1374 197.851 28.3159C199.242 28.6307 200.386 29.0086 201.285 29.4494C202.185 29.8902 202.854 30.4307 203.293 31.071C203.732 31.7112 203.951 32.4879 203.951 33.401C203.951 34.1462 203.794 34.8284 203.481 35.4477C203.178 36.0669 202.733 36.6022 202.148 37.0535C201.573 37.4943 200.883 37.8407 200.078 38.0926C199.284 38.334 198.39 38.4547 197.397 38.4547C195.902 38.4547 194.637 38.187 193.602 37.6518C192.567 37.1165 191.783 36.4238 191.249 35.5736C190.716 34.7235 190.45 33.8261 190.45 32.8815H193.366C193.408 33.6791 193.638 34.3141 194.056 34.7864C194.475 35.2482 194.987 35.5789 195.593 35.7783C196.2 35.9672 196.801 36.0617 197.397 36.0617C198.191 36.0617 198.855 35.9567 199.388 35.7468C199.932 35.5369 200.345 35.2482 200.627 34.8809C200.909 34.5136 201.05 34.0937 201.05 33.6214Z" fill="white"/>
<path d="M210.914 21.1054V38.1398H207.997V21.1054H210.914ZM207.778 16.587C207.778 16.1147 207.919 15.7158 208.201 15.3905C208.494 15.0651 208.922 14.9024 209.487 14.9024C210.041 14.9024 210.464 15.0651 210.757 15.3905C211.06 15.7158 211.212 16.1147 211.212 16.587C211.212 17.0383 211.06 17.4266 210.757 17.752C210.464 18.0669 210.041 18.2243 209.487 18.2243C208.922 18.2243 208.494 18.0669 208.201 17.752C207.919 17.4266 207.778 17.0383 207.778 16.587Z" fill="white"/>
<path d="M218.472 24.7421V38.1398H215.571V21.1054H218.315L218.472 24.7421ZM217.782 28.9771L216.575 28.9299C216.585 27.7648 216.758 26.689 217.092 25.7024C217.427 24.7054 217.897 23.8395 218.504 23.1048C219.11 22.3701 219.831 21.8033 220.668 21.4045C221.514 20.9951 222.45 20.7905 223.475 20.7905C224.311 20.7905 225.064 20.9059 225.733 21.1368C226.402 21.3572 226.971 21.7141 227.442 22.2074C227.923 22.7007 228.289 23.3409 228.54 24.1281C228.79 24.9048 228.916 25.8546 228.916 26.9777V38.1398H225.999V26.9462C225.999 26.0541 225.869 25.3403 225.607 24.8051C225.346 24.2593 224.964 23.8657 224.462 23.6243C223.961 23.3724 223.344 23.2465 222.612 23.2465C221.891 23.2465 221.232 23.3987 220.636 23.703C220.051 24.0074 219.544 24.4272 219.115 24.9625C218.697 25.4978 218.368 26.1118 218.127 26.8045C217.897 27.4867 217.782 28.2109 217.782 28.9771Z" fill="white"/>
<path d="M232.554 29.8115V29.4494C232.554 28.2214 232.732 27.0826 233.087 26.0331C233.443 24.973 233.955 24.0546 234.624 23.278C235.293 22.4908 236.103 21.882 237.054 21.4517C238.006 21.0109 239.072 20.7905 240.253 20.7905C241.445 20.7905 242.517 21.0109 243.468 21.4517C244.43 21.882 245.245 22.4908 245.914 23.278C246.594 24.0546 247.111 24.973 247.467 26.0331C247.822 27.0826 248 28.2214 248 29.4494V29.8115C248 31.0395 247.822 32.1783 247.467 33.2278C247.111 34.2774 246.594 35.1958 245.914 35.9829C245.245 36.7596 244.435 37.3684 243.484 37.8092C242.543 38.2395 241.477 38.4547 240.285 38.4547C239.093 38.4547 238.021 38.2395 237.07 37.8092C236.119 37.3684 235.303 36.7596 234.624 35.9829C233.955 35.1958 233.443 34.2774 233.087 33.2278C232.732 32.1783 232.554 31.0395 232.554 29.8115ZM235.455 29.4494V29.8115C235.455 30.6616 235.554 31.4646 235.753 32.2203C235.952 32.9654 236.25 33.6267 236.647 34.2039C237.054 34.7812 237.562 35.2378 238.168 35.5736C238.774 35.899 239.48 36.0617 240.285 36.0617C241.079 36.0617 241.775 35.899 242.37 35.5736C242.977 35.2378 243.479 34.7812 243.876 34.2039C244.273 33.6267 244.571 32.9654 244.77 32.2203C244.979 31.4646 245.083 30.6616 245.083 29.8115V29.4494C245.083 28.6097 244.979 27.8173 244.77 27.0721C244.571 26.3164 244.268 25.65 243.86 25.0727C243.463 24.485 242.961 24.0231 242.355 23.6873C241.759 23.3514 241.058 23.1835 240.253 23.1835C239.459 23.1835 238.759 23.3514 238.152 23.6873C237.556 24.0231 237.054 24.485 236.647 25.0727C236.25 25.65 235.952 26.3164 235.753 27.0721C235.554 27.8173 235.455 28.6097 235.455 29.4494Z" fill="white"/>
<defs>
<radialGradient id="paint0_radial_9221_11427" cx="0" cy="0" r="1" gradientUnits="userSpaceOnUse" gradientTransform="translate(31.7799 28.8278) rotate(-1.28391) scale(49.4618 50.0033)">
<stop stop-color="#8461D3"/>
<stop offset="0.99" stop-color="#7138B6"/>
</radialGradient>
<radialGradient id="paint1_radial_9221_11427" cx="0" cy="0" r="1" gradientUnits="userSpaceOnUse" gradientTransform="translate(35.6948 47.4254) rotate(-1.28391) scale(30.6076 30.9427)">
<stop stop-color="#6D47D3"/>
<stop offset="0.99" stop-color="#542492"/>
</radialGradient>
<linearGradient id="paint2_linear_9221_11427" x1="20.5505" y1="82.4749" x2="19.1323" y2="19.1985" gradientUnits="userSpaceOnUse">
<stop stop-color="#3C1460"/>
<stop offset="0.99" stop-color="#3C1460"/>
</linearGradient>
<linearGradient id="paint3_linear_9221_11427" x1="50313.6" y1="12941" x2="50155.8" y2="5140.21" gradientUnits="userSpaceOnUse">
<stop stop-color="#603082"/>
<stop offset="0.99" stop-color="#3C145F"/>
</linearGradient>
<linearGradient id="paint4_linear_9221_11427" x1="21.0725" y1="81.744" x2="19.7066" y2="20.8033" gradientUnits="userSpaceOnUse">
<stop offset="0.04" stop-color="#A4C6FF"/>
<stop offset="0.24" stop-color="#BD9BD2"/>
<stop offset="1" stop-color="#EBD7E3"/>
</linearGradient>
<linearGradient id="paint5_linear_9221_11427" x1="48.7672" y1="81.1232" x2="47.4014" y2="20.1826" gradientUnits="userSpaceOnUse">
<stop stop-color="#83A8FF"/>
<stop offset="0.21" stop-color="#8E7BBB"/>
<stop offset="1" stop-color="#EBD7E3"/>
</linearGradient>
<linearGradient id="paint6_linear_9221_11427" x1="24.6301" y1="51.8849" x2="44.861" y2="51.4413" gradientUnits="userSpaceOnUse">
<stop stop-color="#2C2A88"/>
<stop offset="0.99" stop-color="#0C3C5A"/>
</linearGradient>
</defs>
</svg>
