<svg width="31" height="30" viewBox="0 0 31 30" fill="none" xmlns="http://www.w3.org/2000/svg">
<path d="M8.73687 27.289C7.35989 25.7242 5.98296 24.0969 5.10667 22.1566C4.23044 20.0912 3.98006 17.7128 4.41821 15.4596C4.85635 13.2064 5.85774 11.0783 7.29734 9.26324C7.17218 10.828 7.73548 12.4553 8.79948 13.6445C8.17357 10.6402 9.17502 7.38556 11.1779 5.00719C13.1807 2.62881 15.9347 1.064 18.8137 0C17.3742 1.50214 17.1864 3.88052 17.7497 5.88342C18.313 7.88626 19.5023 9.63878 20.5663 11.4539C21.6303 13.2689 22.6317 15.1466 22.6943 17.2121C23.2576 16.1481 23.8835 15.084 24.2591 13.8948C24.6346 12.7056 24.8224 11.4539 24.5094 10.2646C25.6361 11.6416 26.262 13.0185 26.5749 14.7711C26.8878 16.5236 26.8253 18.3387 26.6375 20.0912C26.3871 22.0315 25.8864 24.0343 24.8224 25.6616C23.5707 27.6019 21.5678 28.9788 19.3772 29.7299C15.4965 30.4184 11.6786 29.8551 8.73687 27.289Z" fill="#F3705A"/>
<path d="M13.4946 29.6043C18.6269 31.6072 23.6966 25.536 20.8801 20.8418C20.8801 20.7792 20.8175 20.7792 20.8175 20.7166C21.0679 23.2827 20.442 25.1604 19.2528 26.2245C19.8787 24.7223 19.4405 22.9698 18.6895 21.4677C17.9384 20.0281 16.8744 18.7138 16.0607 17.3368C15.247 15.8972 14.6212 14.2699 14.9967 12.6426C13.4946 13.7692 12.4306 15.4591 11.9924 17.2742C11.5543 19.0892 11.8047 21.0921 12.6183 22.7821C11.6795 22.0936 10.991 20.967 10.9284 19.7778C9.92697 20.967 9.30112 22.5317 9.36367 24.0964C9.36373 26.5374 11.304 28.728 13.4946 29.6043Z" fill="#FFD15C"/>
</svg>
