<svg width="102" height="42" viewBox="0 0 102 42" fill="none" xmlns="http://www.w3.org/2000/svg">
<path fill-rule="evenodd" clip-rule="evenodd" d="M36.8528 8.07638C36.8528 8.07638 31.3144 0.0200195 18.895 0.0200195C8.65741 0.0200195 0.937256 5.72661 0.937256 9.08343C0.937256 12.9438 8.65741 14.9579 8.65741 21.0001H21.9159C21.9159 17.4755 10.3357 15.6292 10.3357 8.07638C10.3357 1.19491 28.2935 1.69843 36.8528 8.07638Z" fill="#3C2A5C"/>
<path fill-rule="evenodd" clip-rule="evenodd" d="M36.8528 33.9233C36.8528 33.9233 31.3144 41.9796 18.895 41.9796C8.65741 41.9796 0.937256 36.273 0.937256 32.9162C0.937256 29.0559 8.65741 26.8739 8.65741 20.9995H21.9159C21.9159 24.5242 10.3357 26.3704 10.3357 33.9233C10.3357 40.8047 28.2935 40.3012 36.8528 33.9233Z" fill="#3C2A5C"/>
<path fill-rule="evenodd" clip-rule="evenodd" d="M1.10509 7.90869C0.937256 8.41221 0.937256 8.7479 0.937256 9.08358C0.937256 12.9439 8.65742 14.958 8.65742 21.0003C8.65742 26.8747 0.937256 29.0567 0.937256 32.917C0.937256 33.2527 0.937256 33.5884 1.10509 33.924C0.0981079 30.2315 13.5245 27.0426 19.7342 23.6857C21.0768 22.8465 21.916 22.0073 21.916 21.0003C21.916 19.9932 21.0768 19.154 19.7342 18.3148C13.5245 14.958 0.0981079 11.769 1.10509 7.90869Z" fill="#3C2A5C"/>
<path d="M31.1466 22.5101H32.4892C32.3214 23.1815 31.9857 23.685 31.3144 24.0207C30.8109 24.3564 30.1396 24.6921 29.1326 24.6921C28.1257 24.6921 27.2865 24.3564 26.783 23.685C26.1117 23.1815 25.7761 22.3423 25.7761 21.1674C25.7761 20.1604 26.1117 19.3212 26.783 18.6498C27.2865 18.1463 28.1257 17.8106 29.1326 17.8106C30.3075 17.8106 31.1466 18.1463 31.8179 18.6498C32.3214 19.3212 32.6571 20.1604 32.6571 21.1674C32.6571 21.3353 32.6571 21.3353 32.6571 21.3353C32.6571 21.5031 32.6571 21.5031 32.6571 21.5031C32.6571 21.6709 32.6571 21.6709 32.6571 21.6709H27.79C27.79 22.1745 27.9578 22.5101 28.2935 22.8458C28.4613 23.0137 28.797 23.1815 29.3005 23.1815C29.6361 23.1815 29.804 23.1815 30.1396 23.0137C30.1396 23.0137 30.1396 23.0137 30.3075 23.0137C30.3075 22.8458 30.3075 22.8458 30.4753 22.8458C30.4753 22.678 30.4753 22.678 30.6431 22.678C30.8109 22.5101 30.9788 22.5101 31.1466 22.5101ZM27.79 20.4961H30.6431C30.6431 20.1604 30.4753 19.8247 30.3075 19.6569C29.9718 19.3212 29.6361 19.3212 29.3005 19.3212C28.797 19.3212 28.4613 19.3212 28.2935 19.6569C27.9578 19.8247 27.79 20.1604 27.79 20.4961ZM40.8807 24.5242H39.8737C39.7059 24.5242 39.3702 24.3564 39.2024 24.1886C39.0346 24.1886 39.0346 23.8529 39.0346 23.685V20.3282C39.0346 19.9925 38.8668 19.6569 38.5311 19.489C38.3633 19.3212 38.0276 19.1533 37.6919 19.1533C37.3563 19.1533 37.0206 19.3212 36.8528 19.489C36.5171 19.6569 36.5171 19.9925 36.5171 20.3282V24.5242H34.5032V20.6639C34.5032 19.489 34.8388 18.8176 35.5102 18.482C36.1815 17.9784 36.8528 17.8106 37.6919 17.8106C38.5311 17.8106 39.2024 17.9784 39.8737 18.3141C40.545 18.8176 40.8807 19.489 40.8807 20.6639V24.5242ZM47.5939 15.9644H48.6009C48.9365 15.9644 49.1043 16.1322 49.2722 16.3C49.44 16.4679 49.6078 16.6357 49.6078 16.8036V21.6709C49.6078 22.8458 49.1043 23.685 48.433 24.0207C47.5939 24.3564 46.9226 24.6921 45.9156 24.6921C45.4121 24.6921 45.0764 24.5242 44.573 24.3564C44.0695 24.3564 43.7338 24.0207 43.3981 23.685C42.8947 23.1815 42.7268 22.3423 42.7268 21.3353C42.7268 20.1604 42.8947 19.3212 43.3981 18.8176C44.0695 18.1463 44.7408 17.8106 45.5799 17.8106C46.0834 17.8106 46.4191 17.9784 46.7547 18.1463C47.0904 18.3141 47.4261 18.482 47.5939 18.8176V15.9644ZM44.573 21.1674C44.573 21.8388 44.7408 22.3423 44.9086 22.678C45.2443 23.0137 45.5799 23.1815 46.0834 23.1815C46.5869 23.1815 47.0904 23.0137 47.2582 22.678C47.5939 22.3423 47.5939 21.8388 47.5939 21.1674C47.5939 20.6639 47.5939 20.1604 47.2582 19.8247C46.9226 19.489 46.5869 19.3212 46.0834 19.3212C45.5799 19.3212 45.2443 19.489 44.9086 19.8247C44.7408 20.1604 44.573 20.6639 44.573 21.1674ZM52.4609 23.8529C51.9574 23.685 51.7896 23.1815 51.6218 22.678C51.454 22.1745 51.2861 21.6709 51.2861 21.1674C51.2861 20.6639 51.454 20.3282 51.454 19.8247C51.6218 19.3212 51.7896 18.9855 52.1253 18.6498C52.6288 18.3141 53.3001 17.9784 53.9714 17.8106C54.8105 17.8106 55.4819 17.8106 55.9854 17.9784C56.8245 18.3141 57.328 18.6498 57.6636 19.3212C57.9993 19.8247 57.9993 20.4961 57.9993 21.1674C57.9993 21.6709 57.9993 22.1745 57.8315 22.5101C57.8315 22.8458 57.6636 23.1815 57.328 23.5172C56.9923 24.0207 56.321 24.3564 55.6497 24.5242C55.1462 24.6921 54.4749 24.6921 53.8036 24.5242C53.3001 24.3564 52.7966 24.1886 52.4609 23.8529ZM53.6357 19.6569C53.3001 19.9925 53.1323 20.4961 53.1323 21.3353C53.3001 22.0066 53.3001 22.5101 53.6357 22.8458C53.8036 23.0137 53.9714 23.0137 54.3071 23.1815C54.4749 23.1815 54.8105 23.1815 55.1462 23.1815C55.314 23.1815 55.6497 23.0137 55.8175 22.678C55.9854 22.3423 56.1532 21.8388 56.1532 21.1674C56.1532 20.6639 56.1532 20.1604 55.8175 19.8247C55.6497 19.6569 55.4819 19.3212 55.1462 19.3212C54.8105 19.1533 54.6427 19.1533 54.3071 19.3212C53.9714 19.3212 53.8036 19.489 53.6357 19.6569ZM60.0133 24.5242V21.3353C60.0133 20.6639 60.0133 20.1604 60.3489 19.6569C60.5167 19.3212 60.8524 18.9855 61.1881 18.6498C61.5237 18.482 61.8594 18.3141 62.3629 18.1463C62.8664 17.9784 63.3698 17.9784 63.8733 17.9784C63.8733 17.9784 63.8733 17.9784 64.0412 17.9784V19.6569H63.5377C62.8664 19.6569 62.5307 19.8247 62.3629 19.9925C62.0272 20.3282 61.8594 20.6639 61.8594 21.1674V24.5242H60.0133ZM67.7334 26.0348C67.7334 26.3705 67.7334 26.5383 67.5656 26.7062C67.2299 26.874 67.0621 26.874 66.8943 26.874H65.8873V20.8317C65.8873 19.6569 66.2229 18.8176 67.0621 18.482C67.7334 17.9784 68.5726 17.8106 69.4117 17.8106C69.9152 17.8106 70.4187 17.9784 70.9222 17.9784C71.4257 18.1463 71.7613 18.482 71.9291 18.6498C72.6005 19.3212 72.7683 20.1604 72.7683 21.1674C72.7683 22.1745 72.6005 23.0137 71.9291 23.685C71.4257 24.3564 70.7543 24.6921 69.9152 24.6921C69.4117 24.6921 69.076 24.5242 68.5726 24.3564C68.2369 24.1886 68.0691 24.0207 67.7334 23.685V26.0348ZM70.9222 21.3353C70.9222 20.6639 70.7543 20.1604 70.5865 19.8247C70.2509 19.489 69.9152 19.3212 69.2439 19.3212C68.7404 19.3212 68.4047 19.489 68.2369 19.8247C67.9012 20.1604 67.7334 20.6639 67.7334 21.3353C67.7334 21.8388 67.9012 22.3423 68.2369 22.678C68.4047 23.0137 68.9082 23.1815 69.4117 23.1815C69.9152 23.1815 70.2509 23.0137 70.5865 22.678C70.7543 22.3423 70.9222 21.8388 70.9222 21.3353ZM79.3136 19.8247C79.1458 19.489 78.6423 19.3212 78.3067 19.3212C77.6353 19.3212 77.2997 19.489 76.964 19.8247C76.7962 20.1604 76.6284 20.4961 76.6284 21.1674V24.5242H74.7822V16.1322H75.6214C75.9571 16.1322 76.1249 16.1322 76.2927 16.3C76.4605 16.4679 76.6284 16.6357 76.6284 16.8036V18.8176C76.964 18.3141 77.4675 17.9784 77.971 17.9784C78.6423 17.8106 79.1458 17.8106 79.8171 17.9784C80.3206 18.1463 80.6563 18.482 80.9919 18.9855C81.4954 19.3212 81.6632 19.9925 81.6632 20.6639V24.5242H79.8171V21.1674C79.8171 20.8317 79.6493 20.6639 79.6493 20.4961C79.6493 20.1604 79.4815 19.9925 79.3136 19.8247ZM83.6772 17.9784H84.6842C84.852 17.9784 85.1877 17.9784 85.3555 18.1463C85.5233 18.3141 85.6912 18.6498 85.6912 18.8176V24.5242H83.6772V17.9784ZM83.6772 16.1322H84.6842C84.852 16.1322 85.1877 16.1322 85.3555 16.3C85.5233 16.4679 85.6912 16.6357 85.6912 16.8036V17.4749H83.6772V16.1322ZM93.747 24.5242H92.74C92.4043 24.5242 92.2365 24.3564 92.0687 24.1886C91.9008 24.1886 91.733 23.8529 91.733 23.685V20.3282C91.733 19.9925 91.733 19.6569 91.3974 19.489C91.0617 19.3212 90.8939 19.1533 90.5582 19.1533C90.2225 19.1533 89.8869 19.3212 89.5512 19.489C89.3834 19.6569 89.2156 19.9925 89.2156 20.3282V24.5242H87.3694V20.6639C87.3694 19.489 87.5373 18.8176 88.2086 18.482C88.8799 17.9784 89.7191 17.8106 90.3904 17.8106C91.2295 17.8106 92.0687 17.9784 92.74 18.3141C93.4113 18.8176 93.747 19.489 93.747 20.6639V24.5242ZM99.7888 21.1674C99.621 21.3353 99.2853 21.5031 98.7818 21.5031C98.2784 21.6709 98.1105 21.6709 98.1105 21.6709C97.7749 21.6709 97.607 21.8388 97.4392 22.0066C97.2714 22.1745 97.2714 22.3423 97.2714 22.5101C97.2714 22.678 97.2714 23.0137 97.4392 23.1815C97.607 23.1815 97.9427 23.3494 98.1105 23.3494C98.7818 23.3494 99.1175 23.1815 99.4532 22.8458C99.621 22.678 99.7888 22.3423 99.7888 21.8388V21.1674ZM100.292 24.1886C99.9567 24.3564 99.4532 24.5242 99.1175 24.5242C98.614 24.5242 98.2784 24.6921 97.9427 24.6921C97.2714 24.6921 96.6001 24.5242 96.0966 24.1886C95.5931 23.8529 95.4253 23.3494 95.4253 22.5101C95.4253 21.8388 95.5931 21.3353 96.0966 21.1674C96.6001 20.8317 97.1036 20.6639 97.7749 20.4961C97.9427 20.4961 97.9427 20.4961 98.1105 20.4961C98.2784 20.4961 98.4462 20.4961 98.614 20.3282C99.4532 20.3282 99.7888 20.1604 99.7888 19.8247C99.7888 19.489 99.621 19.3212 99.4532 19.3212C99.1175 19.1533 98.7818 19.1533 98.614 19.1533C98.2784 19.1533 98.1105 19.1533 97.9427 19.3212C97.7749 19.3212 97.607 19.489 97.4392 19.6569H95.5931C95.7609 19.1533 95.9287 18.6498 96.4322 18.3141C96.9357 17.9784 97.607 17.8106 98.4462 17.8106C99.621 17.8106 100.292 17.9784 100.796 18.3141C101.299 18.6498 101.635 19.1533 101.635 19.6569V21.8388C101.635 22.5101 101.467 23.0137 101.299 23.5172C100.964 23.8529 100.628 24.0207 100.292 24.1886Z" fill="#3C2A5C"/>
</svg>
