<svg width="99" height="34" viewBox="0 0 99 34" fill="none" xmlns="http://www.w3.org/2000/svg">
<path d="M25.4911 1.27295H36.1314L36.394 4.87032H35.7645C35.5163 3.3918 35.4839 3.07163 34.9444 2.49965C34.4048 1.92767 33.3329 1.96364 32.466 1.96364H29.7465C29.6558 1.95729 29.5648 1.97002 29.4793 2.001C29.3938 2.03198 29.3157 2.08052 29.2501 2.14351C29.1262 2.29617 29.0656 2.49066 29.0811 2.68671V7.26976H30.2717C30.5649 7.27956 30.8565 7.22321 31.1249 7.10488C31.3933 6.98655 31.6316 6.8093 31.8221 6.58626C32.2178 6.1306 32.4312 5.42911 32.4624 4.4818H33.1098V10.9103H32.4624C32.4312 9.84548 32.2142 9.08403 31.8113 8.62597C31.6061 8.39552 31.352 8.21388 31.0676 8.09437C30.7831 7.97486 30.4756 7.9205 30.1674 7.93528H29.0883V13.0939C29.0829 13.1811 29.0983 13.2684 29.1334 13.3485C29.1684 13.4285 29.222 13.4991 29.2897 13.5544C29.4895 13.6787 29.7245 13.7342 29.9588 13.7126H32.117C34.448 13.7126 35.7933 12.95 36.1494 9.97139H36.8257L36.5703 14.4141H25.4911V13.6947H26.0775C26.3506 13.7209 26.6245 13.6537 26.8545 13.504C26.931 13.4337 26.9908 13.3471 27.0294 13.2506C27.068 13.1541 27.0844 13.0501 27.0775 12.9464V2.68671C27.0873 2.58833 27.0761 2.48897 27.0444 2.39529C27.0128 2.30161 26.9615 2.21577 26.894 2.14351C26.7171 2.00919 26.4967 1.94512 26.2753 1.96364H25.4911V1.27295Z" fill="#3C2A5C"/>
<path d="M35.9083 5.6167H40.7105V6.25703C40.337 6.23563 39.963 6.2882 39.6098 6.41172C39.5367 6.44673 39.4752 6.50191 39.4325 6.57076C39.3898 6.6396 39.3677 6.71923 39.3688 6.80024C39.3697 6.94328 39.4016 7.08442 39.4623 7.21394L41.7933 12.4229L43.9156 7.38661C43.946 7.30237 43.9618 7.21356 43.9624 7.124C43.9624 6.66833 43.5127 6.38414 42.6134 6.27142V5.6167H46.2537V6.25703C45.9384 6.27511 45.6338 6.37829 45.3724 6.55562C45.1526 6.72732 44.9824 6.95457 44.8796 7.21394L41.6422 14.6785H41.1386L37.6853 7.00889C37.5933 6.77608 37.4343 6.57579 37.2285 6.4333C36.8017 6.31136 36.3593 6.25317 35.9155 6.26063L35.9083 5.6167Z" fill="#3C2A5C"/>
<path d="M49.6461 5.35571C50.2051 5.3449 50.7599 5.45356 51.2736 5.67441C51.7872 5.89527 52.2478 6.22323 52.6245 6.63638C53.4538 7.55923 53.8866 8.77132 53.8296 10.0107C53.8546 10.864 53.6693 11.7102 53.29 12.4749C52.9383 13.1451 52.4047 13.7025 51.7504 14.0829C51.0989 14.4747 50.3523 14.68 49.5921 14.6765C49.0475 14.6807 48.5083 14.5671 48.0116 14.3436C47.515 14.1201 47.0724 13.7919 46.7144 13.3815C45.9005 12.4563 45.4752 11.2526 45.5273 10.0215C45.4761 8.79333 45.8999 7.59263 46.7108 6.66876C47.0758 6.25044 47.5273 5.91638 48.0341 5.68968C48.5409 5.46297 49.0909 5.34903 49.6461 5.35571ZM49.6461 6.02123C49.3011 6.02116 48.9618 6.10857 48.6599 6.27529C48.3579 6.44201 48.1031 6.68259 47.9194 6.97453C47.4686 7.61007 47.2431 8.61254 47.2431 9.98194C47.2431 11.3513 47.4674 12.3718 47.9158 13.0433C48.0974 13.3391 48.3518 13.5835 48.6547 13.7529C48.9576 13.9223 49.299 14.0112 49.6461 14.011C50.0001 14.014 50.349 13.9268 50.66 13.7575C50.9709 13.5881 51.2335 13.3424 51.4231 13.0433C51.8763 12.3982 52.1029 11.3441 52.1029 9.88121C52.1029 8.5238 51.8787 7.54172 51.4303 6.93496C51.2312 6.64764 50.9641 6.41413 50.6527 6.25531C50.3414 6.09648 49.9955 6.0173 49.6461 6.02483V6.02123Z" fill="#3C2A5C"/>
<path d="M56.75 1.09912V13.118C56.745 13.1926 56.7566 13.2675 56.784 13.3371C56.8114 13.4068 56.8538 13.4695 56.9083 13.5209C57.0712 13.6481 57.2736 13.7143 57.4802 13.7079H58.045V14.4274H53.8003V13.7079H54.3219C54.5504 13.7236 54.776 13.6501 54.9514 13.5029C55.0249 13.4255 55.0817 13.3339 55.1182 13.2336C55.1547 13.1333 55.1702 13.0266 55.1636 12.9201V2.94817C55.1748 2.82272 55.158 2.69636 55.1144 2.57818C55.0709 2.45999 55.0017 2.35293 54.9118 2.26467C54.6751 2.06151 54.3712 1.95379 54.0593 1.96249H53.2715V1.2718L56.75 1.09912Z" fill="#3C2A5C"/>
<path d="M61.2178 5.4585V11.2899C61.1794 11.8891 61.3725 12.4802 61.7574 12.9411C61.9334 13.1332 62.149 13.2849 62.3894 13.3855C62.6297 13.4861 62.8891 13.5333 63.1495 13.5238C63.494 13.5276 63.8348 13.4532 64.1463 13.3061C64.4579 13.159 64.732 12.9432 64.948 12.6749C65.4421 12.0793 65.6984 11.322 65.6674 10.5488V7.25359C65.674 7.11923 65.648 6.98527 65.5916 6.86313C65.5353 6.74098 65.4502 6.63428 65.3437 6.5521C64.9632 6.34442 64.5318 6.24841 64.0991 6.2751V5.61678L67.1854 5.4585V12.6784C67.1766 12.8189 67.1974 12.9597 67.2463 13.0917C67.2953 13.2237 67.3713 13.3439 67.4696 13.4447C67.6871 13.6334 67.97 13.729 68.2574 13.7109H68.8113V14.3404L65.8545 14.4052L65.6674 12.6784C65.22 13.2297 64.6839 13.7026 64.0811 14.0778C63.5963 14.377 63.0393 14.5387 62.4696 14.5455C62.1001 14.5547 61.7326 14.4886 61.3894 14.3513C61.0462 14.214 60.7345 14.0084 60.4732 13.7469C59.9289 13.2217 59.6567 12.3295 59.6567 11.0704V7.25359C59.6657 7.10188 59.6346 6.95048 59.5664 6.81467C59.4981 6.67886 59.3953 6.56347 59.2682 6.48015C58.9058 6.31876 58.5094 6.24837 58.1135 6.2751V5.61678L61.2178 5.4585Z" fill="#3C2A5C"/>
<path d="M70.592 2.03467H71.2215V5.63204H76.5741V6.49541H71.2215V12.1253C71.1972 12.5312 71.3255 12.9315 71.5812 13.2477C71.6904 13.3734 71.8261 13.4734 71.9784 13.5406C72.1308 13.6078 72.2961 13.6404 72.4625 13.6362C72.6765 13.6316 72.8863 13.5756 73.0741 13.4729C73.2619 13.3703 73.4223 13.2239 73.5417 13.0462C73.8414 12.6529 74.0165 12.0018 74.0669 11.0929H74.6964C74.658 12.2632 74.3918 13.1314 73.8978 13.6974C73.6609 13.9737 73.365 14.1934 73.0319 14.3404C72.6989 14.4873 72.3372 14.5577 71.9733 14.5463C71.6638 14.5645 71.3537 14.521 71.061 14.4185C70.7683 14.316 70.4989 14.1565 70.2683 13.9492C70.0629 13.746 69.9022 13.5022 69.7962 13.2334C69.6903 12.9645 69.6416 12.6766 69.6532 12.3879V6.48102H68.1244V5.8263C68.7412 5.74462 69.3042 5.43227 69.6999 4.95214C70.2515 4.25665 70.5489 3.28416 70.592 2.03467Z" fill="#3C2A5C"/>
<path d="M74.6855 5.61706L78.1856 5.51274V13.0672C78.1775 13.1475 78.1868 13.2286 78.2129 13.3049C78.2389 13.3813 78.2812 13.4511 78.3367 13.5097C78.4883 13.6373 78.6819 13.7039 78.8798 13.6968H79.5129V14.4162H75.2359V13.6968H75.8151C75.9242 13.7062 76.0341 13.6932 76.1381 13.6586C76.242 13.624 76.3377 13.5684 76.4194 13.4953C76.5581 13.3326 76.6278 13.1222 76.6136 12.9089V7.55245C76.6245 7.40675 76.6034 7.26044 76.5518 7.12375C76.5002 6.98705 76.4194 6.86326 76.3151 6.76103C76.0605 6.56569 75.7429 6.47093 75.423 6.49482H74.7035L74.6855 5.61706ZM77.1244 1.4585C77.2632 1.45852 77.4006 1.48693 77.528 1.54199C77.6555 1.59705 77.7703 1.67759 77.8654 1.77866C77.9673 1.87547 78.0483 1.99213 78.1034 2.12144C78.1584 2.25075 78.1864 2.38997 78.1856 2.53051C78.1849 2.66505 78.1571 2.79807 78.104 2.92167C78.0508 3.04527 77.9734 3.15692 77.8762 3.24999C77.7804 3.34945 77.6652 3.42821 77.5378 3.48142C77.4103 3.53463 77.2733 3.56116 77.1352 3.55936C76.9957 3.56104 76.8574 3.53414 76.7287 3.48031C76.6 3.42648 76.4838 3.34688 76.387 3.24639C76.2894 3.1535 76.2114 3.04196 76.1576 2.91838C76.1038 2.7948 76.0754 2.66168 76.0741 2.52692C76.0743 2.38812 76.1028 2.25083 76.1578 2.12342C76.2129 1.99601 76.2933 1.88115 76.3942 1.78586C76.4874 1.68495 76.6003 1.60417 76.7259 1.54849C76.8514 1.49281 76.9871 1.46341 77.1244 1.46209V1.4585Z" fill="#3C2A5C"/>
<path d="M83.9303 5.35571C84.4893 5.3449 85.0441 5.45356 85.5578 5.67441C86.0714 5.89527 86.532 6.22323 86.9087 6.63638C87.7393 7.55867 88.1734 8.77082 88.1173 10.0107C88.1424 10.864 87.9571 11.7102 87.5778 12.4749C87.2259 13.145 86.6923 13.7023 86.0382 14.083C85.3866 14.4745 84.6401 14.6799 83.8799 14.6765C83.3352 14.6809 82.7961 14.5675 82.2993 14.344C81.8026 14.1204 81.3601 13.7921 81.0022 13.3815C80.188 12.4565 79.7627 11.2527 79.8152 10.0215C79.762 8.79431 80.1832 7.59373 80.9914 6.66876C81.3569 6.24997 81.809 5.91564 82.3164 5.68892C82.8239 5.4622 83.3745 5.3485 83.9303 5.35571ZM83.9303 6.02123C83.5854 6.02116 83.246 6.10857 82.9441 6.27529C82.6421 6.44201 82.3874 6.68259 82.2037 6.97454C81.7528 7.61007 81.5274 8.61254 81.5274 9.98194C81.5274 11.3513 81.7516 12.3718 82.2001 13.0433C82.3816 13.3392 82.636 13.5835 82.9389 13.7529C83.2419 13.9223 83.5832 14.0112 83.9303 14.011C84.2849 14.0147 84.6346 13.9277 84.9462 13.7583C85.2578 13.589 85.521 13.3429 85.7109 13.0433C86.1641 12.3982 86.3907 11.3442 86.3907 9.88122C86.3907 8.52381 86.1665 7.54172 85.7181 6.93496C85.5187 6.64713 85.251 6.4133 84.9389 6.25445C84.6269 6.0956 84.2803 6.0167 83.9303 6.02483V6.02123Z" fill="#3C2A5C"/>
<path d="M87.9336 5.61688L90.8545 5.43701C90.9855 6.07428 91.0732 6.71969 91.1171 7.36881C91.4587 6.78304 91.9377 6.28919 92.5127 5.92985C93.0576 5.60979 93.6794 5.44437 94.3113 5.4514C94.8226 5.43907 95.328 5.56325 95.7753 5.81114C96.1941 6.06607 96.5254 6.44251 96.725 6.89035C96.9694 7.40989 97.0924 7.97823 97.0847 8.55235V12.8332C97.0724 12.9553 97.0852 13.0786 97.1223 13.1955C97.1594 13.3124 97.2201 13.4205 97.3005 13.5131C97.5074 13.6665 97.7635 13.7382 98.0199 13.7146H98.2753V14.4341H94.3796V13.7146H94.4552C94.7567 13.7428 95.0594 13.6735 95.3185 13.5167C95.4024 13.4435 95.4682 13.3518 95.5107 13.2487C95.5531 13.1457 95.5711 13.0343 95.5631 12.9232V9.15671C95.6107 8.52853 95.4864 7.89925 95.2034 7.33643C95.039 7.0649 94.8038 6.84315 94.5232 6.69489C94.2425 6.54662 93.9268 6.47741 93.6099 6.49464C93.269 6.49029 92.9319 6.56502 92.6248 6.71295C92.3177 6.86088 92.0491 7.07799 91.8401 7.34722C91.3423 7.9799 91.0872 8.76968 91.1207 9.574V12.8296C91.1082 12.952 91.1213 13.0756 91.159 13.1926C91.1968 13.3096 91.2584 13.4176 91.3401 13.5095C91.5483 13.6602 91.8034 13.7316 92.0595 13.711H92.3077V14.4305H88.3832V13.711H88.6278C88.8748 13.7284 89.1205 13.6625 89.3257 13.5239C89.4003 13.471 89.4612 13.4008 89.5031 13.3195C89.5451 13.2381 89.5669 13.1478 89.5667 13.0563V7.38679C89.5775 7.23126 89.5559 7.07516 89.5033 6.9284C89.4507 6.78164 89.3681 6.64741 89.2609 6.53421C89.0178 6.32594 88.7027 6.22133 88.3832 6.24283H87.9336V5.61688Z" fill="#3C2A5C"/>
<path d="M40.5631 17.309L41.3329 15.9204H41.9624L42.3221 21.4604H41.7106C41.2309 19.8679 40.6782 18.7156 40.0523 18.0033C39.7143 17.5859 39.2888 17.2477 38.8059 17.0128C38.3229 16.7778 37.7943 16.6518 37.2573 16.6435C36.4829 16.6359 35.7265 16.8767 35.099 17.3306C34.4141 17.8519 33.9026 18.5678 33.6313 19.3847C33.2932 20.2984 33.1205 21.2193 33.1205 22.8777C33.0673 24.0357 33.2408 25.193 33.6313 26.2845C33.8905 27.0783 34.3817 27.7763 35.0414 28.2882C35.659 28.7214 36.3988 28.9458 37.153 28.9285C37.6163 28.9578 38.0806 28.8911 38.517 28.7326C38.9534 28.5741 39.3523 28.3273 39.689 28.0076C39.9893 27.6917 40.2232 27.3189 40.3771 26.9111C40.5309 26.5033 40.6015 26.0689 40.5847 25.6333V24.3275C40.5889 24.2341 40.5694 24.1412 40.5279 24.0575C40.4863 23.9738 40.4242 23.9021 40.3472 23.849C40.1081 23.7169 39.8354 23.6581 39.5631 23.68H38.3904V23.0216H43.8005V23.68H43.376C43.1121 23.6565 42.8478 23.721 42.6242 23.8634C42.5489 23.9285 42.4896 24.0101 42.4509 24.1018C42.4123 24.1935 42.3953 24.2929 42.4012 24.3922V29.6912H41.7861C41.5607 28.8662 41.3209 28.0748 41.0667 27.3169C40.6587 28.0228 40.0829 28.6171 39.3904 29.0472C38.7234 29.4382 37.9619 29.6385 37.1889 29.6264C36.0476 29.6305 34.9272 29.3193 33.9515 28.7271C32.9376 28.1193 32.113 27.2411 31.5702 26.1909C30.9861 25.1783 30.6912 24.0248 30.7176 22.8562C30.6945 21.6798 30.9957 20.5199 31.5881 19.5034C32.1426 18.4401 32.9661 17.5408 33.9767 16.8953C34.883 16.2827 35.9477 15.9465 37.0414 15.9276C37.6169 15.9248 38.1882 16.0247 38.7285 16.2226C39.3912 16.4905 40.0096 16.8567 40.5631 17.309Z" fill="#3C2A5C"/>
<path d="M53.153 28.6689L53.3005 28.9279C53.3005 29.4243 52.7034 29.3703 52.1458 29.3703C51.7213 29.3703 50.8688 29.3488 50.5739 29.1257C50.2789 28.9027 50.1602 28.6473 49.9408 28.0645C49.4929 28.579 48.9555 29.0081 48.3545 29.3308C47.8429 29.5519 47.2893 29.6587 46.7322 29.6437C45.9994 29.6947 45.2719 29.4886 44.6746 29.061C44.4471 28.8851 44.2636 28.6586 44.1387 28.3994C44.0138 28.1403 43.951 27.8557 43.9552 27.568C43.9552 26.6543 44.4924 25.8953 45.5667 25.2909C46.9017 24.6114 48.3575 24.2019 49.8509 24.0858V22.7404C49.8521 22.5074 49.8014 22.277 49.7025 22.0661C49.6035 21.8551 49.4588 21.6689 49.2789 21.5208C48.8793 21.1783 48.3661 20.9974 47.8401 21.0136C47.3497 21.0004 46.8645 21.1171 46.4336 21.3518C46.153 21.522 46.0128 21.6875 46.0128 21.8482C46.0462 22.0127 46.1247 22.1646 46.2394 22.2871C46.3976 22.4764 46.4932 22.7102 46.5128 22.9562C46.5176 23.084 46.4959 23.2114 46.4488 23.3303C46.4017 23.4493 46.3304 23.5571 46.2394 23.6469C46.1438 23.7378 46.0307 23.8083 45.9071 23.854C45.7834 23.8998 45.6517 23.9199 45.52 23.9131C45.3745 23.9171 45.2298 23.8911 45.0949 23.8366C44.9599 23.7821 44.8377 23.7004 44.7358 23.5965C44.6313 23.4885 44.5497 23.3605 44.4959 23.2202C44.4422 23.0799 44.4173 22.9301 44.4228 22.7799C44.4228 22.1588 44.7718 21.5928 45.4696 21.082C46.2776 20.5364 47.2403 20.2663 48.2142 20.3121C49.2597 20.3121 50.0571 20.5376 50.6062 20.9884C50.8633 21.1826 51.0718 21.4338 51.2153 21.7221C51.3589 22.0105 51.4336 22.3283 51.4336 22.6504V27.4529C51.4179 27.7435 51.4906 28.032 51.6422 28.2803C51.6953 28.3709 51.7665 28.4495 51.8513 28.5114C51.936 28.5733 52.0326 28.6171 52.135 28.6401C52.4732 28.6744 52.8134 28.684 53.153 28.6689ZM49.8832 24.6937C48.2933 24.9144 47.1674 25.2741 46.5056 25.773C46.2614 25.9588 46.0663 26.2014 45.9371 26.4797C45.808 26.7581 45.7487 27.0638 45.7646 27.3702C45.7398 27.7826 45.878 28.1883 46.1494 28.4998C46.2782 28.635 46.4343 28.7412 46.6074 28.8113C46.7804 28.8814 46.9665 28.9138 47.153 28.9063C47.514 28.9086 47.8714 28.8352 48.2023 28.6908C48.5331 28.5464 48.8301 28.3343 49.0739 28.0681C49.3431 27.7886 49.5537 27.4582 49.6933 27.0962C49.8329 26.7341 49.8987 26.3479 49.8868 25.96L49.8832 24.6937Z" fill="#3C2A5C"/>
<path d="M52.8297 20.5709L55.3477 20.4126C55.4785 21.0283 55.5686 21.652 55.6175 22.2796C55.9899 21.7036 56.4803 21.2132 57.0563 20.8407C57.5322 20.5599 58.0757 20.4144 58.6282 20.4198C59.1694 20.3986 59.701 20.5665 60.1318 20.8946C60.5845 21.3094 60.9016 21.851 61.0419 22.4487C61.3898 21.8442 61.8663 21.3235 62.4376 20.9234C62.9337 20.5925 63.5174 20.4171 64.1138 20.4198C64.4485 20.396 64.7842 20.4483 65.0957 20.5729C65.4072 20.6976 65.6864 20.8912 65.9124 21.1393C66.4465 21.8302 66.7192 22.6877 66.6821 23.5603V27.9131C66.6696 28.0118 66.681 28.112 66.7155 28.2053C66.7499 28.2986 66.8063 28.3823 66.88 28.4491C67.1076 28.6087 67.3833 28.6849 67.6605 28.665H68.0994V29.3844H63.675V28.665H64.1174C64.3934 28.6911 64.6703 28.6253 64.9052 28.4779C64.9833 28.4072 65.0444 28.3195 65.0836 28.2217C65.1229 28.1238 65.1394 28.0183 65.1318 27.9131V23.5423C65.17 22.9968 65.0033 22.4568 64.6642 22.0278C64.5074 21.8515 64.3135 21.7119 64.0965 21.6193C63.8794 21.5266 63.6446 21.4831 63.4088 21.4918C63.0258 21.4851 62.6497 21.5942 62.3296 21.8048C62.0001 22.0277 61.7407 22.3395 61.5814 22.7041C61.3451 23.1427 61.2076 23.6277 61.1786 24.1251V27.9131C61.1695 28.0171 61.1831 28.1217 61.2185 28.2199C61.2539 28.318 61.3103 28.4073 61.3836 28.4815C61.5676 28.6186 61.7953 28.6838 62.0239 28.665H62.6246V29.3844H58.1354V28.665H58.6426C58.8966 28.685 59.15 28.6191 59.362 28.4779C59.4365 28.4225 59.4967 28.3502 59.538 28.2671C59.5792 28.184 59.6003 28.0923 59.5994 27.9995V23.9344C59.5994 23.0759 59.4472 22.4535 59.1426 22.0674C58.9996 21.8793 58.8136 21.7282 58.6002 21.6268C58.3868 21.5254 58.1522 21.4767 57.916 21.4846C57.6258 21.4696 57.3362 21.5238 57.0711 21.6426C56.8059 21.7614 56.5728 21.9415 56.3908 22.1681C55.8861 22.8021 55.6178 23.5919 55.6319 24.4021V27.9131C55.6199 28.013 55.6298 28.1142 55.6609 28.2099C55.6919 28.3056 55.7434 28.3933 55.8117 28.4671C56.0458 28.6171 56.3223 28.6865 56.5995 28.665H57.0491V29.3844H52.6067V28.665H53.2722C53.4821 28.6796 53.6896 28.6126 53.8513 28.4779C53.9171 28.4172 53.9692 28.3431 54.0039 28.2606C54.0387 28.178 54.0553 28.089 54.0527 27.9995V22.2437C54.0639 22.1133 54.0479 21.9821 54.0058 21.8583C53.9637 21.7344 53.8964 21.6207 53.8081 21.5242C53.5214 21.3241 53.1793 21.2184 52.8297 21.222V20.5709Z" fill="#3C2A5C"/>
<path d="M68.2862 20.5715L71.4229 20.4672V28.0217C71.4148 28.102 71.4241 28.1831 71.4502 28.2594C71.4762 28.3358 71.5185 28.4056 71.574 28.4642C71.7268 28.592 71.9216 28.6586 72.1207 28.6512H73.1172V29.3707H67.7466V28.6512H69.038C69.1471 28.6609 69.2571 28.6481 69.3611 28.6134C69.4651 28.5787 69.5608 28.523 69.6423 28.4498C69.7804 28.287 69.8488 28.0763 69.8329 27.8634V22.3378C69.8441 22.1916 69.8231 22.0446 69.7715 21.9073C69.72 21.77 69.639 21.6456 69.5344 21.5428C69.28 21.3472 68.9623 21.2524 68.6423 21.2766H68.2826L68.2862 20.5715ZM70.3617 16.413C70.5006 16.4128 70.638 16.4411 70.7655 16.4962C70.8929 16.5512 71.0077 16.6319 71.1027 16.7331C71.2048 16.8298 71.2859 16.9464 71.341 17.0758C71.396 17.2051 71.4239 17.3444 71.4229 17.485C71.4222 17.6195 71.3944 17.7525 71.3413 17.8761C71.2881 17.9997 71.2107 18.1114 71.1135 18.2045C70.9912 18.325 70.8411 18.4137 70.6765 18.4628C70.5118 18.5118 70.3377 18.5198 70.1693 18.4859C70.0009 18.452 69.8434 18.3774 69.7105 18.2684C69.5777 18.1595 69.4736 18.0197 69.4073 17.8612C69.3411 17.7027 69.3147 17.5304 69.3305 17.3593C69.3464 17.1883 69.4039 17.0237 69.4981 16.8801C69.5923 16.7364 69.7203 16.618 69.8708 16.5354C70.0214 16.4527 70.19 16.4082 70.3617 16.4058V16.413Z" fill="#3C2A5C"/>
<path d="M72.8581 20.572L75.7789 20.3921C75.9097 21.0294 75.9975 21.6748 76.0415 22.3239C76.3832 21.7381 76.8622 21.2443 77.4372 20.8849C77.9874 20.5619 78.6158 20.3963 79.2538 20.4065C79.7651 20.3942 80.2704 20.5183 80.7178 20.7662C81.137 21.0206 81.4684 21.3972 81.6674 21.8454C81.9115 22.3651 82.0345 22.9333 82.0271 23.5074V27.7883C82.0148 27.9104 82.0277 28.0336 82.0648 28.1506C82.1019 28.2675 82.1625 28.3756 82.243 28.4682C82.4497 28.6219 82.7059 28.6936 82.9624 28.6697H83.2178V29.3891H79.3041V28.6697H79.3797C79.6812 28.6979 79.9838 28.6285 80.243 28.4718C80.3256 28.4004 80.3908 28.3112 80.4338 28.2108C80.4769 28.1105 80.4965 28.0017 80.4912 27.8926V24.1118C80.5387 23.4825 80.4144 22.852 80.1315 22.2879C79.9669 22.0154 79.7314 21.7928 79.45 21.6439C79.1687 21.495 78.8522 21.4254 78.5343 21.4425C78.1936 21.4385 77.8565 21.5133 77.5495 21.6612C77.2424 21.8091 76.9738 22.0261 76.7646 22.2951C76.2671 22.9279 76.012 23.7176 76.0451 24.5219V27.7775C76.0327 27.8998 76.0457 28.0234 76.0835 28.1405C76.1213 28.2575 76.1829 28.3654 76.2646 28.4574C76.4727 28.6081 76.7278 28.6795 76.984 28.6589H77.2322V29.3783H72.9372V28.6589H73.5487C73.7957 28.6757 74.0412 28.6099 74.2466 28.4718C74.3217 28.4185 74.3829 28.3478 74.4249 28.2657C74.4668 28.1837 74.4883 28.0927 74.4876 28.0005V22.3275C74.4986 22.1719 74.4772 22.0158 74.4245 21.869C74.3719 21.7222 74.2892 21.588 74.1818 21.4749C73.9389 21.2663 73.6236 21.1616 73.3041 21.1835H72.8545L72.8581 20.572Z" fill="#3C2A5C"/>
<path d="M89.876 21.0574C90.5019 20.4242 92.2502 19.4997 92.8077 19.4781C92.966 19.4565 93.1271 19.4673 93.2811 19.51C93.4351 19.5527 93.5788 19.6263 93.7034 19.7263C93.9085 19.9278 93.5379 20.3775 93.5379 20.6653C93.5447 20.8774 93.4686 21.0838 93.3257 21.2408C93.2652 21.3127 93.1897 21.3705 93.1047 21.4102C93.0196 21.45 92.9268 21.4707 92.8329 21.4711C92.4756 21.4711 92.2358 21.2516 92.1135 20.8127C92.0631 20.6257 91.978 20.5322 91.8581 20.5322C91.2914 20.7315 90.7677 21.0367 90.3149 21.4315C90.5417 21.7254 90.728 22.0485 90.8689 22.392C90.971 22.6733 91.0221 22.9705 91.0199 23.2698C91.0287 23.7774 90.8914 24.2769 90.6242 24.7087C90.2915 25.1838 89.8401 25.5634 89.3149 25.8095C88.7785 26.109 88.1772 26.2732 87.5631 26.288H86.5415C86.0506 26.2472 85.5572 26.3249 85.1026 26.5146C84.9875 26.5873 84.8936 26.6891 84.8304 26.8098C84.7672 26.9304 84.7371 27.0656 84.7429 27.2017C84.7381 27.313 84.7625 27.4237 84.8136 27.5228C84.8647 27.6218 84.9407 27.7058 85.0343 27.7665C85.3763 27.9274 85.7547 27.9956 86.1314 27.9643L88.448 27.9176C89.6182 27.9176 90.4576 28.113 90.966 28.5039C91.2163 28.6886 91.4176 28.9316 91.5524 29.2119C91.6872 29.4922 91.7514 29.8012 91.7394 30.112C91.7437 30.4738 91.6668 30.832 91.5142 31.1601C91.3617 31.4882 91.1375 31.7779 90.8581 32.0078C90.0379 32.7273 88.8137 33.087 87.1854 33.087C85.84 33.087 84.8424 32.84 84.1925 32.3459C83.9686 32.2062 83.7818 32.0146 83.6478 31.7873C83.5137 31.5599 83.4365 31.3036 83.4227 31.0401C83.4333 30.8489 83.4839 30.662 83.5712 30.4916C83.6586 30.3211 83.7808 30.171 83.9299 30.0508C84.4107 29.6772 84.9838 29.441 85.5882 29.3673C85.0735 29.2679 84.5922 29.0403 84.1889 28.7054C84.0394 28.5686 83.9204 28.4017 83.8398 28.2157C83.7592 28.0298 83.7188 27.8289 83.7213 27.6262C83.7099 27.2417 83.8405 26.8664 84.0882 26.5721C84.4539 26.206 84.909 25.9418 85.4084 25.8059C84.924 25.5522 84.511 25.1811 84.2069 24.7267C83.9338 24.2972 83.7936 23.7966 83.804 23.2877C83.8019 22.8819 83.891 22.4808 84.0647 22.1141C84.2384 21.7474 84.4923 21.4243 84.8076 21.1689C85.5417 20.571 86.4698 20.2637 87.4156 20.3055C87.8446 20.304 88.2715 20.3671 88.6818 20.4926C89.1057 20.6206 89.5081 20.811 89.876 21.0574ZM87.9623 29.3637C86.8113 29.3637 85.9899 29.5232 85.4983 29.8422C85.2851 29.9533 85.1048 30.1184 84.9754 30.3211C84.846 30.5237 84.772 30.7567 84.7609 30.9969C84.7568 31.1982 84.8058 31.3969 84.9031 31.5732C85.0003 31.7494 85.1424 31.8968 85.3148 32.0006C85.9466 32.3631 86.6705 32.5332 87.3976 32.4898C88.4743 32.4898 89.2849 32.3112 89.8293 31.9538C90.3736 31.5965 90.647 31.202 90.6494 30.7703C90.6475 30.5086 90.5575 30.2552 90.394 30.0508C90.1834 29.8019 89.9005 29.6246 89.5847 29.5436C89.0547 29.4105 88.5084 29.3536 87.9623 29.3745V29.3637ZM87.4084 20.8955C87.1469 20.8891 86.8873 20.941 86.6484 21.0474C86.4095 21.1538 86.1973 21.312 86.0271 21.5106C85.6391 21.9981 85.4456 22.612 85.4839 23.2338C85.4432 23.8902 85.6356 24.54 86.0271 25.0684C86.1963 25.2711 86.4076 25.4344 86.6464 25.547C86.8852 25.6597 87.1456 25.7189 87.4096 25.7206C87.6736 25.7223 87.9348 25.6665 88.175 25.557C88.4152 25.4474 88.6287 25.2869 88.8005 25.0864C89.1879 24.5698 89.3791 23.9323 89.3401 23.2877C89.3745 22.6608 89.1788 22.0429 88.7897 21.5502C88.6228 21.3458 88.4119 21.1817 88.1727 21.0702C87.9335 20.9587 87.6723 20.9026 87.4084 20.9063V20.8955Z" fill="#3C2A5C"/>
<path d="M93.1422 19.5435C93.4253 19.5482 93.6952 19.664 93.8937 19.8658C94.0922 20.0677 94.2034 20.3395 94.2034 20.6227C94.2029 20.7573 94.1752 20.8903 94.122 21.014C94.0689 21.1376 93.9913 21.2492 93.894 21.3422C93.7715 21.4628 93.6213 21.5516 93.4565 21.6006C93.2917 21.6497 93.1174 21.6575 92.9489 21.6235C92.7804 21.5894 92.6228 21.5145 92.49 21.4054C92.3572 21.2962 92.2532 21.1561 92.1871 20.9973C92.1211 20.8386 92.095 20.666 92.1112 20.4948C92.1274 20.3237 92.1854 20.1591 92.2801 20.0155C92.3747 19.872 92.5032 19.7539 92.6541 19.6716C92.8051 19.5893 92.9739 19.5453 93.1458 19.5435H93.1422Z" fill="#3C2A5C"/>
<path d="M19.8075 27.9492H19.5773H19.4586V27.3772H19.6169C19.7383 27.3644 19.8609 27.3779 19.9766 27.4168C20.0227 27.4392 20.0613 27.4747 20.0875 27.5188C20.1137 27.5629 20.1264 27.6137 20.1241 27.665C20.1245 27.7063 20.1159 27.7473 20.0991 27.7851C20.0822 27.8228 20.0574 27.8565 20.0263 27.8839C19.9953 27.9112 19.9587 27.9315 19.9191 27.9434C19.8794 27.9552 19.8377 27.9585 19.7968 27.9528L19.8075 27.9492ZM20.4766 27.6722C20.4802 27.5844 20.4633 27.4971 20.427 27.4171C20.3908 27.3371 20.3363 27.2668 20.268 27.2117C20.0992 27.0977 19.8941 27.0503 19.6924 27.0786H19.1133V28.9349H19.473V28.2513H19.7824L20.1421 28.942H20.5377L20.1241 28.1866C20.2321 28.1533 20.326 28.085 20.3911 27.9926C20.4562 27.9002 20.4888 27.7887 20.4838 27.6758L20.4766 27.6722ZM19.7644 29.4745C19.4798 29.4745 19.2016 29.3901 18.965 29.232C18.7284 29.0738 18.544 28.8491 18.4351 28.5862C18.3262 28.3232 18.2977 28.0339 18.3532 27.7548C18.4087 27.4757 18.5458 27.2193 18.747 27.018C18.9482 26.8168 19.2046 26.6797 19.4837 26.6242C19.7628 26.5687 20.0521 26.5972 20.315 26.7061C20.5779 26.815 20.8026 26.9994 20.9607 27.2361C21.1188 27.4727 21.2032 27.7509 21.2032 28.0355C21.2032 28.4171 21.0516 28.7831 20.7818 29.053C20.5119 29.3229 20.146 29.4745 19.7644 29.4745ZM19.7644 26.2368C19.4087 26.2368 19.0609 26.3423 18.7652 26.54C18.4694 26.7376 18.2389 27.0185 18.1028 27.3472C17.9667 27.6758 17.931 28.0375 18.0004 28.3864C18.0698 28.7353 18.2411 29.0558 18.4926 29.3074C18.7442 29.5589 19.0646 29.7302 19.4135 29.7996C19.7624 29.869 20.124 29.8334 20.4526 29.6973C20.7813 29.5611 21.0622 29.3306 21.2598 29.0348C21.4574 28.739 21.5629 28.3913 21.5629 28.0355C21.5629 27.5585 21.3734 27.101 21.0361 26.7636C20.6988 26.4263 20.2414 26.2368 19.7644 26.2368Z" fill="#3C2A5C"/>
<path d="M0.667175 2.63827C9.30033 -1.98076 20.4875 2.89009 21.3292 14.6499C5.28591 15.909 3.35425 8.68546 0.667175 2.63827Z" fill="#3C2A5C"/>
<path d="M0.66748 27.8519C9.30058 32.4709 20.4876 27.6001 21.3294 15.8402C5.28619 14.5812 3.35453 21.8011 0.66748 27.8519Z" fill="#3C2A5C"/>
<path d="M21.2967 14.6601C20.455 2.90029 9.26796 -1.96697 0.634888 2.64847C3.32193 8.69567 5.25358 15.9192 21.2967 14.6601ZM0.634888 27.8625C9.26796 32.4816 20.455 27.6107 21.2967 15.8509C5.25358 14.581 3.32193 21.8117 0.634888 27.8625Z" fill="#3C2A5C"/>
</svg>
