<svg width="127" height="32" viewBox="0 0 127 32" fill="none" xmlns="http://www.w3.org/2000/svg">
<path d="M15.999 0.379883C24.5944 0.379883 31.5128 7.29868 31.5128 16.1044C31.5128 24.7005 24.5944 31.6193 15.999 31.6193C10.3385 31.6193 5.72631 28.8937 2.79126 24.4908C5.51666 20.717 8.03241 16.5237 10.3385 12.1209C10.3385 12.1209 9.70958 25.9585 14.5314 26.1681C18.3051 27.0068 23.1269 15.2658 23.1269 15.2658C22.7076 15.2658 26.6909 22.1846 27.7391 21.5556C28.1584 21.3459 27.1102 19.8783 26.2716 17.9914C25.433 16.1044 25.0137 13.5885 24.8041 12.5402C24.5944 10.8629 24.8041 10.2339 23.5462 10.0243C22.498 9.81461 22.0787 10.6533 21.4497 12.1209C19.5629 16.3141 15.999 23.6522 14.7411 23.4425C12.8543 23.0232 13.2736 7.29868 13.2736 6.04072C13.4832 4.78275 13.2736 4.15377 12.435 3.73445C10.9675 3.73445 10.3385 5.41174 9.91922 6.46004C6.77454 11.9112 3.83949 16.9431 0.90445 20.717C0.485159 19.2493 0.275513 17.572 0.275513 16.1044C0.275513 7.29868 7.19383 0.379883 15.999 0.379883Z" fill="#3C2A5C"/>
<path d="M120.193 16.9419C120.193 18.1999 120.403 19.0385 120.822 19.4578C121.241 19.8772 121.66 20.2965 122.499 20.2965C123.128 20.2965 123.547 19.8772 123.967 19.4578C124.595 19.0385 124.805 18.1999 124.805 17.1516C124.805 16.1033 124.595 15.2646 123.967 14.8453C123.547 14.2163 123.128 14.0067 122.289 14.0067C121.66 14.0067 121.241 14.2163 120.822 14.6357C120.403 15.2646 120.193 16.1033 120.193 16.9419ZM118.935 22.1834H120.403C120.403 22.8124 120.612 23.0221 120.822 23.2317C121.241 23.4414 121.66 23.651 122.289 23.651C122.918 23.651 123.338 23.4414 123.757 23.2317C124.176 23.0221 124.386 22.6027 124.595 22.1834C124.595 21.7641 124.595 21.1351 124.595 20.2965C123.967 20.9255 123.128 21.3448 122.289 21.3448C121.032 21.3448 120.193 20.9255 119.564 20.0868C118.935 19.2482 118.725 18.1999 118.725 17.1516C118.725 16.3129 118.725 15.684 119.145 14.8453C119.354 14.2163 119.774 13.797 120.403 13.3777C120.822 12.9584 121.451 12.7487 122.289 12.7487C123.338 12.7487 124.176 13.168 124.805 14.0067V12.9584H126.063V20.2965C126.063 21.5544 125.853 22.3931 125.644 23.0221C125.434 23.651 125.015 24.0704 124.386 24.28C123.757 24.6993 123.128 24.6993 122.289 24.6993C121.241 24.6993 120.403 24.4897 119.774 24.0704C119.145 23.651 118.935 23.0221 118.935 22.1834ZM110.13 21.3448V12.9584H111.388V14.2163C112.017 13.168 112.855 12.7487 114.113 12.7487C114.532 12.7487 115.161 12.9584 115.581 12.9584C116 13.168 116.21 13.3777 116.419 13.797C116.629 14.0067 116.839 14.426 116.839 14.8453C117.048 15.055 117.048 15.4743 117.048 16.3129V21.3448H115.581V16.3129C115.581 15.684 115.581 15.2646 115.371 15.055C115.371 14.6357 115.161 14.426 114.742 14.2163C114.532 14.0067 114.113 14.0067 113.904 14.0067C113.275 14.0067 112.646 14.2163 112.226 14.6357C111.807 15.055 111.597 15.684 111.597 16.7323V21.3448H110.13ZM106.566 21.3448V12.9584H108.033V21.3448H106.566ZM106.566 11.2811V9.81348H108.033V11.2811H106.566ZM92.939 21.3448V12.9584H94.4065V14.2163C94.6161 13.797 94.8258 13.3777 95.4547 13.168C95.874 12.9584 96.2933 12.7487 96.9222 12.7487C97.5512 12.7487 97.9705 12.9584 98.3898 13.168C98.8091 13.3777 99.0187 13.797 99.2283 14.2163C99.8573 13.168 100.696 12.7487 101.744 12.7487C102.583 12.7487 103.421 12.9584 103.841 13.3777C104.26 14.0067 104.469 14.6357 104.469 15.684V21.3448H103.002V16.1033C103.002 15.4743 103.002 15.055 102.792 14.8453C102.792 14.6357 102.583 14.426 102.373 14.2163C102.163 14.0067 101.744 14.0067 101.534 14.0067C100.906 14.0067 100.486 14.2163 100.067 14.6357C99.6476 15.055 99.438 15.684 99.438 16.5226V21.3448H97.9705V15.8936C97.9705 15.2646 97.9705 14.8453 97.7608 14.426C97.3415 14.2163 97.1319 14.0067 96.5029 14.0067C96.0837 14.0067 95.6644 14.2163 95.4547 14.426C95.0354 14.6357 94.8258 14.8453 94.6161 15.2646C94.6161 15.684 94.4065 16.3129 94.4065 16.9419V21.3448H92.939ZM76.3769 16.9419C76.3769 18.1999 76.5866 19.0385 77.0059 19.4578C77.4252 19.8772 78.0541 20.2965 78.683 20.2965C79.312 20.2965 79.9409 19.8772 80.3602 19.4578C80.7795 19.0385 80.9892 18.1999 80.9892 17.1516C80.9892 16.1033 80.7795 15.2646 80.3602 14.8453C79.7313 14.2163 79.312 14.0067 78.683 14.0067C78.0541 14.0067 77.4252 14.2163 77.0059 14.6357C76.5866 15.2646 76.3769 16.1033 76.3769 16.9419ZM75.1191 22.1834H76.5866C76.5866 22.8124 76.7962 23.0221 77.0059 23.2317C77.4252 23.4414 77.8445 23.651 78.4734 23.651C79.1023 23.651 79.7313 23.4414 79.9409 23.2317C80.3602 23.0221 80.5699 22.6027 80.7795 22.1834C80.7795 21.7641 80.7795 21.1351 80.7795 20.2965C80.1506 20.9255 79.5216 21.3448 78.4734 21.3448C77.4252 21.3448 76.3769 20.9255 75.748 20.0868C75.1191 19.2482 74.9094 18.1999 74.9094 17.1516C74.9094 16.3129 75.1191 15.684 75.3287 14.8453C75.5384 14.2163 75.9576 13.797 76.5866 13.3777C77.2155 12.9584 77.8445 12.7487 78.4734 12.7487C79.5216 12.7487 80.3602 13.168 80.9892 14.0067V12.9584H82.247V20.2965C82.247 21.5544 82.247 22.3931 81.8277 23.0221C81.6181 23.651 81.1988 24.0704 80.5699 24.28C80.1506 24.6993 79.312 24.6993 78.4734 24.6993C77.4252 24.6993 76.5866 24.4897 76.1673 24.0704C75.5384 23.651 75.1191 23.0221 75.1191 22.1834ZM67.3622 17.1516C67.3622 18.1999 67.5718 19.0385 67.9911 19.6675C68.4104 20.0868 69.0393 20.2965 69.8779 20.2965C70.5069 20.2965 71.1358 20.0868 71.5551 19.6675C71.9744 19.0385 72.3937 18.1999 72.3937 17.1516C72.3937 16.1033 71.9744 15.2646 71.5551 14.8453C71.1358 14.2163 70.5069 14.0067 69.8779 14.0067C69.0393 14.0067 68.4104 14.2163 67.9911 14.8453C67.5718 15.2646 67.3622 16.1033 67.3622 17.1516ZM65.8946 17.1516C65.8946 15.684 66.3139 14.426 67.1525 13.797C67.9911 13.168 68.8297 12.7487 69.8779 12.7487C70.9261 12.7487 71.9744 13.168 72.6033 14.0067C73.4419 14.6357 73.8612 15.684 73.8612 17.1516C73.8612 18.1999 73.6515 19.0385 73.2323 19.6675C73.0226 20.2965 72.3937 20.7158 71.7647 21.1351C71.1358 21.3448 70.5069 21.5544 69.8779 21.5544C68.62 21.5544 67.7815 21.1351 66.9429 20.5061C66.3139 19.6675 65.8946 18.6192 65.8946 17.1516ZM61.0728 21.3448V12.9584H62.3307V14.2163C62.5403 13.5874 62.9596 13.168 63.1693 13.168C63.3789 12.9584 63.7982 12.7487 64.0078 12.7487C64.6368 12.7487 65.0561 12.9584 65.4754 13.168L65.0561 14.6357C64.6368 14.426 64.4271 14.2163 64.0078 14.2163C63.7982 14.2163 63.3789 14.426 63.1693 14.6357C62.9596 14.6357 62.75 15.055 62.5403 15.2646C62.5403 15.8936 62.3307 16.3129 62.3307 16.9419V21.3448H61.0728ZM58.3474 18.1999L59.8149 18.4095C59.6053 19.4578 59.186 20.2965 58.557 20.7158C57.9281 21.3448 57.0895 21.5544 56.2509 21.5544C55.2027 21.5544 54.1545 21.1351 53.5255 20.5061C52.8966 19.6675 52.4773 18.6192 52.4773 17.1516C52.4773 16.3129 52.687 15.4743 52.8966 14.8453C53.1062 14.2163 53.7352 13.5874 54.3641 13.3777C54.9931 12.9584 55.622 12.7487 56.2509 12.7487C57.2992 12.7487 57.9281 12.9584 58.557 13.3777C59.186 14.0067 59.3956 14.6357 59.6053 15.4743L58.3474 15.684C58.1377 15.055 57.9281 14.6357 57.5088 14.426C57.2992 14.0067 56.8799 14.0067 56.2509 14.0067C55.622 14.0067 54.9931 14.2163 54.5738 14.6357C54.1545 15.2646 53.9448 16.1033 53.9448 17.1516C53.9448 18.1999 54.1545 19.0385 54.5738 19.6675C54.9931 20.0868 55.622 20.2965 56.2509 20.2965C56.8799 20.2965 57.2992 20.2965 57.7185 19.8772C58.1377 19.4578 58.3474 19.0385 58.3474 18.1999ZM49.3326 21.3448V12.9584H50.5905V21.3448H49.3326ZM49.3326 11.2811V9.81348H50.5905V11.2811H49.3326ZM35.9153 21.3448V9.81348H38.2214L40.9468 17.9902C41.1564 18.8289 41.3661 19.2482 41.5757 19.6675C41.5757 19.2482 41.7854 18.6192 42.2047 17.7806L44.9301 9.81348H47.0265V21.3448H45.559V11.7004L41.995 21.3448H40.7371L37.3828 11.4908V21.3448H35.9153ZM85.1821 16.9419C85.1821 18.1999 85.3917 19.0385 85.811 19.4578C86.2303 19.8772 86.8592 20.2965 87.4882 20.2965C88.1171 20.2965 88.5364 19.8772 89.1653 19.4578C89.5846 19.0385 89.7943 18.1999 89.7943 17.1516C89.7943 16.1033 89.5846 15.2646 88.9557 14.8453C88.5364 14.2163 88.1171 14.0067 87.4882 14.0067C86.8592 14.0067 86.2303 14.2163 85.811 14.6357C85.3917 15.2646 85.1821 16.1033 85.1821 16.9419ZM89.7943 20.2965C89.5846 20.5061 88.746 21.1351 87.9075 21.3448C87.6978 21.3448 87.4882 21.3448 87.2785 21.3448C86.2303 21.3448 85.1821 20.9255 84.5531 20.0868C83.9242 19.2482 83.7145 18.1999 83.7145 17.1516C83.7145 16.3129 83.7145 15.684 84.1338 14.8453C84.3435 14.2163 84.7628 13.797 85.3917 13.3777C85.811 12.9584 86.6496 12.7487 87.2785 12.7487C88.3268 12.7487 89.1653 13.168 89.7943 14.0067V12.9584H91.0522V15.8936V17.9902C91.0522 19.2482 91.0522 20.0868 91.0522 20.2965C91.2618 20.7158 91.2618 21.1351 91.4714 21.3448H90.0039C89.7943 21.1351 89.7943 20.7158 89.7943 20.2965Z" fill="#3C2A5C"/>
</svg>
